<svg width="113" height="121" viewBox="0 0 113 121" fill="none" xmlns="http://www.w3.org/2000/svg">
<rect x="33" y="12" width="80" height="77.4194" rx="15" fill="#FEEFD3"/>
<path d="M78.5742 113H50.4492C48.993 113 47.8125 111.819 47.8125 110.363V95.7634C47.8125 92.1487 48.8624 88.6415 50.8486 85.6215L60.7841 70.5145C63.3909 66.5503 68.6517 65.3035 72.761 67.6759C73.2751 67.9728 73.7483 68.3129 74.1795 68.6896V52.3555C74.1795 47.9938 77.728 44.4453 82.0897 44.4453C86.4513 44.4453 89.9998 47.9938 89.9998 52.3555V78.7227C89.9998 79.0707 89.9307 79.4154 89.797 79.7367L81.2109 100.344V110.363C81.2109 111.819 80.0304 113 78.5742 113V113ZM53.0859 107.727H75.9375V99.8164C75.9375 99.4684 76.0066 99.1237 76.1404 98.8023L84.7266 78.1953V52.3555C84.7266 50.9016 83.5437 49.7188 82.0898 49.7188C80.636 49.7188 79.4531 50.9016 79.4531 52.3555V73.4492C79.4531 73.9161 79.3292 74.3745 79.094 74.7778L66.8435 95.8613C66.3551 96.7072 65.4688 97.18 64.5576 97.18C64.5412 97.18 64.5249 97.18 64.5094 97.18C64.0582 97.18 63.601 97.0642 63.1833 96.8204C61.9254 96.0867 61.5006 94.4721 62.2343 93.2142L71.4769 77.2895C72.4954 75.5252 71.8887 73.2611 70.1246 72.2427C68.4318 71.2651 66.2643 71.7793 65.1904 73.4121L55.2549 88.5191C53.8358 90.6763 53.0859 93.1814 53.0859 95.7634V107.727Z" fill="#1584EA"/>
<path d="M39.5508 113H11.4258C9.96961 113 8.78906 111.819 8.78906 110.363V100.344L0.202852 79.7367C0.069082 79.4154 0 79.0707 0 78.7227V52.3555C0 47.9938 3.5485 44.4453 7.91016 44.4453C12.2718 44.4453 15.8203 47.9938 15.8203 52.3555V68.6894C16.2515 68.3127 16.7249 67.9726 17.2389 67.6759C21.3481 65.3035 26.6091 66.5507 29.2157 70.5145L39.1512 85.6215C41.1376 88.6416 42.1873 92.1487 42.1873 95.7634V110.363C42.1875 111.819 41.007 113 39.5508 113V113ZM14.0625 107.727H36.9141V95.7634C36.9141 93.1814 36.1642 90.6763 34.7454 88.5191L24.8099 73.4121C23.7359 71.7791 21.5684 71.2655 19.8758 72.2428C18.1116 73.2613 17.505 75.5254 18.5235 77.2897L27.7661 93.2144C28.4998 94.4723 28.0749 96.0869 26.817 96.8206C26.3921 97.0684 25.929 97.1806 25.4672 97.18C24.541 97.1908 23.6496 96.7149 23.1567 95.8613L10.906 74.7778C10.6708 74.3745 10.5469 73.9161 10.5469 73.4492V52.3555C10.5469 50.9016 9.36404 49.7188 7.91016 49.7188C6.45627 49.7188 5.27344 50.9016 5.27344 52.3555V78.1953L13.8596 98.8023C13.9934 99.1237 14.0625 99.4684 14.0625 99.8164V107.727Z" fill="#1584EA"/>
<path fill-rule="evenodd" clip-rule="evenodd" d="M34 0C28.4772 0 24 4.47715 24 10V56C24 61.5228 28.4772 66 34 66H56C61.5228 66 66 61.5229 66 56V10C66 4.47715 61.5228 0 56 0H34ZM42.5 54C41.6716 54 41 54.6716 41 55.5C41 56.3284 41.6716 57 42.5 57H48.5C49.3284 57 50 56.3284 50 55.5C50 54.6716 49.3284 54 48.5 54H42.5Z" fill="#00BFD8"/>
<path d="M28 119.5H58" stroke="#1584EA" stroke-width="2.8" stroke-linecap="round" stroke-linejoin="round"/>
<circle cx="62.4" cy="119.4" r="1.4" fill="#1584EA"/>
</svg>
