<svg width="97" height="97" viewBox="0 0 97 97" fill="none" xmlns="http://www.w3.org/2000/svg">
<g clip-path="url(#clip0)">
<rect x="30" y="-4" width="80" height="77.4194" rx="15" fill="#FEEFD3"/>
<path d="M48.5 24.25C35.1261 24.25 24.25 35.1261 24.25 48.5C24.25 61.8739 35.1261 72.75 48.5 72.75C61.8739 72.75 72.75 61.8739 72.75 48.5C72.75 35.1261 61.8739 24.25 48.5 24.25ZM61.5667 44.1795L48.4313 58.3253C46.8631 60.0107 44.2199 60.043 42.6113 58.4304L35.5384 51.3575C33.9581 49.7772 33.9581 47.2228 35.5384 45.6425C37.1187 44.0623 39.673 44.0623 41.2533 45.6425L45.3596 49.7489L55.6416 38.6747C57.1613 37.0378 59.7197 36.9449 61.3565 38.4645C62.9894 39.9842 63.0823 42.5426 61.5667 44.1795Z" fill="#00BFD8"/>
<path d="M10.4686 65.1205L10.47 65.1201C12.0784 64.6297 12.9906 62.9228 12.5039 61.303C11.4001 57.6252 10.8409 53.8247 10.8409 50.0019C10.8409 28.4311 28.2859 10.8794 49.7273 10.8794C57.3213 10.8794 64.5436 13.0793 70.6986 17.0715L65.2794 22.527C63.3651 24.4447 64.7125 27.7533 67.4318 27.7533H84.2046C85.8871 27.7533 87.25 26.38 87.25 24.691V7.81704C87.25 5.10532 83.9793 3.71431 82.0518 5.65342L75.0656 12.6817C67.7137 7.595 58.9658 4.75472 49.7273 4.75472C24.9244 4.75472 4.75 25.053 4.75 50.0019C4.75 54.4248 5.39841 58.8212 6.67263 63.0704C7.15549 64.6826 8.84078 65.6065 10.4686 65.1205Z" fill="#1584EA" stroke="#1584EA" stroke-width="0.5"/>
<path d="M83.5848 35.6402C84.6749 39.2563 85.2273 42.9931 85.2273 46.7518C85.2273 67.9602 67.9975 85.219 46.8183 85.219C39.3332 85.219 32.2119 83.0674 26.1442 79.1579L31.47 73.764L31.4701 73.7638C33.3481 71.8589 32.0011 68.6259 29.3297 68.6259H12.7615C11.9587 68.6259 11.1834 68.9474 10.6203 69.5234C10.0596 70.097 9.74211 70.8683 9.75015 71.6734L9.75015 71.6737L9.93424 88.2662C9.93424 88.2663 9.93424 88.2664 9.93424 88.2665C9.95855 90.9456 13.2222 92.2476 15.086 90.3533C15.0861 90.3532 15.0861 90.3531 15.0862 90.353L21.853 83.5003C29.1005 88.4759 37.719 91.25 46.8183 91.25C71.3192 91.25 91.25 71.2887 91.25 46.7518C91.25 42.4019 90.6094 38.0782 89.3506 33.8993L89.3506 33.8992C88.8693 32.3046 87.2028 31.3944 85.5962 31.8811L85.5961 31.8811C84.0063 32.3636 83.1031 34.0442 83.5848 35.6402ZM83.5848 35.6402L83.8242 35.5681M83.5848 35.6402C83.5848 35.6402 83.5848 35.6403 83.5848 35.6403L83.8242 35.5681M83.8242 35.5681C84.9213 39.2075 85.4773 42.9686 85.4773 46.7518C85.4773 68.0979 68.1359 85.469 46.8183 85.469C39.2667 85.469 32.082 83.2929 25.9648 79.3397L85.6687 32.1204C84.2107 32.5629 83.3823 34.1042 83.8242 35.5681Z" fill="#1584EA" stroke="#1584EA" stroke-width="0.5"/>
<path d="M11 18C8.5 20.5 6.5 24 5 28" stroke="#1584EA" stroke-width="3" stroke-linecap="round" stroke-linejoin="round"/>
<circle cx="14.4" cy="15.4" r="1.4" fill="#1584EA"/>
<path d="M80.4543 83.7133C83.3723 81.7169 85.9831 78.6454 88.1946 74.9904" stroke="#1584EA" stroke-width="3" stroke-linecap="round" stroke-linejoin="round"/>
<circle cx="76.634" cy="85.6422" r="1.4" transform="rotate(-169.38 76.634 85.6422)" fill="#1584EA"/>
</g>
<defs>
<clipPath id="clip0">
<rect width="97" height="97" fill="white"/>
</clipPath>
</defs>
</svg>
