<svg xmlns="http://www.w3.org/2000/svg" height="512" viewBox="0 0 64 64" width="512"><path d="M33 63h30V39H33zm12-22h6v2h-6zm-10 0h8v4h10v-4h8v20H35zm22 16h2v2h-2zm-4 0h2v2h-2zm-4 0h2v2h-2zm12-36h-2V1H33v20h-2V1H5v20H3c-1.103 0-2 .897-2 2v2c0 1.103.897 2 2 2h5.263C8.097 27.64 8 28.308 8 29c0 2.78 1.427 5.23 3.585 6.665C5.462 37.555 1 43.265 1 50c0 2.045 1.237 3.802 3 4.576V63h27V50c0-6.735-4.462-12.445-10.585-14.335C22.573 34.23 24 31.78 24 29c0-.692-.097-1.36-.263-2H61c1.103 0 2-.897 2-2v-2c0-1.103-.897-2-2-2zM43 3h6v2h-6zm-8 0h6v4h10V3h6v18h-6v-4H41v4h-6zm14 18h-6v-2h6zM15 3h6v2h-6zM7 3h6v4h10V3h6v18h-6v-4H13v4H7zm8 18v-2h6v2zM3 25v-2h7.726a8.07 8.07 0 0 0-1.644 2zm3 30h4v6H6zm9.5-7H12v-5h7v5h5v13H12v-6h3.5c1.93 0 3.5-1.57 3.5-3.5S17.43 48 15.5 48zm5.5-3.586L22.586 46H21zM29 50v11h-3V46.586L20.414 41H10v7H7v2h8.5a1.5 1.5 0 1 1 0 3H6c-1.654 0-3-1.346-3-3a13.02 13.02 0 0 1 13-13 13.02 13.02 0 0 1 13 13zM16 35a6.01 6.01 0 0 1-6-6 6.01 6.01 0 0 1 6-6 6.01 6.01 0 0 1 6 6 6.01 6.01 0 0 1-6 6zm45-10H22.918c-.437-.753-.994-1.428-1.644-2H61zM49 53h10v2H49z"/></svg>