<svg width="576" height="484" viewBox="0 0 576 484" fill="none" xmlns="http://www.w3.org/2000/svg">
<g clip-path="url(#clip0)">
<path d="M365.93 203.299C277.165 149.624 235.282 -15.2766 98.2611 83.2643C-38.7596 181.805 18.058 384.259 149.36 433.223C280.663 482.187 449.597 454.526 497.138 363.567C578.37 208.143 425.471 239.304 365.93 203.299Z" fill="#F0F0F0"/>
<path d="M365.93 203.299C277.165 149.624 235.282 -15.2766 98.2611 83.2643C-38.7596 181.805 18.058 384.259 149.36 433.223C280.663 482.187 449.597 454.526 497.138 363.567C578.37 208.143 425.471 239.304 365.93 203.299Z" fill="#F0F0F0"/>
<path d="M5.88574 394.081C5.88574 394.081 81.5748 318.131 207.993 354.164C334.411 390.198 408.841 359.315 393.145 168.334C393.145 168.334 570.83 193.142 548.049 319.485C520.405 472.823 163.546 531.331 5.88574 394.081Z" fill="#F0F0F0"/>
<path d="M375.215 192.997C286.468 139.323 244.574 -25.5778 107.554 72.9631C-29.4668 171.504 27.3508 373.958 158.656 422.922C289.961 471.886 458.893 444.225 506.433 353.265C587.665 197.842 434.764 229.003 375.215 192.997Z" fill="url(#paint0_linear)" fill-opacity="0.5"/>
<path d="M15.1836 383.78C15.1836 383.78 90.8727 307.83 217.291 343.863C343.708 379.896 418.139 349.014 402.443 158.033C402.443 158.033 580.128 182.84 557.347 309.184C529.698 462.522 172.839 521.03 15.1836 383.78Z" fill="url(#paint1_linear)" fill-opacity="0.5"/>
<path d="M180.948 71.7038V145.761C180.947 147.28 180.647 148.783 180.065 150.185C179.483 151.587 178.631 152.86 177.557 153.933C176.484 155.005 175.209 155.855 173.807 156.435C172.405 157.014 170.902 157.311 169.385 157.309H11.5627C10.0456 157.311 8.54282 157.014 7.14041 156.435C5.738 155.856 4.46342 155.006 3.38955 153.934C2.31569 152.861 1.46359 151.587 0.881987 150.185C0.300382 148.783 0.000674549 147.28 0 145.761L0 71.7038C0.000674943 70.1855 0.300364 68.6822 0.881937 67.2798C1.46351 65.8774 2.31556 64.6035 3.3894 63.5308C4.46323 62.4582 5.73779 61.6078 7.14021 61.0283C8.54264 60.4488 10.0454 60.1516 11.5627 60.1536H169.385C170.902 60.1516 172.405 60.4488 173.807 61.0283C175.21 61.6078 176.484 62.4582 177.558 63.5308C178.632 64.6035 179.484 65.8774 180.066 67.2798C180.647 68.6822 180.947 70.1855 180.948 71.7038V71.7038Z" fill="#DDEAFC"/>
<path d="M180.948 71.7038V78.1137H0V71.7038C0.000674943 70.1855 0.300364 68.6822 0.881937 67.2798C1.46351 65.8774 2.31556 64.6035 3.3894 63.5308C4.46323 62.4582 5.73779 61.6078 7.14021 61.0283C8.54264 60.4488 10.0454 60.1516 11.5627 60.1536H169.385C170.902 60.1516 172.405 60.4488 173.807 61.0283C175.21 61.6078 176.484 62.4582 177.558 63.5308C178.632 64.6035 179.484 65.8774 180.066 67.2798C180.647 68.6822 180.947 70.1855 180.948 71.7038V71.7038Z" fill="#0261F0"/>
<path d="M10.1986 72.4146C11.5375 72.4146 12.6229 71.3285 12.6229 69.9887C12.6229 68.6489 11.5375 67.5627 10.1986 67.5627C8.85978 67.5627 7.77441 68.6489 7.77441 69.9887C7.77441 71.3285 8.85978 72.4146 10.1986 72.4146Z" fill="white"/>
<path d="M19.9008 72.4146C21.2397 72.4146 22.325 71.3285 22.325 69.9887C22.325 68.6489 21.2397 67.5627 19.9008 67.5627C18.5619 67.5627 17.4766 68.6489 17.4766 69.9887C17.4766 71.3285 18.5619 72.4146 19.9008 72.4146Z" fill="white"/>
<path d="M29.6054 72.4146C30.9442 72.4146 32.0296 71.3285 32.0296 69.9887C32.0296 68.6489 30.9442 67.5627 29.6054 67.5627C28.2665 67.5627 27.1812 68.6489 27.1812 69.9887C27.1812 71.3285 28.2665 72.4146 29.6054 72.4146Z" fill="white"/>
<path d="M24.5952 88.8475H60.9252C61.4944 88.8475 62.0404 89.0738 62.4429 89.4766C62.8454 89.8794 63.0715 90.4257 63.0715 90.9953V120.421C63.0715 120.99 62.8454 121.536 62.4429 121.939C62.0404 122.342 61.4944 122.568 60.9252 122.568H24.5952C24.0252 122.568 23.4787 122.342 23.0757 121.939C22.6727 121.535 22.4463 120.988 22.4463 120.418V90.9979C22.446 90.7154 22.5013 90.4356 22.6092 90.1746C22.717 89.9135 22.8753 89.6763 23.0749 89.4766C23.2745 89.2768 23.5116 89.1185 23.7724 89.0105C24.0333 88.9026 24.3129 88.8472 24.5952 88.8475V88.8475Z" fill="white"/>
<path d="M155.926 138.347H22.4538C21.7767 138.347 21.1274 138.078 20.6486 137.599C20.1698 137.12 19.9009 136.47 19.9009 135.792C19.9009 135.115 20.1698 134.465 20.6486 133.986C21.1274 133.507 21.7767 133.238 22.4538 133.238H155.926C156.603 133.238 157.252 133.507 157.731 133.986C158.21 134.465 158.478 135.115 158.478 135.792C158.478 136.47 158.21 137.12 157.731 137.599C157.252 138.078 156.603 138.347 155.926 138.347Z" fill="white"/>
<path d="M155.925 119.05H74.9528C74.2757 119.05 73.6264 118.781 73.1476 118.302C72.6689 117.823 72.3999 117.173 72.3999 116.496V116.496C72.3999 115.818 72.6689 115.168 73.1476 114.689C73.6264 114.21 74.2757 113.941 74.9528 113.941H155.925C156.602 113.941 157.252 114.21 157.73 114.689C158.209 115.168 158.478 115.818 158.478 116.496V116.496C158.478 117.173 158.209 117.823 157.73 118.302C157.252 118.781 156.602 119.05 155.925 119.05V119.05Z" fill="white"/>
<path d="M125.103 100.92H74.9528C74.2757 100.92 73.6264 100.651 73.1476 100.172C72.6689 99.6931 72.3999 99.0433 72.3999 98.3658C72.3999 97.6882 72.6689 97.0384 73.1476 96.5593C73.6264 96.0802 74.2757 95.8111 74.9528 95.8111H125.103C125.78 95.8111 126.429 96.0802 126.908 96.5593C127.386 97.0384 127.655 97.6882 127.655 98.3658V98.3658C127.655 99.0433 127.386 99.6931 126.908 100.172C126.429 100.651 125.78 100.92 125.103 100.92Z" fill="white"/>
<path d="M374.311 62.1649C377.254 58.7594 380.375 55.5117 383.66 52.4355C390.058 46.9295 397.395 37.1949 420.863 44.3697C422.679 44.957 424.464 45.6387 426.21 46.4119C428.269 47.2901 434.687 47.3107 441.25 42.0983C451.678 33.811 455.757 27.5608 470.045 27.365C486.669 27.1384 489.284 47.8772 502.213 53.1849C510.449 56.5637 532.13 59.9219 536.616 61.4258L374.311 62.1649Z" fill="#D5E5FC"/>
<path d="M246.044 124.129L244.845 120.691L243.646 124.129C243.056 125.655 242.161 127.045 241.015 128.212C239.869 129.379 238.497 130.3 236.983 130.917V130.917C238.497 131.535 239.87 132.455 241.015 133.623C242.161 134.79 243.056 136.18 243.646 137.706L244.845 141.144L246.044 137.706C246.635 136.179 247.532 134.79 248.68 133.623C249.827 132.456 251.201 131.536 252.717 130.92C251.201 130.304 249.826 129.383 248.679 128.215C247.531 127.047 246.635 125.657 246.044 124.129Z" fill="white"/>
<path d="M137.682 320.624L136.482 317.186L135.296 320.624C134.707 322.15 133.811 323.539 132.666 324.707C131.52 325.874 130.148 326.795 128.633 327.412V327.412C130.148 328.029 131.52 328.95 132.666 330.117C133.811 331.285 134.707 332.674 135.296 334.201L136.495 337.639L137.695 334.201C138.284 332.674 139.179 331.285 140.325 330.117C141.471 328.95 142.843 328.029 144.357 327.412V327.412C142.841 326.796 141.466 325.876 140.318 324.709C139.17 323.541 138.273 322.151 137.682 320.624V320.624Z" fill="white"/>
<path d="M462.532 299.913L461.74 297.644L460.95 299.913C460.561 300.92 459.97 301.837 459.214 302.607C458.458 303.377 457.553 303.984 456.554 304.392V304.392C457.553 304.799 458.458 305.406 459.214 306.176C459.97 306.946 460.561 307.863 460.95 308.87L461.74 311.139L462.532 308.87C462.921 307.863 463.512 306.946 464.268 306.176C465.024 305.406 465.929 304.799 466.928 304.392V304.392C465.929 303.984 465.024 303.377 464.268 302.607C463.512 301.837 462.921 300.92 462.532 299.913Z" fill="white"/>
<path d="M85.3244 185.853L84.5318 183.585L83.7417 185.853C83.3529 186.86 82.7624 187.777 82.0065 188.547C81.2506 189.317 80.3453 189.925 79.3462 190.332V190.332C80.3452 190.739 81.2504 191.347 82.0063 192.117C82.7622 192.887 83.3528 193.804 83.7417 194.81L84.5318 197.079L85.3244 194.81C85.7134 193.804 86.3039 192.887 87.0598 192.117C87.8157 191.347 88.721 190.739 89.72 190.332V190.332C88.721 189.925 87.8157 189.317 87.0598 188.547C86.3039 187.777 85.7134 186.86 85.3244 185.853V185.853Z" fill="white"/>
<path d="M342.018 2.11877e-06H266.897C265.924 -0.00101297 264.96 0.189928 264.06 0.561914C263.161 0.9339 262.343 1.47964 261.654 2.16794C260.965 2.85625 260.419 3.67363 260.046 4.57338C259.673 5.47312 259.481 6.4376 259.48 7.41169V48.0214C259.481 48.9955 259.673 49.96 260.046 50.8597C260.419 51.7595 260.965 52.5769 261.654 53.2652C262.343 53.9535 263.161 54.4992 264.06 54.8712C264.96 55.2432 265.924 55.4341 266.897 55.4331H270.94V74.0138L289.508 55.4331H342.007C342.981 55.4345 343.945 55.2438 344.845 54.8719C345.745 54.5001 346.563 53.9544 347.252 53.2661C347.941 52.5777 348.488 51.7603 348.861 50.8603C349.234 49.9604 349.426 48.9957 349.427 48.0214V7.41169C349.426 5.44575 348.645 3.56056 347.256 2.17068C345.866 0.780791 343.982 2.00018e-06 342.018 2.11877e-06V2.11877e-06Z" fill="#DDEAFC"/>
<path d="M277.441 39.7805H295.162C295.819 39.7805 296.448 40.0415 296.913 40.5061C297.377 40.9707 297.638 41.6009 297.638 42.2579C297.638 42.915 297.377 43.5451 296.913 44.0097C296.448 44.4744 295.819 44.7354 295.162 44.7354H277.441C276.784 44.7354 276.155 44.4744 275.69 44.0097C275.226 43.5451 274.965 42.915 274.965 42.2579C274.965 41.6009 275.226 40.9707 275.69 40.5061C276.155 40.0415 276.784 39.7805 277.441 39.7805Z" fill="white"/>
<path d="M277.441 27.3753H310.106C310.763 27.3753 311.393 27.6364 311.857 28.101C312.321 28.5656 312.582 29.1957 312.582 29.8528V29.8528C312.582 30.5098 312.321 31.14 311.857 31.6046C311.393 32.0692 310.763 32.3302 310.106 32.3302H277.441C276.784 32.3302 276.155 32.0692 275.69 31.6046C275.226 31.14 274.965 30.5098 274.965 29.8528C274.965 29.1957 275.226 28.5656 275.69 28.101C276.155 27.6364 276.784 27.3753 277.441 27.3753V27.3753Z" fill="white"/>
<path d="M277.441 15.3178H333.579C334.236 15.3178 334.866 15.5788 335.33 16.0434C335.794 16.5081 336.055 17.1382 336.055 17.7953V17.7953C336.055 18.4523 335.794 19.0825 335.33 19.5471C334.866 20.0117 334.236 20.2727 333.579 20.2727H277.441C276.784 20.2727 276.155 20.0117 275.69 19.5471C275.226 19.0825 274.965 18.4523 274.965 17.7953C274.965 17.1382 275.226 16.5081 275.69 16.0434C276.155 15.5788 276.784 15.3178 277.441 15.3178Z" fill="white"/>
<path d="M295.437 348.45H382.421C390.85 348.447 398.981 345.334 405.257 339.704C411.534 334.075 415.514 326.326 416.435 317.943L428.978 187.296H342.046L340.27 263.048L295.437 348.45Z" fill="#DFE2EF"/>
<path d="M295.437 347.044L306.959 346.624L320.181 346.222C325.287 346.037 331.049 345.985 337.331 345.846L357.623 345.452L380.27 345.251H381.745H382.334L383.075 345.21C384.025 345.135 385.134 345.148 385.968 344.999C386.801 344.849 387.648 344.77 388.523 344.576C389.398 344.383 390.294 344.159 391.169 343.902C394.705 342.826 398.018 341.119 400.948 338.864C406.995 334.273 411.158 327.63 412.655 320.183L413.087 317.402L413.393 314.276L414.006 308.03L415.221 295.628L417.614 271.508L422.159 228.773L425.618 198.555L426.997 187.105C427.064 186.591 427.328 186.124 427.733 185.801C428.138 185.478 428.652 185.326 429.168 185.375C429.683 185.424 430.159 185.672 430.495 186.066C430.832 186.46 431.002 186.969 430.97 187.486L430.147 198.99L427.774 229.299L424.112 272.115L421.873 296.248L420.705 308.656L420.118 314.904L419.825 318.033C419.678 319.218 419.485 320.32 419.31 321.468C418.026 328.222 414.892 334.486 410.256 339.56C405.621 344.634 399.667 348.319 393.06 350.203C391.995 350.502 390.909 350.718 389.838 350.976C388.768 351.233 387.581 351.308 386.462 351.463C385.342 351.617 384.431 351.571 383.41 351.635L382.668 351.664H381.778H380.303L357.657 351.463L337.365 351.069C331.08 350.93 325.321 350.876 320.215 350.693L306.992 350.291L295.471 349.871C295.096 349.876 294.735 349.731 294.467 349.469C294.199 349.207 294.046 348.849 294.041 348.474C294.037 348.099 294.181 347.738 294.443 347.469C294.705 347.201 295.063 347.048 295.437 347.044V347.044Z" fill="#3D415B"/>
<path d="M345.183 350.919V443.187" stroke="#3D415B" stroke-width="2.496" stroke-miterlimit="10"/>
<path d="M81.2302 268.84L361.607 268.84V264.475L81.2302 264.475V268.84Z" fill="#3D415B"/>
<path d="M328.541 460.603L331.518 471.278L317.029 475.672L312.498 462.491L328.541 460.603Z" fill="#CF9B5B"/>
<path d="M241.072 452.857V461.428H253.898L255.332 452.857H241.072Z" fill="#CF9B5B"/>
<path d="M339.593 204.908L320.22 252.762L319.79 253.826C319.239 255.178 318.297 256.334 317.084 257.146C315.871 257.958 314.443 258.388 312.983 258.381L257.818 257.985C256.801 257.976 255.825 257.583 255.084 256.885C254.344 256.188 253.893 255.236 253.823 254.221C253.753 253.205 254.068 252.201 254.705 251.408C255.343 250.615 256.256 250.091 257.262 249.942L311.851 241.959L304.614 247.576L317.657 197.615C318.041 196.142 318.712 194.76 319.63 193.547C320.548 192.334 321.696 191.313 323.009 190.544C324.321 189.775 325.772 189.272 327.278 189.064C328.785 188.856 330.318 188.947 331.789 189.331C333.261 189.716 334.642 190.387 335.854 191.306C337.067 192.225 338.086 193.374 338.855 194.687C339.624 196 340.126 197.452 340.334 198.96C340.542 200.467 340.451 202.001 340.067 203.474C339.937 203.961 339.779 204.44 339.593 204.908Z" fill="#DEA866"/>
<path d="M263.809 248.987L244.971 248.595C242.61 248.729 240.398 249.792 238.818 251.553C237.237 253.314 236.418 255.629 236.538 257.993H264.041L263.809 248.987Z" fill="#DEA866"/>
<path d="M309.092 210.733L339.256 218.104L344.205 191.202C344.509 189.473 344.461 187.699 344.063 185.989C343.665 184.278 342.925 182.666 341.889 181.249C340.852 179.831 339.54 178.638 338.031 177.741C336.522 176.844 334.848 176.262 333.108 176.029V176.029C330.108 175.58 327.045 176.174 324.43 177.711C321.815 179.249 319.806 181.637 318.738 184.478L309.092 210.733Z" fill="#129093"/>
<path d="M340.278 263.048L247.341 310.243C243.121 312.386 239.617 315.715 237.26 319.822C234.903 323.929 233.795 328.636 234.072 333.364L241.072 452.857H255.332L274.572 325.007L346.928 274.168L340.278 263.048Z" fill="#303348"/>
<path d="M323.878 99.8466C323.878 99.8466 349.703 91.0597 363.273 115.535C364.039 116.965 364.944 118.316 365.975 119.568C368.731 122.823 374.467 128.824 380.811 130.768C405.944 138.494 421.851 186.044 371.822 190.275C309.214 195.573 291.436 183.216 300.392 158.241C306.779 140.431 301.076 127.786 301.076 127.786L323.878 99.8466Z" fill="#282C3C"/>
<path d="M344.496 163.678L331.131 169.627C327.237 171.356 323.934 174.189 321.63 177.775C319.327 181.362 318.125 185.546 318.171 189.809C318.377 207.368 322.358 250.962 337.182 267.645H382.364C389.37 236.759 385.332 189.284 385.332 189.284C385.55 183.671 383.648 178.182 380.006 173.909C376.364 169.635 371.248 166.89 365.675 166.22L344.496 163.678Z" fill="#007C86"/>
<path d="M345.738 178.074C343.477 178.337 341.202 177.697 339.409 176.293C337.615 174.889 336.447 172.834 336.157 170.574L332.482 141.837L349.671 139.838L353.323 168.378C353.467 169.514 353.386 170.667 353.082 171.771C352.778 172.875 352.259 173.908 351.553 174.81C350.848 175.712 349.971 176.464 348.973 177.025C347.974 177.585 346.875 177.941 345.738 178.074Z" fill="#CF9B5B"/>
<path d="M304.152 120.284L346.316 114.776L349.58 139.802C350.298 145.307 348.802 150.873 345.419 155.274C342.037 159.675 337.046 162.551 331.544 163.27L330.853 163.36C328.129 163.716 325.363 163.531 322.711 162.817C320.059 162.103 317.574 160.873 315.397 159.198C313.22 157.522 311.394 155.434 310.024 153.053C308.653 150.672 307.765 148.043 307.409 145.318L304.144 120.285L304.152 120.284Z" fill="#CF9B5B"/>
<path d="M350.95 130.204L347.347 137.672C347.347 137.672 342.556 141.826 341.199 131.389C340.049 122.548 333.636 124.083 333.636 124.083C333.636 124.083 311.663 140.716 298.755 129.303C288.569 120.289 305.031 103.807 323.869 99.8543L348.575 110.658L350.95 130.204Z" fill="#282C3C"/>
<path d="M352.627 144.06C356.451 143.597 359.175 140.12 358.713 136.293C358.25 132.467 354.775 129.74 350.952 130.203C347.128 130.666 344.403 134.143 344.865 137.97C345.328 141.796 348.803 144.523 352.627 144.06Z" fill="#CF9B5B"/>
<path d="M351.94 141.489C352.628 141.406 353.119 140.78 353.036 140.091C352.953 139.402 352.327 138.911 351.638 138.994C350.95 139.077 350.459 139.703 350.542 140.393C350.626 141.082 351.251 141.573 351.94 141.489Z" fill="white"/>
<path d="M314.906 151.17L326.744 148.651C326.744 148.651 327.313 153.801 320.825 154.723C320.203 154.889 319.554 154.928 318.917 154.839C318.279 154.749 317.666 154.532 317.114 154.2C316.562 153.869 316.082 153.43 315.703 152.909C315.324 152.388 315.053 151.797 314.906 151.17V151.17Z" fill="white"/>
<path d="M382.365 267.645H337.182L264.9 311.353C260.781 313.844 257.708 317.75 256.256 322.342C254.804 326.934 255.072 331.898 257.01 336.307L312.494 462.496L328.538 460.609L298.716 338.841C323.743 337.783 370.218 334 382.354 320.456C402.917 297.528 382.365 267.645 382.365 267.645Z" fill="#3D415B"/>
<path d="M228.269 188.465L254.053 257.787H170.267L146.416 192.477C146.251 192.025 146.197 191.539 146.26 191.061C146.322 190.584 146.499 190.128 146.774 189.734C147.05 189.339 147.417 189.016 147.844 188.794C148.271 188.571 148.745 188.455 149.226 188.455H228.269V188.465Z" fill="#C2DFF1"/>
<path d="M227.772 188.465H231.748C232.792 188.466 233.811 188.787 234.666 189.386C235.522 189.984 236.173 190.832 236.532 191.813L260.63 257.207H253.327L227.772 188.465Z" fill="#A5C3D3"/>
<path d="M170.499 257.197H253.327V263.818H176.542C174.938 263.818 173.4 263.18 172.265 262.045C171.131 260.91 170.494 259.371 170.494 257.766V257.197H170.499Z" fill="#A5C3D3"/>
<path d="M254.053 264.482H305.76C306.647 264.482 307.498 264.13 308.126 263.502C308.753 262.874 309.105 262.022 309.105 261.134C309.105 260.247 308.753 259.395 308.126 258.767C307.498 258.139 306.647 257.787 305.76 257.787H254.053V264.482Z" fill="#A5C3D3"/>
<path d="M202.872 233.961C206.814 232.655 208.727 227.715 207.143 222.926C205.56 218.137 201.08 215.313 197.138 216.619C193.195 217.924 191.283 222.864 192.866 227.653C194.45 232.442 198.929 235.266 202.872 233.961Z" fill="#ECF2F5"/>
<path d="M374.958 203.6L355.539 252.378L355.111 253.455C354.561 254.829 353.611 256.005 352.385 256.832C351.158 257.658 349.711 258.097 348.232 258.09L293.057 257.727C292.026 257.726 291.035 257.334 290.281 256.63C289.528 255.926 289.069 254.963 288.997 253.935C288.925 252.906 289.244 251.888 289.891 251.086C290.538 250.283 291.465 249.756 292.485 249.61L347.067 241.524L339.76 247.228L352.767 196.371C353.135 194.87 353.798 193.457 354.715 192.214C355.632 190.971 356.787 189.922 358.112 189.128C359.437 188.334 360.906 187.81 362.434 187.587C363.962 187.365 365.52 187.447 367.016 187.831C368.512 188.214 369.918 188.89 371.151 189.82C372.385 190.75 373.422 191.915 374.203 193.248C374.984 194.582 375.493 196.057 375.701 197.588C375.908 199.12 375.811 200.677 375.414 202.171C375.29 202.655 375.138 203.133 374.958 203.6V203.6Z" fill="#CF9B5B"/>
<path d="M297.929 248.073L279.253 247.678C276.89 247.837 274.686 248.923 273.12 250.701C271.554 252.478 270.754 254.803 270.894 257.168H298.173L297.929 248.073Z" fill="#CF9B5B"/>
<path d="M344.333 209.629L374.497 217.138L379.446 189.734C379.761 187.988 379.722 186.195 379.331 184.464C378.94 182.732 378.204 181.097 377.169 179.656C376.134 178.214 374.82 176.996 373.305 176.073C371.789 175.15 370.104 174.541 368.349 174.283V174.283C365.33 173.839 362.249 174.453 359.63 176.022C357.012 177.59 355.015 180.016 353.979 182.889L344.333 209.629Z" fill="#129093"/>
<path d="M307.623 465.43L300.585 472.383L284.771 476.246C283.969 476.441 283.228 476.834 282.616 477.389C282.005 477.943 281.541 478.642 281.268 479.421L280.465 481.711C280.373 481.974 280.345 482.256 280.386 482.532C280.426 482.808 280.532 483.07 280.696 483.297C280.86 483.523 281.076 483.706 281.325 483.83C281.575 483.954 281.851 484.016 282.13 484.01L333.036 482.774C333.429 482.766 333.816 482.678 334.173 482.514C334.53 482.351 334.85 482.116 335.113 481.825C335.376 481.533 335.576 481.19 335.702 480.818C335.828 480.446 335.876 480.052 335.844 479.661L331.829 465.239L324.137 467.08C322.867 467.502 321.522 467.649 320.191 467.511C318.86 467.372 317.574 466.953 316.417 466.279L313.681 464.685C312.73 464.125 311.621 463.895 310.526 464.029C309.431 464.164 308.411 464.656 307.623 465.43V465.43Z" fill="#29323D"/>
<path d="M234.559 455.422L227.52 462.375L211.706 466.238C210.904 466.434 210.164 466.826 209.552 467.381C208.94 467.935 208.477 468.634 208.204 469.414L207.401 471.703C207.308 471.966 207.281 472.248 207.321 472.524C207.362 472.801 207.468 473.063 207.632 473.289C207.795 473.515 208.011 473.698 208.261 473.822C208.511 473.947 208.787 474.008 209.066 474.003L255.131 473.029C255.523 473.021 255.91 472.933 256.267 472.769C256.624 472.606 256.943 472.372 257.206 472.08C257.469 471.789 257.67 471.447 257.796 471.075C257.922 470.703 257.971 470.31 257.939 469.918L256.742 455.175L251.063 457.062C249.792 457.484 248.447 457.631 247.116 457.493C245.785 457.354 244.499 456.935 243.342 456.262L240.606 454.667C239.655 454.111 238.548 453.884 237.455 454.02C236.362 454.156 235.344 454.649 234.559 455.422Z" fill="#29323D"/>
<path d="M438.721 156.454L568.058 156.454C572.444 156.454 576 152.896 576 148.507V111.799C576 107.409 572.444 103.851 568.058 103.851L438.721 103.851C434.335 103.851 430.78 107.409 430.78 111.799V148.507C430.78 152.896 434.335 156.454 438.721 156.454Z" fill="#DDEAFC"/>
<path d="M557.684 145.246H530.919C530.591 145.246 530.265 145.182 529.961 145.056C529.657 144.93 529.381 144.745 529.149 144.512C528.916 144.28 528.732 144.004 528.606 143.699C528.48 143.395 528.415 143.07 528.415 142.741V117.567C528.415 116.902 528.68 116.264 529.15 115.793C529.62 115.323 530.257 115.059 530.922 115.059H557.686C558.351 115.059 558.987 115.323 559.457 115.793C559.927 116.263 560.19 116.9 560.19 117.565V142.738C560.19 143.403 559.926 144.041 559.456 144.512C558.986 144.982 558.349 145.246 557.684 145.246V145.246Z" fill="white"/>
<path d="M448.749 121.379H517.844C518.128 121.379 518.409 121.323 518.672 121.214C518.934 121.105 519.172 120.946 519.373 120.745C519.574 120.544 519.733 120.306 519.842 120.043C519.95 119.781 520.006 119.499 520.006 119.215V119.215C520.006 118.642 519.778 118.091 519.373 117.686C518.968 117.28 518.418 117.052 517.844 117.052H448.749C448.175 117.052 447.625 117.28 447.22 117.686C446.815 118.091 446.587 118.642 446.587 119.215V119.215C446.587 119.499 446.643 119.781 446.751 120.043C446.86 120.306 447.019 120.544 447.22 120.745C447.421 120.946 447.659 121.105 447.921 121.214C448.184 121.323 448.465 121.379 448.749 121.379Z" fill="white"/>
<path d="M493.725 132.318H517.844C519.038 132.318 520.006 131.35 520.006 130.155V130.153C520.006 128.958 519.038 127.989 517.844 127.989H493.725C492.531 127.989 491.564 128.958 491.564 130.153V130.155C491.564 131.35 492.531 132.318 493.725 132.318Z" fill="white"/>
<path d="M448.749 132.318H477.579C478.773 132.318 479.741 131.35 479.741 130.155V130.153C479.741 128.958 478.773 127.989 477.579 127.989H448.749C447.555 127.989 446.587 128.958 446.587 130.153V130.155C446.587 131.35 447.555 132.318 448.749 132.318Z" fill="white"/>
<path d="M466.047 143.256H517.844C518.417 143.256 518.967 143.028 519.372 142.622C519.778 142.216 520.005 141.666 520.005 141.092C520.005 140.519 519.778 139.968 519.372 139.563C518.967 139.157 518.417 138.929 517.844 138.929H466.047C465.474 138.929 464.924 139.157 464.518 139.563C464.113 139.968 463.885 140.519 463.885 141.092C463.885 141.666 464.113 142.216 464.518 142.622C464.924 143.028 465.474 143.256 466.047 143.256V143.256Z" fill="white"/>
<path d="M128.178 243.465C128.178 243.465 149.497 243.54 145.068 221.575C145.068 221.583 122.702 223.793 128.178 243.465Z" fill="#33D18D"/>
<path d="M125.507 242.286C125.507 242.286 103.925 242.363 108.408 220.138C108.408 220.136 131.05 222.376 125.507 242.286Z" fill="#33D18D"/>
<path d="M126.498 242.363C126.498 242.363 110.782 226.515 129.329 212.544C129.316 212.544 144.209 230.975 126.498 242.363Z" fill="#33D18D"/>
<path d="M143.743 240.504H109.253L114.745 264.467H137.811L143.743 240.504Z" fill="#8B4200"/>
<path d="M212.274 268.84V437.846" stroke="#3D415B" stroke-width="2" stroke-miterlimit="10"/>
</g>
<defs>
<linearGradient id="paint0_linear" x1="2984.93" y1="48679" x2="108961" y2="48679" gradientUnits="userSpaceOnUse">
<stop stop-color="#0458D5"/>
<stop offset="0.409142" stop-color="#0261F0"/>
<stop offset="0.737273" stop-color="#4B90F9"/>
<stop offset="1" stop-color="#99C0FA"/>
</linearGradient>
<linearGradient id="paint1_linear" x1="3225.31" y1="36575.6" x2="118296" y2="36575.6" gradientUnits="userSpaceOnUse">
<stop stop-color="#0458D5"/>
<stop offset="0.450809" stop-color="#0261F0"/>
<stop offset="0.726856" stop-color="#4B90F9"/>
<stop offset="1" stop-color="#99C0FA"/>
</linearGradient>
<clipPath id="clip0">
<rect width="576" height="484" fill="white"/>
</clipPath>
</defs>
</svg>
