<svg width="577" height="456" viewBox="0 0 577 456" fill="none" xmlns="http://www.w3.org/2000/svg">
<path d="M198.656 137.267C308.089 97.8696 390.461 -74.0948 519.474 64.4262C648.487 202.947 541.437 412.886 386.243 437.717C231.049 462.549 51.3342 394.884 19.069 284.433C-36.0672 95.7136 125.245 163.695 198.656 137.267Z" fill="#F0F0F0"/>
<path d="M190.85 125.897C300.285 86.502 382.665 -85.4647 511.675 53.0634C640.686 191.591 533.638 401.523 378.444 426.354C223.25 451.186 43.5353 383.521 11.2701 273.07C-43.8708 84.3437 117.438 152.325 190.85 125.897Z" fill="url(#paint0_linear)" fill-opacity="0.5"/>
<path d="M355.038 64.9806L353.93 61.8038L352.822 64.9806C352.277 66.3909 351.45 67.6748 350.391 68.7535C349.333 69.8322 348.065 70.6829 346.666 71.2534C348.065 71.8237 349.333 72.6743 350.392 73.753C351.45 74.8318 352.277 76.1157 352.822 77.5261L353.93 80.7029L355.038 77.5261C355.583 76.1158 356.41 74.8319 357.468 73.7532C358.527 72.6745 359.795 71.8238 361.194 71.2534V71.2534C359.795 70.6829 358.527 69.8322 357.468 68.7535C356.41 67.6748 355.583 66.3909 355.038 64.9806V64.9806Z" fill="white"/>
<path d="M231.157 296.5L230.049 293.323L228.941 296.5C228.396 297.91 227.569 299.194 226.51 300.273C225.452 301.352 224.184 302.202 222.785 302.773V302.773C224.184 303.343 225.452 304.194 226.51 305.273C227.569 306.351 228.396 307.635 228.941 309.046L230.049 312.222L231.157 309.046C231.701 307.635 232.528 306.351 233.587 305.273C234.645 304.194 235.913 303.343 237.312 302.773V302.773C235.913 302.203 234.645 301.352 233.587 300.273C232.528 299.195 231.701 297.911 231.157 296.5V296.5Z" fill="white"/>
<path d="M531.27 148.879L530.538 146.783L529.808 148.879C529.448 149.807 528.903 150.652 528.206 151.362C527.509 152.072 526.675 152.632 525.754 153.008C526.677 153.384 527.513 153.946 528.212 154.657C528.91 155.369 529.456 156.216 529.815 157.146L530.545 159.243L531.277 157.146C531.637 156.216 532.182 155.369 532.881 154.657C533.579 153.946 534.415 153.384 535.338 153.008C534.415 152.634 533.578 152.074 532.878 151.364C532.179 150.654 531.631 149.809 531.27 148.879V148.879Z" fill="white"/>
<path d="M182.77 171.986L182.04 169.889L181.31 171.986C180.951 172.916 180.405 173.763 179.707 174.475C179.009 175.187 178.172 175.748 177.249 176.124V176.124C178.172 176.5 179.008 177.061 179.707 177.773C180.405 178.485 180.951 179.332 181.31 180.262L182.04 182.359L182.77 180.262C183.129 179.332 183.675 178.485 184.373 177.773C185.072 177.061 185.908 176.5 186.831 176.124V176.124C185.908 175.748 185.072 175.186 184.373 174.475C183.675 173.763 183.129 172.916 182.77 171.986Z" fill="white"/>
<path d="M132.892 455.146H136.974L170.269 292.712H161.835L132.892 455.146Z" fill="#C7C7C7"/>
<path d="M447.048 455.146H442.965L409.67 292.712H418.104L447.048 455.146Z" fill="#C7C7C7"/>
<path d="M127.511 194.935C126.192 196.434 125.283 198.249 124.872 200.203C125.407 198.736 126.354 197.455 127.599 196.513C129.275 195.447 131.503 195.592 133.193 194.547C134.669 193.395 135.754 191.817 136.301 190.026C135.039 191.137 133.571 191.988 131.981 192.531C130.285 192.869 128.728 193.706 127.511 194.935Z" fill="#482C3B"/>
<path d="M148.011 376.832H141.812V436.951H148.011V376.832Z" fill="#A6AEBA"/>
<path d="M149.894 368.077H139.929V376.83H149.894V368.077Z" fill="#D2DCEB"/>
<path d="M148.674 413.814H141.148V432.575H148.674V413.814Z" fill="#D2DCEB"/>
<path d="M149.894 432.573H139.929V441.325H149.894V432.573Z" fill="#D2DCEB"/>
<path d="M156.989 351.508H132.832V368.077H156.989V351.508Z" fill="#A6AEBA"/>
<path d="M178.526 346.553H113.705C112.995 346.553 112.419 347.13 112.419 347.841V357.673C112.419 358.384 112.995 358.961 113.705 358.961H178.526C179.236 358.961 179.812 358.384 179.812 357.673V347.841C179.812 347.13 179.236 346.553 178.526 346.553Z" fill="#A6AEBA"/>
<path d="M120.9 449.687L139.927 440.247V433.665L118.404 448.102L120.9 449.687Z" fill="#A6AEBA"/>
<path d="M118.404 456C120.866 456 122.862 454.002 122.862 451.538C122.862 449.074 120.866 447.076 118.404 447.076C115.942 447.076 113.946 449.074 113.946 451.538C113.946 454.002 115.942 456 118.404 456Z" fill="#A6AEBA"/>
<path d="M144.91 456C147.372 456 149.368 454.002 149.368 451.538C149.368 449.074 147.372 447.076 144.91 447.076C142.448 447.076 140.452 449.074 140.452 451.538C140.452 454.002 142.448 456 144.91 456Z" fill="#A6AEBA"/>
<path d="M168.918 449.687L149.894 440.247V433.665L171.417 448.102L168.918 449.687Z" fill="#A6AEBA"/>
<path d="M171.417 456C173.879 456 175.875 454.002 175.875 451.538C175.875 449.074 173.879 447.076 171.417 447.076C168.955 447.076 166.959 449.074 166.959 451.538C166.959 454.002 168.955 456 171.417 456Z" fill="#A6AEBA"/>
<path d="M146.118 436.949H143.705V451.481H146.118V436.949Z" fill="#A6AEBA"/>
<path d="M101.216 353.35C100.134 353.387 99.0719 353.05 98.2086 352.396C97.3452 351.742 96.733 350.811 96.4748 349.759C94.8461 343.039 91.8883 330.484 91.8217 299.149C91.4916 274.851 88.2247 250.683 82.0922 227.172C81.7572 225.676 81.9092 224.111 82.5261 222.708C83.143 221.304 84.1924 220.135 85.5209 219.371V219.371C86.9963 218.522 88.6689 218.074 90.3713 218.074H150.425C150.425 218.074 175.112 262.271 178.35 277.415C181.589 292.559 186.111 350.692 186.111 350.692L101.216 353.35Z" fill="#D0DFE1"/>
<path d="M103.175 353.466C103.175 353.466 97.5664 342.46 97.4689 299.151C97.3928 263.49 90.3121 234.111 88.2697 222.765C88.1661 222.19 88.1902 221.599 88.3401 221.035C88.49 220.47 88.762 219.945 89.137 219.498C89.512 219.05 89.9807 218.69 90.51 218.444C91.0393 218.197 91.6162 218.071 92.2 218.072H156.072C156.072 218.072 180.759 262.269 183.998 277.413C187.236 292.557 191.758 350.689 191.758 350.689L103.175 353.466Z" fill="#B0BEBF"/>
<path d="M161.433 353.473H100.636C99.8104 353.473 99.0187 353.145 98.435 352.561C97.8513 351.977 97.5234 351.185 97.5234 350.358V350.358V340.285H161.433V353.462V353.473Z" fill="#D0DFE1"/>
<path d="M202.265 353.473H112.419V344.193C112.418 343.68 112.518 343.172 112.714 342.698C112.909 342.224 113.196 341.793 113.558 341.43C113.92 341.067 114.35 340.779 114.823 340.583C115.296 340.387 115.804 340.285 116.316 340.285H202.265C203.298 340.285 204.289 340.696 205.02 341.428C205.751 342.159 206.162 343.151 206.162 344.186V349.566C206.162 350.078 206.062 350.586 205.867 351.059C205.671 351.532 205.385 351.963 205.024 352.325C204.662 352.688 204.233 352.976 203.76 353.172C203.288 353.369 202.781 353.47 202.269 353.471V353.471L202.265 353.473Z" fill="#B0BEBF"/>
<path d="M121.462 202.854C121.462 202.854 130.752 199.911 131.686 195.865C132.447 192.579 133.66 182.37 133.66 182.37H149.861C149.54 186.389 149.54 190.426 149.861 194.445C151.402 201.788 160.606 204.201 160.606 204.201L161.918 227.148L138.039 247.185L114.997 224.016L121.462 202.854Z" fill="#CF9B5B"/>
<path d="M158.508 157.363C162.593 162.817 161.761 163.588 161.2 171.101C160.802 176.373 159.718 181.57 157.973 186.561C156.872 189.393 151.111 201.569 140.84 197.124C134.992 194.422 130.109 189.996 126.844 184.438C125.341 180.047 124.6 175.43 124.655 170.789C124.55 165.792 124.526 159.309 124.705 155.583C125.342 142.424 151.035 147.383 158.508 157.363Z" fill="#CF9B5B"/>
<path d="M185.248 312.008C194.093 310.09 199.019 312.936 204.319 319.299C209.619 325.663 207.498 341.042 204.319 353.768C201.14 366.495 188.952 451.286 188.952 451.286H179.946C179.946 451.286 177.632 417.876 176.044 393.482C174.456 369.088 179.896 334.146 179.896 334.146L145.502 312.015C145.502 312.015 177.304 313.731 185.248 312.008Z" fill="#0B5A70"/>
<path d="M184.825 299.722C191.577 306.033 211.455 316.672 207.491 329.827L180.861 341.121C180.861 341.121 153.803 331.305 145.503 312.006L137.205 292.707L155.037 285.606L184.825 299.722Z" fill="#0B5A70"/>
<path d="M165.375 316.682C170.273 320.223 183.51 326.053 180.861 341.123C179.51 348.809 157.859 395.236 146.032 414.747C140.005 424.691 129.27 445.503 129.27 445.503L119.203 447.912C119.203 447.912 126.959 422.649 132.256 399.317C137.554 375.985 152.98 348.138 152.98 348.138C146.639 343.863 139.999 340.05 133.11 336.73C124.631 333.018 120.07 331.495 132.786 319.309C145.502 307.123 155.833 309.786 165.375 316.682Z" fill="#0B5A70"/>
<path d="M184.825 244.888C185.902 250.17 187.661 255.289 190.056 260.118C192.172 263.814 235.848 279.924 235.848 279.924H210.335C210.335 279.924 186.052 276.737 179.123 267.416C174.094 260.262 169.629 252.726 165.77 244.876H184.825V244.888Z" fill="#CF9B5B"/>
<path d="M169.182 207.397C173.7 209.408 177.872 220.83 181.208 230.563C182.975 235.178 184.189 239.987 184.825 244.888C184.825 244.888 173.153 251.568 166.961 249.897C166.961 249.897 161.081 228.757 165.13 218.077L169.182 207.397Z" fill="#0B5A70"/>
<path d="M146.663 300.486C159.388 299.977 172.104 299.667 184.827 299.722C178.645 295.71 173.176 292.914 171.988 291.724C169.339 289.073 170.238 265.453 172.185 258.114C174.132 250.775 174.013 242.275 172.603 238.489C171.193 234.703 169.17 207.397 169.17 207.397L160.589 204.206C160.589 204.206 163.219 224.016 142.419 224.016C121.535 224.016 121.445 202.854 121.445 202.854L108.13 205.805C108.13 205.805 107.148 231.6 107.643 243.306C108.137 255.011 113.694 275.286 115.282 285.901C116.519 294.156 114.229 299.203 112.652 305.283C123.542 301.374 135.118 299.741 146.663 300.486V300.486Z" fill="#0B5A70"/>
<path d="M129.895 443.8C127.042 443.228 126.024 444.371 123.449 446.089C121.823 447.134 119.947 447.727 118.016 447.805V455.531H137.903L129.895 443.8Z" fill="#8B4200"/>
<path d="M190.688 445.227C190.688 445.227 190.398 447.907 186.109 449.116C184.809 449.424 183.449 449.369 182.178 448.957C180.908 448.545 179.774 447.791 178.902 446.779L177.951 455.531L211.849 455.733L190.688 445.227Z" fill="#8B4200"/>
<path d="M191.282 277.915C187.478 277.463 183.821 273.898 169.075 273.722C160.694 272.571 152.384 270.952 144.183 268.873C139.225 267.549 134.489 265.504 130.126 262.802C130.126 262.802 124.722 242.637 122.66 229.847C116.666 229.187 110.688 228.419 104.749 227.412C104.537 243.384 115.843 271.783 119.607 274.615C126.933 280.131 144.15 279.85 148.284 279.931C157.862 280.104 198.672 281.206 198.672 281.206C198.672 281.206 201.809 279.167 191.282 277.915Z" fill="#CF9B5B"/>
<path d="M127.461 250.047C127.461 250.047 122.03 218.134 120.458 214.776C112.322 197.422 101.147 206.669 102.792 220.097C103.491 225.808 103.936 240.591 106.834 254.547C113.967 254.687 121.033 253.146 127.461 250.047V250.047Z" fill="#0B5A70"/>
<path d="M182.592 281.209H198.663L214.733 224.935H202.514L182.592 281.209Z" fill="#A6AEBA"/>
<path d="M187.205 281.209H249.926L265.996 224.935H203.275L187.205 281.209Z" fill="#D2DCEB"/>
<path d="M249.926 279.935H177.977V284.133H249.926V279.935Z" fill="#D2DCEB"/>
<path d="M177.977 279.935H142.003V284.133H177.977V279.935Z" fill="#A6AEBA"/>
<path d="M233.935 260.995C235.751 256.688 234.473 252.035 231.081 250.604C227.69 249.172 223.469 251.504 221.654 255.811C219.839 260.118 221.117 264.771 224.508 266.202C227.9 267.634 232.12 265.302 233.935 260.995Z" fill="#A6AEBA"/>
<path d="M112.671 305.274C110.294 316.696 115.907 341.618 152.98 348.131L174.142 356.698C176.67 353.576 178.494 349.944 179.489 346.051C180.484 342.157 180.627 338.095 179.908 334.141C177.256 321.053 162.41 316.08 152.628 300.255C152.628 300.255 137.261 293.83 127.387 297.266C122.013 298.964 117.017 301.683 112.671 305.274V305.274Z" fill="#0B5A70"/>
<path d="M161.68 165.144C161.68 165.144 157.219 165.318 151.739 157.054C151.739 157.054 152.329 160.797 146.998 165.839C141.667 170.882 136.885 169.516 136.082 171.95C135.594 173.448 135.299 175.001 135.204 176.574C134.829 176.507 134.474 176.352 134.168 176.123C133.863 175.895 133.615 175.597 133.445 175.255C133.042 173.961 132.424 172.744 131.617 171.655C129.182 170.042 124.997 172.205 126.338 176.947C127.12 178.986 128.537 180.719 130.38 181.887C130.318 189.978 133.619 192.472 133.619 192.472C133.619 192.472 128.15 194.959 125.354 193.819C121.357 192.179 120.332 189.655 120.477 185.133C118.461 184.735 116.601 183.767 115.118 182.344C109.533 176.797 115.974 160.997 118.561 159.045C118.561 159.045 112.455 150.391 120.128 144.577C127.912 138.678 130.92 148.213 130.92 148.213C133.504 146.262 144.104 145.596 149.504 147.618C164.702 153.291 161.68 165.144 161.68 165.144Z" fill="#482C3B"/>
<path d="M151.378 156.965C151.853 160.059 151.401 167.238 143.127 172.859" stroke="#482C3B" stroke-width="0.25" stroke-miterlimit="10"/>
<path d="M496.46 376.83H490.262V436.949H496.46V376.83Z" fill="#A6AEBA"/>
<path d="M498.344 368.077H488.379V376.83H498.344V368.077Z" fill="#D2DCEB"/>
<path d="M497.124 413.811H489.599V432.572H497.124V413.811Z" fill="#D2DCEB"/>
<path d="M498.344 432.575H488.379V441.327H498.344V432.575Z" fill="#D2DCEB"/>
<path d="M505.441 351.508H481.284V368.077H505.441V351.508Z" fill="#A6AEBA"/>
<path d="M524.565 346.553H459.744C459.034 346.553 458.458 347.13 458.458 347.841V357.673C458.458 358.384 459.034 358.961 459.744 358.961H524.565C525.275 358.961 525.851 358.384 525.851 357.673V347.841C525.851 347.13 525.275 346.553 524.565 346.553Z" fill="#A6AEBA"/>
<path d="M517.37 449.687L498.346 440.247V433.665L519.869 448.102L517.37 449.687Z" fill="#A6AEBA"/>
<path d="M519.869 456C522.331 456 524.327 454.002 524.327 451.538C524.327 449.074 522.331 447.076 519.869 447.076C517.407 447.076 515.411 449.074 515.411 451.538C515.411 454.002 517.407 456 519.869 456Z" fill="#A6AEBA"/>
<path d="M493.362 456C495.825 456 497.821 454.002 497.821 451.538C497.821 449.074 495.825 447.076 493.362 447.076C490.9 447.076 488.904 449.074 488.904 451.538C488.904 454.002 490.9 456 493.362 456Z" fill="#A6AEBA"/>
<path d="M469.353 449.687L488.379 440.247V433.665L466.856 448.102L469.353 449.687Z" fill="#A6AEBA"/>
<path d="M466.856 456C469.318 456 471.314 454.002 471.314 451.538C471.314 449.074 469.318 447.076 466.856 447.076C464.394 447.076 462.398 449.074 462.398 451.538C462.398 454.002 464.394 456 466.856 456Z" fill="#A6AEBA"/>
<path d="M494.568 436.951H492.154V451.483H494.568V436.951Z" fill="#A6AEBA"/>
<path d="M537.057 353.35C538.139 353.387 539.201 353.05 540.065 352.396C540.928 351.742 541.54 350.811 541.799 349.759C543.427 343.039 546.385 330.484 546.452 299.149C546.525 264.561 564.641 238.259 567.116 227.172C567.451 225.676 567.299 224.111 566.682 222.708C566.065 221.304 565.016 220.135 563.687 219.371V219.371C562.212 218.522 560.539 218.074 558.837 218.074H487.849C487.849 218.074 463.161 262.271 459.923 277.415C456.684 292.559 452.162 350.692 452.162 350.692L537.057 353.35Z" fill="#D0DFE1"/>
<path d="M535.098 353.466C535.098 353.466 540.707 342.46 540.804 299.151C540.88 263.49 558.894 234.111 560.936 222.765C561.04 222.19 561.016 221.599 560.866 221.035C560.716 220.47 560.444 219.945 560.069 219.498C559.694 219.05 559.225 218.69 558.696 218.444C558.166 218.197 557.59 218.071 557.006 218.072H482.192C482.192 218.072 457.505 262.269 454.266 277.413C451.028 292.557 446.505 350.689 446.505 350.689L535.098 353.466Z" fill="#B0BEBF"/>
<path d="M457.179 340.285H540.75V350.347C540.75 351.173 540.422 351.965 539.838 352.549C539.254 353.133 538.463 353.462 537.637 353.462H457.179V340.285Z" fill="#D0DFE1"/>
<path d="M436.008 340.285H463.725C464.237 340.285 464.743 340.386 465.216 340.582C465.689 340.778 466.119 341.066 466.48 341.428C466.842 341.79 467.129 342.22 467.325 342.693C467.521 343.166 467.622 343.674 467.622 344.186V344.186V353.466H435.999C434.968 353.462 433.981 353.049 433.255 352.318C432.528 351.587 432.12 350.597 432.121 349.566V344.19C432.119 343.157 432.528 342.165 433.257 341.433C433.986 340.701 434.975 340.288 436.008 340.285Z" fill="#B0BEBF"/>
<path d="M471.985 205.075C466.2 210.838 465.803 239.801 459.956 254.833C459.956 254.833 420.07 270.438 401.891 275.022L408.201 281.685C408.201 281.685 462.243 268.685 469.096 264.12C479.572 257.146 485.661 228.923 486.66 214.805C487.658 200.686 478.031 199.052 471.985 205.075Z" fill="#CD9D63"/>
<path d="M406.325 276.069L401.89 275.024C401.89 275.024 392.77 274.189 389.85 273.772C386.93 273.356 383.43 276.694 379.45 277.946C376.7 278.886 374.068 280.139 371.604 281.68H374.79L381.288 282.746L387.146 281.68C390.804 281.329 394.488 281.329 398.146 281.68C401.491 282.036 404.865 282.036 408.21 281.68L406.325 276.069Z" fill="#F7D4B2"/>
<path d="M445.799 305.257C433.423 309.362 418.244 315.944 413.8 320.082C409.356 324.221 400.599 330.096 407.661 352.838C412.179 367.368 431.845 440.977 431.845 440.977L441.812 439.202C441.812 439.202 438.271 396.552 434.724 364.643C433.005 349.176 432.42 344.861 432.42 344.861L445.799 339.41C462.759 332.435 456.946 303.282 456.946 303.282L445.799 305.257Z" fill="#CD9D63"/>
<path d="M418.092 315.64C413.648 319.778 410.505 318.393 403.826 341.252C399.563 355.858 384.015 429.519 384.015 429.519L393.302 433.565C405.861 398.346 405.845 398.389 420.52 369.812C424.933 361.06 428.32 351.827 430.613 342.296L457.74 340.666C474.7 333.691 468.887 308.915 468.887 308.915C468.887 308.915 422.538 311.492 418.092 315.64Z" fill="#C78E48"/>
<path d="M520.855 293.737C520.855 305.636 529.458 318.771 519.488 332.288C510.472 344.521 457.747 340.642 457.747 340.642C457.747 340.642 465.184 327.752 458.123 317.993C453.605 311.756 443.205 305.981 443.205 305.981L472.688 296.445L496.368 278.037L520.855 293.737Z" fill="#FFD04D"/>
<path d="M491.27 202.45C489.674 207.875 478.364 207.768 470.011 197.638C461.658 187.508 455.609 170.242 463.943 158.044C472.277 145.846 483.423 169.466 487.221 182.035C489.371 188.656 490.73 195.509 491.27 202.45V202.45Z" fill="#B56537"/>
<path d="M464.949 157.872C462.709 160.535 464.854 170.677 465.246 172.183C466.005 175.096 464.533 179.106 465.372 179.781C466.22 180.156 467.146 180.319 468.071 180.257C468.223 180.293 472.149 187.998 472.843 189.595C473.901 192.025 479.593 187.72 481.315 189.543C482.563 190.866 482.618 193.314 483.041 196.353L479.712 209.805L506.875 204.57C503.13 199.087 499.803 193.331 496.922 187.349C494.896 181.945 497.428 176.036 496.753 168.776C496.078 161.515 492.839 152.185 482.582 151.216C479.324 150.82 476.019 151.218 472.949 152.377C469.878 153.536 467.134 155.421 464.949 157.872V157.872Z" fill="#C78E48"/>
<path d="M473.54 294.908C479.567 293.942 485.71 293.942 491.738 294.908C503.037 296.422 519.783 293.242 519.783 293.242C519.783 293.242 512.921 257.831 513.342 241.769C513.763 225.706 515.033 208.38 515.033 208.38L484.943 203.309C484.943 203.309 477.658 205.926 473.53 217.68C469.402 229.433 470.066 280.185 473.54 294.908Z" fill="#E4DDD7"/>
<path d="M483.041 196.344C480.825 198.564 473.53 201.415 473.53 204.584C473.53 207.754 467.824 235.015 468.147 240.722C468.47 246.428 470.558 268.106 469.291 274.762C468.408 281.866 467.985 289.02 468.023 296.179L473.53 294.911C473.53 294.911 471.947 257.208 473.53 243.273C475.114 229.337 484.943 203.649 484.943 203.649L481.248 202.381L483.041 196.344Z" fill="#133A50"/>
<path d="M493.99 203.635L484.955 203.318C484.955 203.318 481.912 217.265 481.912 244.122C482.365 261.896 483.911 279.625 486.539 297.209C491.857 299.05 497.424 300.071 503.049 300.239C508.795 300.418 514.51 299.336 519.793 297.069C518.876 282.528 518.876 267.944 519.793 253.403C521.376 231.848 527.135 226.946 526.022 212.827C524.177 189.412 503.006 197.612 503.006 197.612L493.99 203.635Z" fill="#133A50"/>
<path d="M484.941 203.318C484.941 203.318 499.511 196.344 501.727 191.896C502.518 193.699 502.948 195.639 502.995 197.607C502.678 199.511 488.743 212.823 488.743 212.823L484.941 203.318Z" fill="#FFD04D"/>
<path d="M497.01 204.982C500.576 186.985 491.018 181.692 480.559 175.277C473.807 170.842 468.13 164.953 463.943 158.041C463.943 158.041 467.985 144.87 479.803 142.169C491.62 139.468 506.696 146.838 510.508 165.47C513.209 178.68 516.742 183.337 525.692 189.785C536.486 197.564 539.72 217.389 527.118 226.943C515.468 235.781 522.204 214.791 517.881 203.007C517.149 201.013 508.09 211.147 503.03 212.825C497.728 214.586 496.437 207.878 497.01 204.982Z" fill="#B56537"/>
<path d="M483.041 196.344C482.782 197.574 482.82 198.848 483.15 200.061C483.481 201.274 484.096 202.391 484.943 203.318L479.56 210.933C479.56 210.933 477.977 204.91 479.56 202.367C481.144 199.823 483.041 196.344 483.041 196.344Z" fill="#FFD04D"/>
<path d="M431.151 435.642C431.151 435.642 431.441 438.322 435.73 439.531C437.03 439.838 438.389 439.783 439.66 439.371C440.931 438.959 442.064 438.206 442.937 437.194L443.888 445.946L430.19 455.612H418.806L424.961 448.775L431.151 435.642Z" fill="#133A50"/>
<path d="M385.489 423.518C384.931 424.576 384.796 425.806 385.112 426.96C385.428 428.113 386.17 429.104 387.189 429.729C388.334 430.418 389.645 430.78 390.981 430.774C392.317 430.769 393.626 430.396 394.765 429.698L393.007 438.326L360.671 428.199L385.489 423.518Z" fill="#133A50"/>
<path d="M510.962 207.797C507.836 215.343 498.655 240.124 492.804 255.152C492.804 255.152 450.3 268.777 432.121 273.361L438.431 280.024C438.431 280.024 490.264 272.08 501.513 266.836C512.926 261.517 523.721 224.933 525.637 215.333C528.403 201.455 514.329 199.649 510.962 207.797Z" fill="#C78E48"/>
<path d="M436.541 274.412L432.106 273.37C432.106 273.37 422.985 272.535 420.066 272.118C417.146 271.702 413.646 275.041 409.666 276.292C406.916 277.232 404.283 278.485 401.819 280.026H405.005L411.504 281.092L417.365 280.026C421.023 279.675 424.706 279.675 428.364 280.026C431.709 280.382 435.083 280.382 438.428 280.026L436.541 274.412Z" fill="#C78E48"/>
<path d="M347.544 123.824L359.076 150.583L356.118 151.859L344.581 125.086C344.518 124.94 344.516 124.775 344.574 124.627C344.633 124.48 344.747 124.361 344.893 124.298V124.298L346.762 123.501C346.908 123.44 347.073 123.44 347.22 123.501C347.366 123.561 347.483 123.678 347.544 123.824V123.824Z" fill="#364469"/>
<path d="M347.475 130.364L349.398 129.533L346.162 122.025C346.052 121.77 345.845 121.569 345.587 121.467C345.329 121.364 345.041 121.368 344.786 121.478V121.478C344.531 121.588 344.33 121.795 344.227 122.054C344.125 122.312 344.129 122.6 344.239 122.856L347.475 130.364Z" fill="#364469"/>
<path d="M325.398 155.421C325.398 155.421 336.735 186.594 340.853 186.437C343.944 186.325 364.675 157.975 368.011 153.065C371.347 148.156 377.819 136.624 377.819 136.624L369.385 134.007C369.385 134.007 354.881 151.502 351.144 154.643C347.406 157.784 345.848 158.962 345.848 158.962L341.531 147.161L325.398 155.421Z" fill="#B28249"/>
<path d="M331.668 122.953C336.233 124.169 337.809 128.234 339.771 136.627C341.097 142.142 342.704 147.587 344.583 152.939L329.571 159.938C329.571 159.938 326.863 145.02 325.864 135.596C324.865 126.173 327.685 121.892 331.668 122.953Z" fill="#364469"/>
<path d="M270.015 443.833V454.87H291.207C291.207 454.87 290.41 450.874 280.36 449.032L278.881 443.835H270.015V443.833Z" fill="#133A50"/>
<path d="M314.803 443.833V454.87H335.996C335.996 454.87 335.199 450.874 325.149 449.032L323.67 443.835H314.803V443.833Z" fill="#133A50"/>
<path d="M274.647 221.304C274.647 221.304 270.79 256.394 270.655 294.09C270.519 331.785 268.277 443.797 268.277 443.797H283.494C283.494 443.797 299.187 335.555 304.879 311.323C310.571 287.091 325.403 221.758 325.403 221.758L274.647 221.304Z" fill="#133A50"/>
<path d="M298.031 93.8718C298.031 93.8718 297.047 101.546 296.239 105.451C295.835 107.911 295.138 110.313 294.163 112.607C291.322 116.421 288.176 119.998 284.754 123.301C284.754 123.301 309.975 136.627 317.388 136.627C324.802 136.627 322.203 121.742 322.203 121.742C322.203 121.742 314.119 115.348 312.913 112.116C311.921 107.983 311.294 103.771 311.037 99.5282L298.031 93.8718Z" fill="#B28249"/>
<path d="M307.722 259.813C307.722 259.813 310.575 317.253 311.144 328.561C311.712 339.869 311.144 443.735 311.144 443.735C311.144 443.735 325.398 444.121 325.398 443.735C325.398 443.35 338.837 334.201 340.577 306.333C342.317 278.465 341.29 245.431 343.609 241.576C345.927 237.721 337.37 221.48 337.37 221.48L317.195 226.865L307.722 259.813Z" fill="#133A50"/>
<path d="M289.89 115.798L263.973 126.982C263.973 126.982 269.099 147.985 269.385 156.332C269.67 164.68 272.661 230.622 272.661 230.622C272.661 230.622 280.622 242.963 318.921 238.049C333.689 236.145 340.951 228.949 340.951 228.949C340.951 228.949 336.811 156.332 335.67 147.985C334.529 139.637 331.68 122.944 331.68 122.944L319.181 119.096L314.083 126.711L289.89 115.798Z" fill="#E9F2F4"/>
<path d="M291.045 111.274L314.078 126.716L307.746 134L289.89 115.798L291.045 111.274Z" fill="#364469"/>
<path d="M314.078 126.716L320.359 131.763L319.175 119.105L316.824 115.798L314.078 126.716Z" fill="#364469"/>
<path d="M338.342 171.974L360.483 178.375C361.619 178.673 362.821 178.577 363.894 178.101C364.968 177.626 365.847 176.799 366.39 175.757L387.95 129.652C388.189 129.186 388.318 128.671 388.328 128.148C388.338 127.624 388.229 127.105 388.008 126.63C387.788 126.155 387.463 125.737 387.057 125.407C386.651 125.076 386.175 124.843 385.665 124.724L363.719 118.234C359.723 117.842 357.725 118.622 356.712 120.745L335.111 166.501C334.091 168.647 334.479 170.141 338.342 171.974Z" fill="#97A3CC"/>
<path d="M339.602 172.438L361.85 178.882C362.991 179.186 364.201 179.092 365.281 178.617C366.361 178.141 367.248 177.311 367.794 176.264L389.431 129.952C389.67 129.483 389.798 128.966 389.807 128.44C389.816 127.914 389.706 127.393 389.483 126.916C389.261 126.44 388.933 126.02 388.524 125.689C388.116 125.358 387.637 125.125 387.125 125.007L365.07 118.503C363.899 118.175 362.652 118.255 361.533 118.731C360.414 119.207 359.49 120.05 358.914 121.121L337.122 167.286C336.876 167.78 336.745 168.324 336.741 168.876C336.737 169.428 336.86 169.974 337.099 170.471C337.339 170.968 337.689 171.404 338.123 171.745C338.556 172.086 339.063 172.323 339.602 172.438Z" fill="url(#paint1_linear)"/>
<path d="M275.333 160.035C275.333 160.035 295.92 194.231 298.666 195.409C301.412 196.586 336.93 173.442 343.604 169.123C350.278 164.804 355.854 160.556 356.681 159.873C357.884 157.443 358.806 154.882 359.427 152.242C359.088 151.855 358.776 151.445 358.495 151.014L357.613 151.49L358.089 148.718L357.254 147.147L356.446 147.416L356.175 144.61L354.948 142.5C354.948 142.5 351.45 146.459 349.291 148.815C347.861 150.34 346.284 151.721 344.584 152.937C344.684 151.431 344.684 149.921 344.584 148.416C344.568 147.293 344.7 146.173 344.976 145.084L341.535 147.154C341.535 147.154 338.504 156.725 337.914 157.482C336.968 159.754 335.553 161.8 333.761 163.486C331.97 165.172 329.843 166.461 327.519 167.267C320.007 170.228 312.351 172.811 304.581 175.006C305.164 174.922 291.152 149.451 291.152 149.451L275.333 160.035Z" fill="#B28249"/>
<path d="M262.991 139.92C264.951 149.234 278.577 169.561 278.577 169.561L295.29 157.027C295.29 157.027 288.746 143.939 285.094 137.074C281.052 129.481 277.284 120.257 270.131 122.949C263.227 125.54 261.422 132.453 262.991 139.92Z" fill="#364469"/>
<path d="M327.331 74.2423C329.115 75.858 332.072 79.1086 331.835 81.0052C331.567 84.5932 331.04 88.157 330.256 91.6683C329.305 94.8118 327.472 103.057 326.128 106.677C324.785 110.296 323.235 115.262 322.122 115.719C317.758 115.659 313.446 114.77 309.413 113.102C307.575 111.752 297.838 101.042 299.902 93.1128C299.902 93.1128 297.349 93.4459 295.782 85.6145C295.373 83.5728 303.666 77.7618 304.957 75.7438C308.091 70.8227 319.525 74.6968 322.79 74.949C324.34 75.2447 325.944 74.995 327.331 74.2423V74.2423Z" fill="#B28249"/>
<path d="M331.834 80.9957C331.706 80.2872 331.301 79.6591 330.709 79.2494C330.117 78.8398 329.387 78.6821 328.679 78.8111H328.658C324.874 79.3279 321.024 79.0598 317.347 78.0235C314.866 77.2677 312.5 76.1756 310.314 74.7777C309.943 76.9265 309.163 78.9841 308.017 80.8386C306.758 82.2657 305.871 83.9824 305.435 85.8358C305.208 86.3443 304.866 86.7927 304.436 87.1451C304.005 87.4976 303.498 87.7443 302.955 87.8657C302.955 87.8657 302.037 83.4586 300.064 83.1492C296.153 82.5353 296.626 87.8205 298.235 89.5409C299.265 90.6296 300.368 91.6458 301.538 92.5821C301.255 93.9263 300.835 95.238 300.285 96.4966C299.398 97.9492 298.318 99.2748 297.075 100.437C297.075 100.437 296.043 89.9264 293.559 85.1053C291.074 80.2841 291.228 71.4152 298.402 69.5496C299.009 67.1524 300.466 65.0579 302.502 63.6568C304.538 62.2556 307.014 61.6436 309.468 61.9348C318.895 62.3369 326.425 66.1063 330.581 65.7065C332.448 65.686 333.661 68.6283 335.344 67.8196C335.344 67.8196 338.047 71.2701 335.344 74.8871C333.879 76.7386 332.696 78.7972 331.834 80.9957Z" fill="#2C2825"/>
<path d="M407.55 281.209H398.736L389.922 224.935H396.625L407.55 281.209Z" fill="#A6AEBA"/>
<path d="M405.02 281.209H370.622L361.81 224.935H396.206L405.02 281.209Z" fill="#D2DCEB"/>
<path d="M407.55 279.933H370.161V284.131H407.55V279.933Z" fill="#D2DCEB"/>
<path d="M454.69 279.933H407.55V284.131H454.69V279.933Z" fill="#A6AEBA"/>
<path d="M386.134 255.808C387.13 260.116 386.429 264.77 384.569 266.2C382.71 267.63 380.394 265.301 379.4 260.991C378.406 256.682 379.106 252.03 380.965 250.599C382.824 249.169 385.133 251.501 386.134 255.808Z" fill="#A6AEBA"/>
<path d="M494.233 284.569H70.8501V292.712H494.233V284.569Z" fill="#DBDBDB"/>
<path d="M116.033 455.146H120.116L153.41 292.712H144.977L116.033 455.146Z" fill="#DBDBDB"/>
<path d="M430.19 455.146H426.105L392.812 292.712H401.246L430.19 455.146Z" fill="#DBDBDB"/>
<path d="M448.267 65.8492H391.086V122.508H448.267V65.8492Z" fill="#E9F2F4"/>
<path d="M419.678 74.4541H399.653V114.936H419.678V74.4541Z" fill="white"/>
<path d="M448.267 55.022H391.086V65.8493H448.267V55.022Z" stroke="#E9F2F4" stroke-miterlimit="10"/>
<path d="M434.263 88.1821C438.19 88.1821 441.374 84.9955 441.374 81.0646C441.374 77.1338 438.19 73.9471 434.263 73.9471C430.335 73.9471 427.151 77.1338 427.151 81.0646C427.151 84.9955 430.335 88.1821 434.263 88.1821Z" fill="#FBB708"/>
<path d="M433.702 83.8655L430.411 79.6274L433.393 80.8743L440.248 74.8752L433.702 83.8655Z" fill="white"/>
<path d="M434.263 109.301C438.19 109.301 441.374 106.115 441.374 102.184C441.374 98.253 438.19 95.0664 434.263 95.0664C430.335 95.0664 427.151 98.253 427.151 102.184C427.151 106.115 430.335 109.301 434.263 109.301Z" fill="#FBB708"/>
<path d="M433.702 104.987L430.411 100.747L433.393 101.996L440.248 95.9945L433.702 104.987Z" fill="white"/>
<defs>
<linearGradient id="paint0_linear" x1="3357.7" y1="51861" x2="123718" y2="51861" gradientUnits="userSpaceOnUse">
<stop stop-color="#0458D5"/>
<stop offset="0.461226" stop-color="#0261F0"/>
<stop offset="0.726856" stop-color="#4B90F9"/>
<stop offset="1" stop-color="#99C0FA"/>
</linearGradient>
<linearGradient id="paint1_linear" x1="400.883" y1="162.21" x2="350.779" y2="137.24" gradientUnits="userSpaceOnUse">
<stop stop-color="#EEF4FB"/>
<stop offset="0.311" stop-color="#E3EDF8"/>
<stop offset="1" stop-color="#CFE1F3"/>
</linearGradient>
</defs>
</svg>
