<svg width="216" height="70" viewBox="0 0 216 70" fill="none" xmlns="http://www.w3.org/2000/svg">
<rect width="216" height="70" rx="35" fill="black"/>
<path d="M76.804 21.04C76.124 21.72 75.332 22.06 74.428 22.06C73.868 22.06 73.34 21.948 72.844 21.724C72.356 21.5 71.928 21.192 71.56 20.8C71.2 20.408 70.912 19.948 70.696 19.42C70.488 18.884 70.384 18.308 70.384 17.692C70.384 17.108 70.488 16.56 70.696 16.048C70.912 15.528 71.204 15.076 71.572 14.692C71.948 14.3 72.388 13.992 72.892 13.768C73.396 13.536 73.944 13.42 74.536 13.42C75.336 13.42 76.02 13.588 76.588 13.924C77.164 14.26 77.596 14.712 77.884 15.28L76.648 16.192C76.432 15.768 76.128 15.444 75.736 15.22C75.352 14.996 74.932 14.884 74.476 14.884C74.116 14.884 73.784 14.96 73.48 15.112C73.184 15.264 72.928 15.472 72.712 15.736C72.504 16 72.34 16.304 72.22 16.648C72.108 16.992 72.052 17.356 72.052 17.74C72.052 18.14 72.116 18.516 72.244 18.868C72.372 19.212 72.548 19.512 72.772 19.768C72.996 20.024 73.26 20.228 73.564 20.38C73.876 20.524 74.212 20.596 74.572 20.596C75.396 20.596 76.14 20.208 76.804 19.432V18.832H75.088V17.62H78.172V22H76.804V21.04ZM86.6993 20.548V22H80.7833V13.48H86.5913V14.932H82.4393V16.984H86.0273V18.328H82.4393V20.548H86.6993ZM95.5623 14.932H92.8383V22H91.1943V14.932H88.4703V13.48H95.5623V14.932ZM101.563 22V13.48H103.219V22H101.563ZM112.569 14.932H109.845V22H108.201V14.932H105.477V13.48H112.569V14.932ZM122.205 22.06C121.581 22.06 121.013 21.94 120.501 21.7C119.997 21.452 119.561 21.128 119.193 20.728C118.833 20.32 118.553 19.856 118.353 19.336C118.153 18.816 118.053 18.284 118.053 17.74C118.053 17.172 118.157 16.628 118.365 16.108C118.581 15.588 118.873 15.128 119.241 14.728C119.617 14.328 120.061 14.012 120.573 13.78C121.085 13.54 121.641 13.42 122.241 13.42C122.857 13.42 123.417 13.548 123.921 13.804C124.433 14.052 124.869 14.38 125.229 14.788C125.589 15.196 125.869 15.66 126.069 16.18C126.269 16.7 126.369 17.228 126.369 17.764C126.369 18.332 126.265 18.876 126.057 19.396C125.849 19.908 125.561 20.364 125.193 20.764C124.825 21.156 124.385 21.472 123.873 21.712C123.361 21.944 122.805 22.06 122.205 22.06ZM119.733 17.74C119.733 18.108 119.789 18.464 119.901 18.808C120.013 19.152 120.173 19.456 120.381 19.72C120.597 19.984 120.857 20.196 121.161 20.356C121.473 20.516 121.825 20.596 122.217 20.596C122.617 20.596 122.969 20.516 123.273 20.356C123.585 20.188 123.845 19.968 124.053 19.696C124.269 19.424 124.429 19.12 124.533 18.784C124.645 18.44 124.701 18.092 124.701 17.74C124.701 17.372 124.641 17.016 124.521 16.672C124.409 16.328 124.245 16.024 124.029 15.76C123.821 15.496 123.561 15.288 123.249 15.136C122.945 14.976 122.601 14.896 122.217 14.896C121.817 14.896 121.461 14.98 121.149 15.148C120.837 15.308 120.577 15.524 120.369 15.796C120.161 16.06 120.001 16.364 119.889 16.708C119.785 17.044 119.733 17.388 119.733 17.74ZM130.496 16.54V22H128.84V13.48H130.124L134.564 19.072V13.492H136.22V22H134.876L130.496 16.54Z" fill="white"/>
<path d="M109.574 36.9527C106.057 36.9527 103.272 39.6154 103.272 43.3136C103.272 46.8639 106.057 49.6746 109.574 49.6746C113.092 49.6746 115.877 47.0118 115.877 43.3136C115.877 39.4675 113.092 36.9527 109.574 36.9527ZM109.574 47.0118C107.669 47.0118 106.057 45.3846 106.057 43.1657C106.057 40.9467 107.669 39.3195 109.574 39.3195C111.48 39.3195 113.092 40.7988 113.092 43.1657C113.092 45.3846 111.48 47.0118 109.574 47.0118ZM95.9433 36.9527C92.4255 36.9527 89.6407 39.6154 89.6407 43.3136C89.6407 46.8639 92.4255 49.6746 95.9433 49.6746C99.461 49.6746 102.246 47.0118 102.246 43.3136C102.246 39.4675 99.461 36.9527 95.9433 36.9527ZM95.9433 47.0118C94.0378 47.0118 92.4255 45.3846 92.4255 43.1657C92.4255 40.9467 94.0378 39.3195 95.9433 39.3195C97.8487 39.3195 99.461 40.7988 99.461 43.1657C99.461 45.3846 97.8487 47.0118 95.9433 47.0118ZM79.6738 38.8757V41.5385H85.9764C85.8298 43.0178 85.2435 44.2012 84.5106 44.9408C83.6312 45.8284 82.1655 46.8639 79.6738 46.8639C75.7163 46.8639 72.7849 43.7574 72.7849 39.7633C72.7849 35.7692 75.8629 32.6627 79.6738 32.6627C81.7258 32.6627 83.3381 33.5503 84.5106 34.5858L86.4161 32.6627C84.8038 31.1834 82.7518 30 79.8203 30C74.5437 30 70 34.4379 70 39.7633C70 45.0888 74.5437 49.5266 79.8203 49.5266C82.7518 49.5266 84.8038 48.6391 86.5627 46.716C88.3215 44.9408 88.9078 42.426 88.9078 40.503C88.9078 39.9112 88.9078 39.3195 88.7612 38.8757H79.6738ZM146.217 40.9467C145.631 39.4675 144.165 36.9527 140.941 36.9527C137.716 36.9527 135.078 39.4675 135.078 43.3136C135.078 46.8639 137.716 49.6746 141.234 49.6746C144.019 49.6746 145.778 47.8994 146.364 46.8639L144.312 45.3846C143.579 46.4201 142.7 47.1598 141.234 47.1598C139.768 47.1598 138.889 46.568 138.156 45.2367L146.511 41.6864L146.217 40.9467ZM137.716 43.0178C137.716 40.6509 139.622 39.3195 140.941 39.3195C141.967 39.3195 142.993 39.9112 143.286 40.6509L137.716 43.0178ZM130.827 49.0828H133.612V30.5917H130.827V49.0828ZM126.43 38.284C125.697 37.5444 124.525 36.8047 123.059 36.8047C119.981 36.8047 117.05 39.6154 117.05 43.1657C117.05 46.716 119.835 49.3787 123.059 49.3787C124.525 49.3787 125.697 48.6391 126.284 47.8994H126.43V48.787C126.43 51.1538 125.111 52.4852 123.059 52.4852C121.447 52.4852 120.274 51.3018 119.981 50.2663L117.636 51.3018C118.369 52.929 120.128 55 123.206 55C126.43 55 129.069 53.0769 129.069 48.4911V37.2485H126.43V38.284ZM123.206 47.0118C121.3 47.0118 119.688 45.3846 119.688 43.1657C119.688 40.9467 121.3 39.3195 123.206 39.3195C125.111 39.3195 126.577 40.9467 126.577 43.1657C126.577 45.3846 125.111 47.0118 123.206 47.0118ZM158.969 30.5917H152.374V49.0828H155.158V42.1302H158.969C162.047 42.1302 164.979 39.9112 164.979 36.3609C164.979 32.8106 162.047 30.5917 158.969 30.5917ZM159.116 39.4675H155.158V33.1065H159.116C161.168 33.1065 162.34 34.8817 162.34 36.213C162.194 37.8402 161.021 39.4675 159.116 39.4675ZM175.972 36.8047C173.92 36.8047 171.868 37.6923 171.135 39.6154L173.626 40.6509C174.213 39.6154 175.092 39.3195 176.118 39.3195C177.584 39.3195 178.903 40.2071 179.05 41.6864V41.8343C178.61 41.5385 177.437 41.0947 176.265 41.0947C173.626 41.0947 170.988 42.574 170.988 45.2367C170.988 47.7515 173.187 49.3787 175.532 49.3787C177.437 49.3787 178.317 48.4911 179.05 47.6035H179.196V49.0828H181.835V41.9822C181.541 38.7278 179.05 36.8047 175.972 36.8047ZM175.678 47.0118C174.799 47.0118 173.48 46.568 173.48 45.3846C173.48 43.9053 175.092 43.4615 176.411 43.4615C177.584 43.4615 178.17 43.7574 178.903 44.0533C178.61 45.8284 177.144 47.0118 175.678 47.0118ZM191.069 37.2485L187.991 45.2367H187.844L184.619 37.2485H181.688L186.525 48.4911L183.74 54.7041H186.525L194 37.2485H191.069ZM166.444 49.0828H169.229V30.5917H166.444V49.0828Z" fill="white"/>
<path d="M24.5656 15.6572C24.1247 16.1034 23.9778 16.8471 23.9778 17.7395V50.6101C23.9778 51.5025 24.2717 52.2462 24.7125 52.6924L24.8595 52.8412L43.0814 34.3979V34.1004L24.5656 15.6572Z" fill="url(#paint0_linear)"/>
<path d="M48.9594 40.6448L42.9344 34.5467V34.1005L48.9594 28.0023L49.1064 28.151L56.307 32.3156C58.3643 33.5055 58.3643 35.4391 56.307 36.629L48.9594 40.6448Z" fill="url(#paint1_linear)"/>
<path d="M49.1064 40.4961L42.9345 34.2492L24.5656 52.8412C25.3004 53.5848 26.329 53.5848 27.6516 52.9899L49.1064 40.4961Z" fill="url(#paint2_linear)"/>
<path d="M49.1064 28.0023L27.6516 15.6572C26.329 14.9135 25.3004 15.0623 24.5656 15.8059L42.9345 34.2492L49.1064 28.0023Z" fill="url(#paint3_linear)"/>
<defs>
<linearGradient id="paint0_linear" x1="41.318" y1="17.4569" x2="16.3575" y2="42.1164" gradientUnits="userSpaceOnUse">
<stop stop-color="#00A0FF"/>
<stop offset="0.007" stop-color="#00A1FF"/>
<stop offset="0.26" stop-color="#00BEFF"/>
<stop offset="0.512" stop-color="#00D2FF"/>
<stop offset="0.76" stop-color="#00DFFF"/>
<stop offset="1" stop-color="#00E3FF"/>
</linearGradient>
<linearGradient id="paint1_linear" x1="59.0021" y1="34.2507" x2="23.4443" y2="34.2507" gradientUnits="userSpaceOnUse">
<stop stop-color="#FFE000"/>
<stop offset="0.409" stop-color="#FFBD00"/>
<stop offset="0.775" stop-color="#FFA500"/>
<stop offset="1" stop-color="#FF9C00"/>
</linearGradient>
<linearGradient id="paint2_linear" x1="45.7662" y1="37.6642" x2="11.9194" y2="71.1048" gradientUnits="userSpaceOnUse">
<stop stop-color="#FF3A44"/>
<stop offset="1" stop-color="#C31162"/>
</linearGradient>
<linearGradient id="paint3_linear" x1="20.0057" y1="4.7638" x2="35.1206" y2="19.6973" gradientUnits="userSpaceOnUse">
<stop stop-color="#32A071"/>
<stop offset="0.069" stop-color="#2DA771"/>
<stop offset="0.476" stop-color="#15CF74"/>
<stop offset="0.801" stop-color="#06E775"/>
<stop offset="1" stop-color="#00F076"/>
</linearGradient>
</defs>
</svg>
