<svg width="636" height="596" viewBox="0 0 636 596" fill="none" xmlns="http://www.w3.org/2000/svg">
<g clip-path="url(#clip0)">
<path d="M626.231 5.48096H186.893V264.999H626.231V5.48096Z" fill="#D5DBDA"/>
<path d="M614.036 10.557H199.087V259.923H614.036V10.557Z" fill="white"/>
<path d="M580.78 22.095H229.512V38.75H580.78V22.095Z" fill="#EFEFEF"/>
<path d="M261.379 180.558H242.273V228.524H261.379V180.558Z" fill="#FFD04D"/>
<path d="M304.432 138.45H285.326V228.524H304.432V138.45Z" fill="#0261F0"/>
<path d="M347.486 147.764H328.38V228.524H347.486V147.764Z" fill="#FBB708"/>
<path d="M390.54 102.167H371.434V228.525H390.54V102.167Z" fill="#0261F0"/>
<g style="mix-blend-mode:multiply" opacity="0.15">
<g style="mix-blend-mode:multiply" opacity="0.26">
<path d="M294.095 138.45H285.326V228.524H294.095V138.45Z" fill="black"/>
</g>
</g>
<g style="mix-blend-mode:multiply" opacity="0.15">
<g style="mix-blend-mode:multiply" opacity="0.26">
<path d="M251.042 180.558H242.273V228.524H251.042V180.558Z" fill="black"/>
</g>
</g>
<g style="mix-blend-mode:multiply" opacity="0.62">
<g style="mix-blend-mode:multiply" opacity="0.26">
<path d="M380.203 102.167H371.434V228.525H380.203V102.167Z" fill="black"/>
</g>
</g>
<g style="mix-blend-mode:multiply" opacity="0.15">
<g style="mix-blend-mode:multiply" opacity="0.26">
<path d="M337.149 147.764H328.38V228.524H337.149V147.764Z" fill="black"/>
</g>
</g>
<path d="M400.65 241.728H229.655V59.6489H232.263V239.12H400.65V241.728Z" fill="#D5DBDA"/>
<path d="M247.218 158.095L245.476 156.154L290.207 115.988L331.639 124.989L376.503 75.043L378.444 76.786L332.566 127.86L290.957 118.821L247.218 158.095Z" fill="#D5DBDA"/>
<path d="M381.959 84.1649L369.308 72.0339L385.64 67.6649L381.959 84.1649Z" fill="#D5DBDA"/>
<path d="M432.876 169.14H416.842V185.174H432.876V169.14Z" fill="#0261F0"/>
<path d="M432.876 197.233H416.842V213.267H432.876V197.233Z" fill="#FBB708"/>
<path d="M488.12 204.156H437.294V213.268H488.12V204.156Z" fill="#EFEFEF"/>
<path d="M488.12 176.062H437.294V185.174H488.12V176.062Z" fill="#EFEFEF"/>
<path d="M527.173 169.14H511.139V185.174H527.173V169.14Z" fill="#0261F0"/>
<path d="M527.173 197.233H511.139V213.267H527.173V197.233Z" fill="#FBB708"/>
<path d="M582.416 204.156H531.59V213.268H582.416V204.156Z" fill="#EFEFEF"/>
<path d="M582.416 176.062H531.59V185.174H582.416V176.062Z" fill="#EFEFEF"/>
<path d="M580.781 70.652H430.529V74.075H580.781V70.652Z" fill="#EFEFEF"/>
<path d="M580.78 78.9409H418.733V82.3639H580.78V78.9409Z" fill="#EFEFEF"/>
<path d="M580.78 87.23H418.733V90.653H580.78V87.23Z" fill="#EFEFEF"/>
<path d="M580.78 95.5179H418.733V98.9409H580.78V95.5179Z" fill="#EFEFEF"/>
<path d="M580.78 103.807H418.733V107.23H580.78V103.807Z" fill="#EFEFEF"/>
<path d="M580.78 112.096H418.733V115.519H580.78V112.096Z" fill="#EFEFEF"/>
<path d="M580.78 120.385H418.733V123.808H580.78V120.385Z" fill="#EFEFEF"/>
<path d="M580.78 128.674H418.733V132.097H580.78V128.674Z" fill="#EFEFEF"/>
<path d="M580.781 136.962H441.856V140.385H580.781V136.962Z" fill="#EFEFEF"/>
<path d="M635.652 3.38197C635.652 4.2792 635.295 5.13968 634.661 5.77411C634.027 6.40855 633.166 6.76497 632.269 6.76497H180.854C180.41 6.76497 179.97 6.67746 179.559 6.50744C179.149 6.33741 178.776 6.08821 178.462 5.77405C178.148 5.4599 177.899 5.08695 177.729 4.67651C177.559 4.26608 177.472 3.82619 177.472 3.38197V3.38197C177.471 2.9375 177.559 2.49729 177.728 2.08651C177.898 1.67572 178.147 1.30242 178.461 0.98795C178.775 0.673479 179.148 0.424005 179.559 0.253793C179.969 0.0835818 180.409 -0.00402863 180.854 -0.00402832H632.269C633.166 -0.00402832 634.027 0.352394 634.661 0.98683C635.295 1.62127 635.652 2.48174 635.652 3.37897V3.37897V3.38197Z" fill="#66341B"/>
<path d="M635.652 267.096C635.652 267.993 635.295 268.854 634.661 269.488C634.027 270.123 633.166 270.479 632.269 270.479H180.854C180.41 270.479 179.97 270.391 179.559 270.221C179.149 270.051 178.776 269.802 178.462 269.488C178.148 269.174 177.899 268.801 177.729 268.391C177.559 267.98 177.472 267.54 177.472 267.096V267.096C177.472 266.652 177.559 266.212 177.729 265.801C177.899 265.391 178.148 265.018 178.462 264.704C178.776 264.39 179.149 264.141 179.559 263.971C179.97 263.801 180.41 263.713 180.854 263.713H632.269C633.166 263.713 634.027 264.069 634.661 264.704C635.295 265.338 635.652 266.199 635.652 267.096V267.096Z" fill="#66341B"/>
<path d="M112.059 564.842L114.509 433.874H105.797L108.246 564.842C108.179 565.129 108.177 565.428 108.242 565.716C108.306 566.004 108.435 566.274 108.618 566.505C108.802 566.736 109.035 566.923 109.3 567.051C109.566 567.179 109.857 567.246 110.152 567.246C110.447 567.246 110.739 567.179 111.004 567.051C111.27 566.923 111.503 566.736 111.687 566.505C111.87 566.274 111.999 566.004 112.063 565.716C112.128 565.428 112.126 565.129 112.059 564.842Z" fill="#723E24"/>
<path d="M31.9899 549.522L82.5889 428.696L74.4889 425.481L28.4449 548.115C28.1911 548.626 28.1413 549.214 28.3057 549.76C28.4701 550.306 28.8364 550.768 29.3299 551.054C29.885 551.185 30.4691 551.099 30.9632 550.815C31.4574 550.53 31.8246 550.068 31.9899 549.522V549.522Z" fill="#723E24"/>
<path d="M188.309 549.522L137.709 428.696L145.809 425.481L191.855 548.113C192.023 548.355 192.133 548.632 192.179 548.923C192.225 549.214 192.204 549.512 192.119 549.794C192.033 550.076 191.886 550.335 191.686 550.552C191.487 550.768 191.241 550.938 190.968 551.046C190.694 551.155 190.399 551.201 190.105 551.18C189.812 551.159 189.526 551.072 189.271 550.925C189.015 550.779 188.796 550.577 188.629 550.334C188.463 550.091 188.353 549.813 188.309 549.522V549.522Z" fill="#723E24"/>
<g style="mix-blend-mode:multiply" opacity="0.3">
<g style="mix-blend-mode:multiply" opacity="0.3">
<path d="M73.085 429.228L78.237 431.273L30.677 550.955C31.2731 550.651 31.7393 550.141 31.99 549.521L82.589 428.696L74.489 425.481L73.085 429.228Z" fill="black"/>
</g>
<g style="mix-blend-mode:multiply" opacity="0.3">
<path d="M105.859 437.321H112.351L109.922 567.221C109.997 567.237 110.074 567.247 110.151 567.251C110.716 567.168 111.228 566.872 111.583 566.425C111.937 565.977 112.107 565.411 112.059 564.842L114.509 433.874H105.797L105.859 437.321Z" fill="black"/>
</g>
<g style="mix-blend-mode:multiply" opacity="0.3">
<path d="M191.853 548.115L145.807 425.483L137.707 428.698L138.637 430.92L143.648 428.931L189.429 550.859C189.652 551.01 189.907 551.106 190.173 551.141C190.44 551.176 190.711 551.148 190.965 551.059C191.46 550.774 191.828 550.31 191.993 549.763C192.158 549.216 192.108 548.626 191.853 548.115Z" fill="black"/>
</g>
</g>
<path d="M170.18 440.062C161.344 447.252 148.25 453.869 114.994 454.524C71.2469 455.386 48.3449 450.424 35.9149 427.86C15.1589 390.181 41.1329 268.453 82.1069 295.419C116.359 317.961 123.22 389.919 127.747 399.869C132.274 409.819 191.622 422.615 170.18 440.062Z" fill="#E8F6F7"/>
<path d="M122.577 445.204C78.83 446.066 55.929 441.104 43.498 418.54C29.329 392.822 36.934 327.949 56.22 297.928C31.537 320.807 20.013 398.996 35.916 427.859C48.346 450.42 71.247 455.385 114.995 454.523C148.251 453.868 161.345 447.251 170.181 440.061C173.19 437.613 174.607 435.261 174.809 432.986C165.942 439.258 152.332 444.618 122.577 445.204Z" fill="#D0E0E2"/>
<path d="M141.239 157.196C144.228 148.572 146.988 139.508 151.676 144.086C156.608 148.905 156.213 148.323 154.422 155.009C152.631 161.695 138.724 164.45 141.239 157.196Z" fill="#B28249"/>
<path d="M146.593 144.868C148.079 140.763 150.518 136.074 153.026 134.136C155.534 132.198 151.734 138.991 150.836 142.171C149.938 145.351 145.344 148.321 146.593 144.868Z" fill="#B28249"/>
<path d="M142.559 191.612C146.073 178.426 147.829 161.192 147.829 161.192L141.246 156.76C141.246 156.76 127.846 184.303 120.605 205.212L83.259 195.623L78.707 194.695L90.859 218.977C90.859 218.977 126.828 224.214 129.038 222.977C131.248 221.74 138.981 205.036 142.559 191.612Z" fill="#F4F4F4"/>
<path d="M129.037 222.976C126.827 224.213 90.8581 218.976 90.8581 218.976L78.7061 194.696L83.257 195.624C86.612 197.04 92.0481 202.474 96.4621 208.247C99.6491 212.415 101.405 213.898 106.22 215.704C113.585 218.466 121.411 220.425 124.352 220.635C129.323 220.966 129.809 221.209 130.87 219.751C130.94 220.413 130.8 221.079 130.472 221.658C130.143 222.236 129.641 222.697 129.037 222.976V222.976Z" fill="#EAEAEA"/>
<path d="M41.1071 268.01C43.4573 274.05 43.9705 280.65 42.5821 286.981C39.7881 299.555 42.9681 300.399 42.9681 300.399C42.9681 300.399 60.0101 311.216 74.1841 315.637C84.3421 318.798 93.0001 318.263 92.7591 307.048L92.7511 306.894C92.7331 306.213 92.7171 305.562 92.7011 304.927C92.2221 279.72 97.4781 278.438 98.7741 250.212C100.111 221.256 92.3741 205.105 84.7061 198.1C77.0271 191.111 66.5471 190.851 46.8331 195.511C32.0241 199 27.1461 202.93 27.2661 213.888C27.4404 218.419 27.973 222.93 28.8591 227.377C31.3051 241.167 37.1431 257.722 41.1071 268.01Z" fill="#F4F4F4"/>
<path d="M76.8709 205.996C76.8709 205.996 92.2319 256.35 89.1589 280.471L83.4999 290.771L77.3129 279.543C77.3129 279.543 82.3439 231.318 72.7129 206.85L76.8709 205.996Z" fill="#0261F0"/>
<path d="M41.107 268.01C43.4572 274.05 43.9704 280.65 42.582 286.981C39.788 299.555 42.968 300.399 42.968 300.399C42.968 300.399 60.01 311.216 74.184 315.637L87.428 314.381L92.728 310.215L92.749 306.893C92.731 306.212 92.715 305.561 92.699 304.926C86.032 305.434 79.3305 305.26 72.699 304.405C65.9862 303.572 59.4004 301.923 53.088 299.492C51.4193 298.861 50.0238 297.667 49.1432 296.116C48.2625 294.564 47.9522 292.754 48.266 290.998C49.3489 285.196 49.9622 279.316 50.1 273.415C50.06 267.865 47.49 258.485 45.389 251.715C43.811 246.524 43.2125 241.084 43.624 235.674C44.0082 229.586 44.0032 223.479 43.609 217.391L33.109 211.704L27.261 213.883C27.4367 218.416 27.971 222.928 28.859 227.377C31.305 241.167 37.143 257.722 41.107 268.01Z" fill="#E2E2E2"/>
<path d="M40.89 321.505C39.677 321.705 36.575 316.259 36.575 316.259L37.875 314.532C38.61 313.556 39.6349 312.838 40.803 312.48L41.014 312.415C41.5235 312.254 42.071 312.261 42.5764 312.435C43.0817 312.608 43.5182 312.939 43.822 313.378C44.713 314.698 46.087 316.204 47.685 316.146H47.713C47.7662 316.169 47.8242 316.178 47.882 316.174C49.295 316.203 42.103 321.307 40.89 321.505Z" fill="#F4D5B5"/>
<path d="M88.7319 146.302C88.7319 146.302 90.0469 149.976 88.0589 152.896L79.9309 141.896L85.5999 141.844L88.7319 146.302Z" fill="#423F3D"/>
<path d="M44.59 160.853C44.949 175.043 57.19 183.267 57.19 183.267L56.372 196.182L64.629 201.534L70.295 205.202L73.547 198.407L73.993 190.081C74.0465 189.138 74.4095 188.239 75.0256 187.524C75.6417 186.808 76.4766 186.316 77.401 186.123C80.5214 185.367 83.3329 183.667 85.453 181.256C85.6401 181.057 85.812 180.845 85.967 180.62L85.986 180.609C91.352 173.298 93.386 145.299 75.014 137.35C56.046 129.12 44.22 146.643 44.59 160.853Z" fill="#B28249"/>
<path d="M65.1839 193.788L64.6279 201.534L70.2939 205.202L73.5459 198.407L73.9919 190.081C74.0455 189.138 74.4084 188.239 75.0246 187.524C75.6407 186.808 76.4756 186.316 77.3999 186.123C80.5203 185.367 83.3318 183.667 85.4519 181.256C85.6391 181.057 85.8109 180.845 85.9659 180.62C82.3917 182.571 78.4633 183.787 74.4119 184.196C71.9955 184.465 69.7496 185.572 68.064 187.324C66.3784 189.076 65.3594 191.363 65.1839 193.788V193.788Z" fill="#A57843"/>
<path d="M64.4009 165.227C63.6829 165.521 63.0009 164.411 63.0009 164.411C63.0009 164.411 59.0179 155.466 57.6469 154.095C55.1979 151.614 49.4199 151.843 48.9639 159.514C48.6049 165.455 55.6229 178.122 57.7779 181.843C57.942 182.137 57.9959 182.479 57.9301 182.809C57.8643 183.139 57.6831 183.435 57.4189 183.643C57.1852 183.802 56.9167 183.903 56.6359 183.937H56.5359C56.2016 183.944 55.8765 183.828 55.6219 183.611C51.0849 179.628 31.1059 160.466 46.9709 142.446C46.9709 142.446 59.5709 143.262 61.4979 149.334C62.874 154.043 63.5788 149.258 64.4009 154.095C64.4009 154.095 65.1519 164.896 64.4009 165.227Z" fill="#2C2825"/>
<path d="M88.732 146.302C88.732 146.302 77.705 137.702 60.959 148.179L47.246 144.679C47.246 144.679 46.669 144.492 46.973 142.438C47.277 140.384 57.98 125.968 82 130.5C95.811 133.106 95.082 136.932 88.732 146.302Z" fill="#2C2825"/>
<path d="M77.9341 201.71L77.8541 202.37C77.7021 203.619 77.3711 204.84 76.8711 205.995V205.995L72.7131 206.846L69.0911 204.146L73.2451 199.316L73.8901 199.48C75.3791 199.859 76.7492 200.606 77.8751 201.652L77.9341 201.71Z" fill="#0261F0"/>
<path d="M56.471 190.163C54.8609 191.223 53.5024 192.622 52.491 194.263C54.2385 195.059 55.9411 195.95 57.591 196.932C59.76 198.256 70.182 205.618 70.182 205.618L73.247 199.324C73.247 199.324 62.359 191.813 56.471 190.163Z" fill="#E2E2E2"/>
<path d="M73.2449 199.319C73.2449 199.319 76.8919 200.566 78.0119 203.29C78.0119 203.29 79.8769 199.716 77.4939 193.355C76.4336 192.346 75.2434 191.483 73.9549 190.788L73.2449 199.319Z" fill="#E2E2E2"/>
<path d="M44.259 312.613C45.016 313.6 45.8564 314.519 46.771 315.362C47.345 315.678 47.443 315.006 47.226 314.532C47.009 314.058 44.347 311.969 44.259 312.613Z" fill="#E5BB98"/>
<path d="M56.632 183.932H56.532C56.1977 183.938 55.8726 183.823 55.618 183.606C51.081 179.623 31.102 160.461 46.967 142.441C46.5166 144.32 46.3624 146.259 46.51 148.186C46.51 148.186 36.392 164.541 56.632 183.932Z" fill="#423F3D"/>
<path d="M66.459 572.889C102.824 572.889 132.303 570.646 132.303 567.88C132.303 565.114 102.824 562.871 66.459 562.871C30.0944 562.871 0.61499 565.114 0.61499 567.88C0.61499 570.646 30.0944 572.889 66.459 572.889Z" fill="#D8D8D8"/>
<path d="M33.9279 548.766C34.7939 552.091 34.4639 553.281 34.8049 555.449C35.2299 558.137 37.6989 559.115 39.1299 561.322C40.7059 563.753 43.1809 567.653 33.5139 567.849C23.1649 568.056 17.0339 567.341 18.7889 561.49C20.5439 555.639 20.8889 553.063 20.7669 551.157C20.6449 549.251 20.7719 547.262 21.9409 546.117C23.1099 544.972 32.4019 542.914 33.9279 548.766Z" fill="#8C4200"/>
<path d="M36.1139 362.779C36.1139 362.779 19.7769 336.706 42.9679 300.396C42.9679 300.396 61.0419 308.487 75.5149 309.463C86.9149 310.232 92.6989 309.052 92.6989 309.052C92.6989 309.052 93.6589 343.961 93.6989 362.777H36.1139V362.779Z" fill="#3A3A3A"/>
<path d="M47.1239 438.546C51.5929 419.7 33.0449 416.381 27.1889 430.016C18.9049 449.301 19.5639 534.006 20.0069 546.311C20.0639 547.922 20.9069 547.62 21.8069 547.294C24.4459 546.342 26.6579 545.964 27.7069 546.188C29.8116 546.842 31.851 547.69 33.7989 548.721C35.5419 531.961 42.7999 456.796 47.1239 438.546Z" fill="#3A3A3A"/>
<path d="M63.802 365.321C65.76 341.909 56.826 323.721 42.831 331.457C36.94 334.71 34.784 341.22 33.994 347.349C33.204 353.478 28.867 417.177 27.348 428.687C23.924 454.636 43.67 447.643 45.812 440.453C51.216 422.296 62.735 378.078 63.802 365.321Z" fill="#3A3A3A"/>
<path d="M96.7709 437.33C97.5039 419.761 82.8099 420.779 76.8799 434.43C64.0709 463.922 76.9729 526.713 79.6029 556.33C82.4739 551.563 87.9159 549.948 89.1939 550.049C89.8228 550.111 90.4319 550.304 90.9827 550.613C91.5335 550.923 92.014 551.344 92.3939 551.849C91.9729 515.516 95.9849 456.115 96.7709 437.33Z" fill="#3A3A3A"/>
<path d="M77.539 439.236C79.729 446.409 98.597 454.711 96.626 428.599C95.752 417.018 93.426 353.064 92.973 346.899C92.52 340.734 91.493 331.723 88.513 330.599C73.613 324.975 59.165 343.365 63.086 366.514C65.703 381.99 72.995 424.358 77.539 439.236Z" fill="#3A3A3A"/>
<path d="M92.3399 552.378C93.1219 553.899 96.8639 557.415 102.051 559.733C107.238 562.051 118.223 563.133 112.119 565.174C106.015 567.215 98.8969 565.974 95.2889 565.4C91.529 564.875 87.7336 564.646 83.9379 564.715C78.3289 564.677 78.2859 564.332 79.0379 558.007C80.0829 549.303 89.8169 547.46 92.3399 552.378Z" fill="#8C4200"/>
<path d="M39.866 307.416L42.745 311.473C44.2654 311.281 45.8083 311.558 47.1667 312.268C48.5251 312.977 49.6341 314.085 50.345 315.443C52.782 320.215 44.161 326.191 41.71 323.987C39.259 321.783 33.929 311.596 33.929 311.596L39.866 307.416Z" fill="#B28249"/>
<path d="M18.329 294.546C24.0212 300.521 29.3492 306.832 34.284 313.446L35.77 312.446L41.459 308.576C41.459 308.576 29.789 284.136 26.473 272.203C25.0529 267.199 22.7245 262.498 19.604 258.336C19.826 258.123 20.033 257.912 20.254 257.684C28.713 248.677 35.306 237.063 40.322 229.947C42.7434 226.524 44.3822 222.61 45.122 218.483C45.6155 215.688 45.6429 212.831 45.203 210.027C44.487 205.565 42.611 201.455 38.294 200.395C36.7151 200.008 35.0541 200.133 33.551 200.752C31.8663 201.441 30.4437 202.647 29.488 204.196C22.894 214.864 4.21598 243.742 1.27898 250.865C0.79284 252.033 0.456827 253.259 0.278977 254.512C0.191174 254.925 0.124421 255.342 0.0789768 255.762C-1.05502 267.446 10.545 286.696 18.329 294.546Z" fill="#F4F4F4"/>
<path d="M18.329 294.546C24.0212 300.521 29.3492 306.832 34.284 313.446L35.77 312.446C35.77 312.446 27.207 300.515 23.16 295.682C16.96 288.282 12.599 282.508 8.89998 275.711C5.20098 268.914 3.45898 255.811 5.41898 252.132C7.36298 248.455 18.288 232.208 20.631 229.085C22.975 225.977 42.148 206.847 36.644 201.516C36.2122 201.177 35.7132 200.933 35.1801 200.802C34.647 200.67 34.092 200.654 33.552 200.753C31.8671 201.442 30.4442 202.647 29.488 204.196C22.894 214.864 4.21598 243.742 1.27898 250.865C0.79284 252.033 0.456827 253.259 0.278977 254.512C0.191174 254.925 0.124421 255.342 0.0789768 255.762C-1.05502 267.446 10.545 286.696 18.329 294.546Z" fill="#EAEAEA"/>
<path d="M48.883 311.696C48.883 311.696 46.248 320.99 34.539 326.333C24.439 330.942 50.712 333.578 51.298 332.553C51.884 331.528 56.933 314.566 56.933 314.566L48.883 311.696Z" fill="#3A3A3A"/>
<path d="M250.137 557.478L252.601 425.705H243.835L246.299 557.478C246.232 557.767 246.231 558.067 246.296 558.356C246.361 558.646 246.491 558.917 246.676 559.149C246.86 559.381 247.095 559.569 247.362 559.697C247.629 559.826 247.921 559.893 248.218 559.893C248.515 559.893 248.807 559.826 249.074 559.697C249.341 559.569 249.576 559.381 249.76 559.149C249.945 558.917 250.075 558.646 250.14 558.356C250.205 558.067 250.204 557.767 250.137 557.478V557.478Z" fill="#723E24"/>
<path d="M169.579 542.064L220.489 420.496L212.342 417.262L166.013 540.648C165.844 540.892 165.731 541.17 165.685 541.464C165.638 541.757 165.659 542.057 165.744 542.341C165.83 542.625 165.979 542.886 166.18 543.105C166.38 543.323 166.628 543.494 166.904 543.603C167.179 543.713 167.476 543.758 167.772 543.737C168.068 543.716 168.356 543.628 168.613 543.48C168.87 543.332 169.091 543.128 169.258 542.882C169.425 542.637 169.535 542.357 169.579 542.064V542.064Z" fill="#723E24"/>
<path d="M326.859 542.064L275.947 420.496L284.095 417.262L330.424 540.647C330.594 540.891 330.706 541.169 330.753 541.463C330.8 541.756 330.779 542.056 330.694 542.34C330.608 542.624 330.46 542.886 330.259 543.104C330.058 543.323 329.811 543.494 329.535 543.603C329.259 543.713 328.962 543.759 328.666 543.738C328.37 543.716 328.082 543.628 327.825 543.48C327.568 543.332 327.347 543.128 327.18 542.883C327.013 542.637 326.903 542.358 326.859 542.064V542.064Z" fill="#723E24"/>
<g style="mix-blend-mode:multiply" opacity="0.3">
<g style="mix-blend-mode:multiply" opacity="0.3">
<path d="M210.927 421.031L216.111 423.089L168.259 543.506C168.859 543.199 169.328 542.687 169.58 542.063L220.489 420.496L212.342 417.262L210.927 421.031Z" fill="black"/>
</g>
<g style="mix-blend-mode:multiply" opacity="0.3">
<path d="M243.9 429.174H250.432L247.988 559.868C248.064 559.884 248.141 559.894 248.219 559.898C248.786 559.814 249.301 559.517 249.657 559.068C250.013 558.618 250.185 558.05 250.137 557.478L252.601 425.705H243.835L243.9 429.174Z" fill="black"/>
</g>
<g style="mix-blend-mode:multiply" opacity="0.3">
<path d="M330.424 540.648L284.095 417.263L275.947 420.497L276.884 422.732L281.925 420.732L327.989 543.408C328.213 543.559 328.47 543.656 328.738 543.691C329.006 543.726 329.279 543.697 329.534 543.608C330.031 543.321 330.401 542.854 330.566 542.304C330.731 541.754 330.681 541.162 330.424 540.648V540.648Z" fill="black"/>
</g>
</g>
<path d="M312.033 380.616C312.033 431.156 283.462 443.258 248.218 443.258C212.974 443.258 184.403 431.158 184.403 380.616C184.403 330.074 212.974 281.231 248.218 281.231C283.462 281.231 312.033 330.076 312.033 380.616Z" fill="#E8F6F7"/>
<path d="M253.342 431.88C218.098 431.88 189.528 419.78 189.528 369.238C189.539 352.249 192.682 335.407 198.798 319.557C189.798 337.011 184.404 358.657 184.404 380.617C184.404 431.157 212.975 443.259 248.219 443.259C275.851 443.259 299.378 435.817 308.253 408.247C297.133 426.556 276.706 431.88 253.342 431.88Z" fill="#D0E0E2"/>
<path d="M217.625 367.375C217.625 367.375 209.425 384.845 207.756 396.519C205.318 413.563 208.92 420.946 230.696 421.626C252.472 422.306 258.82 418.063 269.204 418.063C279.588 418.063 291.657 398.377 278.285 375.002L217.625 367.375Z" fill="#09424C"/>
<path d="M226.978 510.496L226.578 517.107C226.578 517.107 220.143 536.067 219.826 540.849C219.273 549.186 222.954 558.519 226.532 558.466C230.611 558.406 236.232 553.178 238.738 542.731C240.438 535.656 237.686 521.799 238.664 518.547C239.642 515.295 241.615 508.991 241.615 508.991L226.978 510.496Z" fill="#CF9B5B"/>
<path d="M239.25 538.669C236.43 541.515 230.694 547.505 228.417 547.39C226.054 547.271 221.917 540.01 220.54 537.006C220.207 538.266 219.969 539.549 219.828 540.845C219.275 549.182 222.956 558.515 226.534 558.462C230.613 558.402 236.234 553.174 238.74 542.727C239.032 541.393 239.203 540.034 239.25 538.669V538.669Z" fill="#8C4200"/>
<path d="M241.294 513.714C241.294 513.714 267.312 431.564 270.56 421.457C273.808 411.35 276.428 392.132 261.368 388.78C248.361 385.885 242.905 405.28 240.526 417.228C238.147 429.176 226.164 508.912 226.164 508.912C226.164 508.912 224.75 513.396 232.516 514.679C240.282 515.962 241.294 513.714 241.294 513.714Z" fill="#0C5A71"/>
<g style="mix-blend-mode:multiply" opacity="0.1">
<g style="mix-blend-mode:multiply" opacity="0.1">
<path d="M256.795 388.696C251.145 396.42 248.279 410.83 246.68 418.853C244.301 430.797 232.439 512.167 232.439 512.167C232.439 512.167 234.439 513.192 238.766 515.127C238.078 515.078 237.387 515.075 236.698 515.12C228.325 515.72 226.285 510.545 226.285 510.545C226.285 510.545 238.147 429.174 240.526 417.231C242.605 406.796 247.034 390.667 256.795 388.696Z" fill="black"/>
</g>
</g>
<path d="M194.352 507.332L193.486 513.898C193.486 513.898 185.719 532.352 185.059 537.096C183.915 545.373 186.922 554.944 190.495 555.146C194.568 555.376 200.547 550.561 203.789 540.319C205.989 533.382 204.228 519.365 205.436 516.19C206.644 513.015 209.059 506.872 209.059 506.872L194.352 507.332Z" fill="#CF9B5B"/>
<path d="M204.589 536.31C201.574 538.948 195.426 544.515 193.164 544.239C190.816 543.952 187.201 536.415 186.045 533.321C185.623 534.553 185.293 535.815 185.059 537.096C183.915 545.373 186.922 554.944 190.495 555.146C194.568 555.376 200.547 550.561 203.789 540.319C204.176 539.01 204.444 537.668 204.589 536.31V536.31Z" fill="#8C4200"/>
<path d="M208.403 511.563C208.403 511.563 240.197 431.471 244.156 421.621C248.115 411.771 252.095 392.788 237.311 388.373C224.543 384.56 217.721 403.522 214.499 415.267C211.277 427.012 193.653 505.697 193.653 505.697C193.653 505.697 191.923 510.069 199.579 511.897C207.235 513.725 208.403 511.563 208.403 511.563Z" fill="#0C5A71"/>
<g style="mix-blend-mode:multiply" opacity="0.1">
<g style="mix-blend-mode:multiply" opacity="0.1">
<path d="M232.759 387.96C226.574 395.26 222.691 409.432 220.525 417.322C217.302 429.066 199.684 509.387 199.684 509.387C199.684 509.387 201.605 510.551 205.784 512.787C205.101 512.689 204.412 512.638 203.722 512.633C195.327 512.633 193.66 507.333 193.66 507.333C193.66 507.333 211.278 427.012 214.501 415.268C217.315 405.006 222.879 389.236 232.759 387.96Z" fill="black"/>
</g>
</g>
<path d="M231.654 201.271C231.654 201.271 234.535 188.895 255.163 192.871C274.853 196.665 273.611 224.133 275.902 231.604C277.928 237.584 280.278 243.45 282.943 249.174C283.031 249.365 283.077 249.573 283.08 249.783C283.082 249.993 283.04 250.202 282.957 250.395C282.873 250.588 282.75 250.762 282.595 250.904C282.441 251.047 282.257 251.155 282.058 251.222C274.781 253.641 243.889 262.703 222.82 250.064C220.941 248.976 219.467 247.306 218.62 245.307C218.224 244.379 218.03 243.378 218.052 242.369C218.195 239.076 220.052 235.069 218.625 225.469C217.198 215.869 218.909 200.984 231.654 201.271Z" fill="#0B0B3A"/>
<path d="M225.592 227.81C224.742 229.071 224.156 230.49 223.869 231.983C223.582 233.476 223.6 235.012 223.922 236.498C224.065 237.936 224.737 239.269 225.807 240.24C226.877 241.212 228.269 241.751 229.714 241.755L230.366 236.355L228.934 226.855L225.592 227.81Z" fill="#CF9B5B"/>
<path d="M271.659 227.81C272.509 229.07 273.096 230.49 273.383 231.983C273.67 233.476 273.652 235.012 273.33 236.498C273.187 237.936 272.515 239.27 271.445 240.241C270.375 241.212 268.982 241.751 267.537 241.755L266.886 236.355L268.318 226.855L271.659 227.81Z" fill="#CF9B5B"/>
<path d="M275.002 332.917C274.657 337.84 274.776 342.784 275.357 347.684C275.957 353.962 278.057 376.96 278.057 376.96C273.823 378.51 269.46 379.683 265.02 380.466C253.965 382.574 234.926 376.914 217.262 370.911C217.262 370.911 223.747 354.982 223.839 341.876C223.862 340.089 223.827 338.245 223.724 336.354C223.306 332.299 222.675 328.268 221.834 324.279C221.651 323.282 221.467 322.251 221.284 321.186C220.62 317.348 219.955 313.133 219.484 308.837C218.982 304.564 218.768 300.262 218.843 295.961C217.243 284.436 220.768 273.095 220.768 273.095C220.768 273.095 235.328 267.012 241.48 266.187C241.48 266.187 252.386 263.687 260.05 266.233C270.074 269.555 275.561 271.491 280.063 273.954C280.544 274.218 283.463 282.764 282.183 290.29C280.304 301.322 277.532 316.455 276.043 325.551C275.448 329.183 275.059 331.853 275.002 332.917Z" fill="#FBB708"/>
<path opacity="0.39" d="M278.059 379.655C273.697 379.28 269.304 379.554 265.022 380.466C261.952 372.55 262.917 343.802 262.917 343.802C254.325 342.37 241.254 337.215 241.254 337.215C237.817 338.842 227.186 341.167 223.841 341.878C223.864 340.091 223.829 338.247 223.726 336.356C223.308 332.301 222.677 328.27 221.836 324.281C225.857 321.474 233.326 327.672 233.326 327.672L271.039 321.75C272.835 322.84 274.513 324.113 276.045 325.55C275.445 329.182 275.06 331.85 275.002 332.916C274.657 337.839 274.776 342.783 275.357 347.683C275.952 353.962 278.059 379.655 278.059 379.655Z" fill="#CE9006"/>
<path d="M270.029 221.601C270.029 227.134 268.918 240.001 265.447 248.522C263.546 253.366 260.12 257.459 255.687 260.184C255.641 262.395 255.595 265.305 257.142 265.546C257.589 266.531 258.15 266.783 257.852 268.33C256.809 273.83 250.406 279.912 248.836 281.435C247.266 282.958 246.281 281.435 246.281 281.435C244.455 279.326 242.886 277.007 241.607 274.527C240.816 273.038 240.198 271.686 239.807 270.735C239.522 270.024 239.413 269.256 239.489 268.494C239.565 267.732 239.823 267 240.242 266.359C241.942 266.153 241.319 262.51 241.181 260.559C237.905 258.222 234.812 254.224 232.509 249.527C227.892 240.099 227.64 228.116 227.64 221.598C227.64 215.977 229.874 210.586 233.849 206.612C237.824 202.637 243.215 200.405 248.836 200.405C254.457 200.405 259.848 202.639 263.822 206.614C267.797 210.589 270.029 215.98 270.029 221.601Z" fill="#CF9B5B"/>
<path d="M255.4 260.288C254.152 260.746 249.053 262.728 248.069 264.87C246.958 267.333 246.328 271.319 245.285 272.442C244.188 273.343 242.944 274.048 241.608 274.527C240.817 273.038 240.199 271.686 239.808 270.735C239.523 270.024 239.414 269.255 239.49 268.494C239.566 267.732 239.824 267 240.243 266.359C241.943 266.153 241.32 262.51 241.182 260.559C243.313 261.405 245.59 261.822 247.882 261.785C250.43 261.531 252.948 261.029 255.4 260.288Z" fill="#BF8F53"/>
<path d="M263.146 316.342C264.613 316.049 266.095 315.834 267.585 315.698C268.659 315.698 265.585 325.328 265.585 325.328C264.922 324.64 264.078 324.155 263.151 323.928C261.827 323.713 262.328 316.446 262.328 316.446L263.146 316.342Z" fill="#CF9B5B"/>
<path d="M280.069 273.951C280.069 273.951 289.653 278.877 289.08 286.324C288.507 293.771 277.29 334.445 275.359 339.796C273.428 345.147 224.546 328.913 224.546 328.913C224.546 328.913 226.074 322.376 227.41 320.584C227.41 320.584 260.823 324.14 265.21 325.858C265.21 325.858 271.988 293.59 274.088 287.863C276.188 282.136 280.069 273.951 280.069 273.951Z" fill="#0C5A71"/>
<path d="M263.821 324.612C258.746 327.476 220.151 343.512 216.577 342.517C213.003 341.522 208.695 338.359 208.122 328.908C207.622 320.522 212.475 287.472 213.609 279.82C213.783 278.61 214.282 277.469 215.053 276.52C215.287 276.269 215.535 276.032 215.797 275.81C217.316 274.672 218.99 273.758 220.769 273.095C221.25 274.183 221.124 278.651 221.72 286.495C221.789 287.385 221.731 288.28 221.548 289.153C220.586 293.724 219.417 299.681 219.486 302.843C219.487 303.034 219.498 303.226 219.521 303.416C219.853 306.738 222.321 313.039 222.362 315.697C222.442 321.975 222.419 322.857 222.408 322.96C223.794 322.731 228.608 321.872 234.483 320.829C246.615 318.652 263.249 315.662 263.249 315.662C264.691 318.735 263.821 324.612 263.821 324.612Z" fill="#0C5A71"/>
<path d="M223.348 229.91C223.348 229.91 230.053 228.778 233.922 223.752C235.945 220.893 237.527 217.748 238.617 214.42C238.617 214.42 240.961 219.456 248.837 223.036C256.562 226.586 264.795 228.906 273.237 229.91C273.237 229.91 273.758 211.58 267.744 204.134C261.73 196.688 246.121 192.392 235.524 198.834C224.927 205.276 223.348 229.91 223.348 229.91Z" fill="#0B0B3A"/>
<path d="M240.312 266.224C240.312 266.224 241.412 276.104 246.281 281.438C246.281 281.438 244.666 280.905 241.667 284.517C241.575 284.628 241.453 284.71 241.317 284.756C241.18 284.802 241.033 284.808 240.893 284.775C240.753 284.742 240.625 284.671 240.523 284.569C240.421 284.467 240.35 284.338 240.317 284.198C239.386 280.181 236.335 270.346 238.032 266.926C238.319 266.621 238.679 266.397 239.079 266.274C239.479 266.15 239.904 266.133 240.312 266.224Z" fill="#CE9006"/>
<path d="M256.992 265.496C256.196 268.381 255.202 271.207 254.017 273.955C252.626 276.791 250.795 279.39 248.593 281.655C248.593 281.655 252.344 282.35 254.079 284.82C254.143 284.91 254.23 284.98 254.331 285.025C254.432 285.069 254.543 285.085 254.652 285.071C254.762 285.058 254.865 285.015 254.952 284.947C255.039 284.879 255.106 284.789 255.146 284.686C256.273 282.513 256.916 280.545 258.171 276.07C259.6 270.97 259.658 268.17 259.491 266.061C259.188 265.714 258.783 265.472 258.334 265.37C257.885 265.269 257.415 265.313 256.992 265.496Z" fill="#CE9006"/>
<path opacity="0.39" d="M219.67 325.609C215.76 322.274 220.426 315.909 220.094 313.683C219.762 311.457 219.773 311.083 219.487 308.838C219.235 307.04 219.247 305.214 219.522 303.419C219.854 306.741 222.322 313.042 222.363 315.7C222.443 321.978 222.42 322.86 222.409 322.963C223.795 322.734 236.739 320.415 242.616 319.372C243.989 320.096 222.302 327.854 219.67 325.609Z" fill="#09424C"/>
<path d="M226.551 322.241L222.413 322.968C219.835 322.744 217.247 322.672 214.661 322.751C212.64 322.929 210.649 323.354 208.731 324.016C208.621 324.041 208.507 324.044 208.396 324.022C208.285 324.001 208.18 323.957 208.087 323.893C207.994 323.83 207.916 323.747 207.856 323.651C207.797 323.555 207.759 323.448 207.743 323.336C207.321 321.966 207.151 320.53 207.243 319.099C207.413 317.694 207.776 316.319 208.322 315.013C208.415 314.802 208.551 314.612 208.721 314.456C208.891 314.299 209.092 314.18 209.311 314.106C210.848 313.564 212.678 313.622 215.357 313.85C216.543 313.874 217.709 314.169 218.764 314.713C219.818 315.257 220.735 316.035 221.443 316.987L223.143 319.01C223.696 319.656 224.447 320.1 225.279 320.273L227.325 320.699C227.325 320.699 227.098 321.063 226.905 321.442C226.771 321.701 226.653 321.968 226.551 322.241Z" fill="#CF9B5B"/>
<path d="M143.499 362.455L145.416 325.432H127.294L129.21 362.455H143.499Z" fill="#FAFEFF"/>
<path d="M130.836 360.716L129.154 327.171H143.556L141.873 360.716H130.836Z" fill="#B4EFF9"/>
<path d="M129.706 335.375L130.836 360.716H141.873L143.004 335.375H129.706Z" fill="#75D9EF"/>
<g opacity="0.5">
<path opacity="0.5" d="M132.001 357.096H135.013L133.233 330.666C132.868 327.472 129.883 327.298 130.353 330.939L132.001 357.096Z" fill="white"/>
</g>
<path d="M169.23 367.519H85.2659V372.777H169.23V367.519Z" fill="#282C2D"/>
<path d="M162.137 362.294H86.0801V366.512H162.137V362.294Z" fill="#D6D6D6"/>
<path d="M166.091 365.507H82.127V367.52H166.091V365.507Z" fill="#525252"/>
<path d="M160.575 363.912H87.6421V364.347H160.575V363.912Z" fill="#A5A5AF"/>
<path d="M160.575 364.855H87.6421V365.29H160.575V364.855Z" fill="#A5A5AF"/>
<path d="M160.575 362.926H87.6421V363.361H160.575V362.926Z" fill="#A5A5AF"/>
<path d="M498.978 363.184H464.303V371.788H498.978V363.184Z" fill="#F1F2F2"/>
<path d="M498.979 363.184H488.036V371.788H498.979V363.184Z" fill="#A7A9AC"/>
<path d="M496.837 363.184H462.162V364.172H496.837V363.184Z" fill="#A7A9AC"/>
<path d="M496.837 370.8H462.162V371.788H496.837V370.8Z" fill="#A7A9AC"/>
<path d="M534.226 363.184H488.977V371.788H534.226V363.184Z" fill="#383838"/>
<path d="M518.049 365.185H493.841V369.788H518.049V365.185Z" fill="#A7A9AC"/>
<path d="M516.745 365.432H495.145V369.539H516.745V365.432Z" fill="#E6E7E8"/>
<path d="M527.912 369.795C529.474 369.795 530.74 368.763 530.74 367.49C530.74 366.217 529.474 365.185 527.912 365.185C526.35 365.185 525.084 366.217 525.084 367.49C525.084 368.763 526.35 369.795 527.912 369.795Z" fill="#A7A9AC"/>
<path d="M486.142 364.75H466.366V365.62H486.142V364.75Z" fill="#A7A9AC"/>
<path d="M486.142 368.1H466.366V368.969H486.142V368.1Z" fill="#A7A9AC"/>
<path d="M486.142 369.353H466.366V370.222H486.142V369.353Z" fill="#A7A9AC"/>
<path d="M484.888 366.674H472.566V367.543H484.888V366.674Z" fill="#A7A9AC"/>
<path d="M471.576 366.674H466.366V367.543H471.576V366.674Z" fill="#A7A9AC"/>
<path d="M492.449 354.784H457.774V363.388H492.449V354.784Z" fill="#F1F2F2"/>
<path d="M492.449 354.784H481.506V363.388H492.449V354.784Z" fill="#A7A9AC"/>
<path d="M490.308 354.784H455.633V355.773H490.308V354.784Z" fill="#A7A9AC"/>
<path d="M490.308 362.4H455.633V363.388H490.308V362.4Z" fill="#A7A9AC"/>
<path d="M527.697 354.784H482.448V363.388H527.697V354.784Z" fill="#58595B"/>
<path d="M511.52 356.785H487.312V361.388H511.52V356.785Z" fill="#A7A9AC"/>
<path d="M510.216 357.033H488.616V361.14H510.216V357.033Z" fill="#E6E7E8"/>
<path d="M521.383 361.396C522.945 361.396 524.211 360.364 524.211 359.091C524.211 357.818 522.945 356.786 521.383 356.786C519.821 356.786 518.555 357.818 518.555 359.091C518.555 360.364 519.821 361.396 521.383 361.396Z" fill="#A7A9AC"/>
<path d="M479.614 356.35H459.838V357.219H479.614V356.35Z" fill="#A7A9AC"/>
<path d="M479.614 359.7H459.838V360.569H479.614V359.7Z" fill="#A7A9AC"/>
<path d="M479.614 360.954H459.838V361.824H479.614V360.954Z" fill="#A7A9AC"/>
<path d="M478.358 358.275H466.036V359.144H478.358V358.275Z" fill="#A7A9AC"/>
<path d="M465.048 358.275H459.838V359.144H465.048V358.275Z" fill="#A7A9AC"/>
<path d="M498.978 346.385H464.303V354.989H498.978V346.385Z" fill="#F1F2F2"/>
<path d="M498.979 346.385H488.036V354.989H498.979V346.385Z" fill="#A7A9AC"/>
<path d="M496.837 346.385H462.162V347.373H496.837V346.385Z" fill="#A7A9AC"/>
<path d="M496.837 354.001H462.162V354.989H496.837V354.001Z" fill="#A7A9AC"/>
<path d="M534.226 346.385H488.977V354.989H534.226V346.385Z" fill="#594A42"/>
<path d="M518.049 348.386H493.841V352.989H518.049V348.386Z" fill="#A7A9AC"/>
<path d="M516.745 348.634H495.145V352.741H516.745V348.634Z" fill="#E6E7E8"/>
<path d="M527.912 352.997C529.474 352.997 530.74 351.965 530.74 350.691C530.74 349.417 529.474 348.385 527.912 348.385C526.35 348.385 525.084 349.417 525.084 350.691C525.084 351.965 526.35 352.997 527.912 352.997Z" fill="#A7A9AC"/>
<path d="M486.142 347.952H466.366V348.821H486.142V347.952Z" fill="#A7A9AC"/>
<path d="M486.142 351.301H466.366V352.171H486.142V351.301Z" fill="#A7A9AC"/>
<path d="M486.142 352.554H466.366V353.424H486.142V352.554Z" fill="#A7A9AC"/>
<path d="M484.888 349.875H472.566V350.744H484.888V349.875Z" fill="#A7A9AC"/>
<path d="M471.576 349.875H466.366V350.744H471.576V349.875Z" fill="#A7A9AC"/>
<path d="M537.221 371.557L539.138 343.076H521.016L522.932 371.557H537.221Z" fill="#FAFEFF"/>
<path d="M524.558 369.818L522.875 344.815H537.278L535.595 369.818H524.558Z" fill="#B4EFF9"/>
<path d="M523.427 353.02L524.558 369.818H535.595L536.726 353.02H523.427Z" fill="#75D9EF"/>
<g opacity="0.5">
<path opacity="0.5" d="M525.722 366.196H528.734L526.954 348.308C526.589 345.114 523.603 344.94 524.074 348.582L525.722 366.196Z" fill="white"/>
</g>
<path d="M171.236 342.626C171.614 345.742 172.829 348.697 174.751 351.178C176.673 353.659 179.232 355.573 182.154 356.717C182.175 356.723 182.198 356.721 182.218 356.712C182.238 356.702 182.254 356.686 182.262 356.665C182.271 356.645 182.271 356.622 182.264 356.601C182.257 356.58 182.242 356.563 182.223 356.552C176.464 353.84 172.195 349.097 171.389 342.625C171.377 342.525 171.224 342.525 171.236 342.625V342.626Z" fill="#81553A"/>
<path d="M181.65 333.066C183.304 336.846 183.814 341.027 183.117 345.094C182.42 349.16 180.545 352.933 177.726 355.945C177.708 355.963 177.698 355.987 177.698 356.012C177.698 356.037 177.708 356.061 177.726 356.079C177.744 356.097 177.768 356.107 177.793 356.107C177.818 356.107 177.842 356.097 177.86 356.079C180.762 353.074 182.689 349.262 183.387 345.143C184.084 341.024 183.521 336.79 181.77 332.997C181.734 332.915 181.615 332.986 181.65 333.067V333.066Z" fill="#81553A"/>
<path d="M198.29 336.636C201.39 340.577 199.65 345.118 197.69 349.136C195.959 352.682 192.435 354.349 189.001 355.844C188.974 355.859 188.953 355.884 188.943 355.914C188.933 355.944 188.934 355.976 188.946 356.005C188.959 356.034 188.982 356.057 189.01 356.07C189.039 356.083 189.071 356.085 189.101 356.076C193.506 354.512 196.81 352.062 198.629 347.714C200.253 343.834 201.284 340.042 198.441 336.491C198.356 336.385 198.211 336.535 198.293 336.639L198.29 336.636Z" fill="#81553A"/>
<path d="M196.495 349.196C197.938 349.422 199.416 349.25 200.769 348.697C202.121 348.144 203.296 347.231 204.167 346.058C204.174 346.038 204.175 346.016 204.169 345.996C204.163 345.976 204.151 345.958 204.134 345.945C204.117 345.932 204.097 345.925 204.075 345.924C204.054 345.924 204.033 345.93 204.016 345.942C203.103 347.02 201.947 347.865 200.643 348.407C199.339 348.95 197.924 349.175 196.516 349.063C196.5 349.063 196.484 349.07 196.472 349.08C196.46 349.091 196.453 349.106 196.451 349.122C196.448 349.138 196.452 349.154 196.461 349.168C196.469 349.181 196.483 349.191 196.498 349.196H196.495Z" fill="#81553A"/>
<path d="M188.47 334.407C187.988 338.657 186.824 345.972 182.524 348.068C182.503 348.08 182.487 348.1 182.479 348.123C182.471 348.146 182.472 348.171 182.481 348.194C182.491 348.216 182.508 348.234 182.53 348.245C182.552 348.256 182.578 348.258 182.601 348.251C187.139 346.566 188.23 338.451 188.63 334.407C188.64 334.307 188.482 334.307 188.471 334.407H188.47Z" fill="#81553A"/>
<path d="M163.415 340.378C163.729 342.763 164.924 344.943 166.766 346.491C168.607 348.038 170.961 348.84 173.364 348.739C173.381 348.739 173.398 348.732 173.41 348.72C173.422 348.708 173.429 348.691 173.429 348.674C173.429 348.657 173.422 348.64 173.41 348.628C173.398 348.616 173.381 348.609 173.364 348.609C171.011 348.628 168.729 347.806 166.93 346.289C165.131 344.772 163.934 342.662 163.555 340.34C163.539 340.248 163.402 340.288 163.416 340.378H163.415Z" fill="#81553A"/>
<path d="M203.527 351.884H167.58C167.58 351.884 164.665 358.904 164.665 360.639C164.665 362.374 168.636 365.925 172.911 365.925H198.196C202.471 365.925 206.442 362.373 206.442 360.639C206.442 358.905 203.527 351.884 203.527 351.884Z" fill="#FFD04D"/>
<path d="M199.705 367.731H171.401L172.391 365.925H198.716L199.705 367.731Z" fill="#EFAF11"/>
<path d="M175.592 360.639C175.592 358.905 178.506 351.884 178.506 351.884H167.58C167.58 351.884 164.665 358.904 164.665 360.639C164.665 362.374 168.636 365.925 172.911 365.925H183.838C179.559 365.925 175.592 362.373 175.592 360.639Z" fill="#EFAF11"/>
<g style="mix-blend-mode:multiply" opacity="0.55">
<path d="M172.391 365.925L171.402 367.731H182.329L183.318 365.925H172.391Z" fill="#EFAF11"/>
</g>
<path d="M184.209 338.818C185.026 338.179 188.247 337.037 190.398 338.395C191.67 339.158 192.74 340.215 193.519 341.477C194.297 342.74 194.76 344.171 194.87 345.65C192.923 346.099 190.925 346.29 188.928 346.218C182.199 345.69 182.693 340.003 184.209 338.818Z" fill="#709E3E"/>
<path d="M200.59 335.237C201.133 334.771 203.316 333.881 204.842 334.748C205.743 335.233 206.514 335.927 207.091 336.772C207.667 337.618 208.032 338.589 208.155 339.605C206.828 339.976 205.457 340.172 204.079 340.186C199.425 340.037 199.583 336.103 200.59 335.237Z" fill="#709E3E"/>
<path d="M199.114 332.916C198.648 332.7 198.135 332.607 197.622 332.645C197.11 332.683 196.616 332.85 196.187 333.132C195.642 333.581 195.213 334.153 194.935 334.801C194.657 335.449 194.537 336.154 194.587 336.858C195.529 336.939 196.477 336.895 197.408 336.727C200.52 336.025 199.904 333.373 199.114 332.916Z" fill="#709E3E"/>
<path d="M167.146 336.256C166.435 335.923 165.643 335.802 164.866 335.91C164.422 335.993 164.003 336.173 163.636 336.436C163.269 336.699 162.965 337.04 162.744 337.433C162.523 337.827 162.391 338.264 162.358 338.714C162.324 339.164 162.389 339.616 162.549 340.038C162.789 340.46 163.136 340.811 163.554 341.056C163.972 341.302 164.448 341.434 164.933 341.438C166.77 341.669 168.971 340.231 170.801 339.638C169.983 338.143 168.7 336.955 167.146 336.256V336.256Z" fill="#709E3E"/>
<path d="M171.92 340.99C171.54 341.184 171.217 341.473 170.982 341.83C170.747 342.186 170.609 342.597 170.581 343.023C170.683 343.54 170.965 344.005 171.376 344.334C171.788 344.664 172.303 344.837 172.83 344.823C173.883 344.873 177.643 343.845 179.246 344.668C176.459 339.385 173.64 339.902 171.92 340.99Z" fill="#709E3E"/>
<path d="M203.62 342.832C203.292 342.96 203 343.166 202.769 343.433C202.538 343.699 202.375 344.017 202.295 344.36C202.256 344.779 202.371 345.198 202.617 345.54C202.863 345.882 203.225 346.123 203.635 346.219C204.397 346.419 207.324 346.094 208.357 347.027C208.359 343.022 205.064 342.16 203.62 342.832Z" fill="#709E3E"/>
<path d="M183.623 347.996C184.48 347.749 187.723 347.467 189.064 349.204C191.514 352.372 189.408 355.104 189.136 356.07C187.413 355.814 185.73 355.342 184.126 354.663C178.805 352.151 180.708 348.442 183.623 347.996Z" fill="#709E3E"/>
<path d="M171.881 348.562C171.1 348.3 168.458 348.338 167.364 350.016C166.702 351.031 166.28 352.183 166.13 353.385C165.979 354.587 166.104 355.807 166.495 356.954C168.011 356.744 169.488 356.317 170.882 355.686C175.48 353.335 173.329 349.049 171.881 348.562Z" fill="#709E3E"/>
<path d="M180.45 332.74C180.854 332.802 181.237 332.962 181.565 333.206C181.893 333.45 182.156 333.771 182.332 334.14C182.474 334.608 182.443 335.112 182.244 335.56C182.045 336.007 181.691 336.367 181.248 336.575C180.425 336.987 177.004 337.352 176.048 338.664C176.174 332.846 178.639 332.34 180.45 332.74Z" fill="#709E3E"/>
<g opacity="0.62">
<path opacity="0.62" d="M162.393 338.413C165.24 338.193 168.096 338.69 170.701 339.859C170.745 339.878 170.783 339.815 170.739 339.794C168.135 338.577 165.254 338.079 162.393 338.351C162.354 338.351 162.353 338.416 162.393 338.413V338.413Z" fill="#93BC6C"/>
<path opacity="0.62" d="M163.386 337.751C164.433 337.42 165.537 337.307 166.63 337.419C167.723 337.531 168.781 337.865 169.74 338.401C169.748 338.405 169.758 338.406 169.767 338.404C169.776 338.401 169.784 338.395 169.789 338.387C169.794 338.378 169.795 338.369 169.793 338.359C169.791 338.35 169.785 338.342 169.777 338.337C168.827 337.752 167.757 337.39 166.647 337.279C165.537 337.168 164.417 337.31 163.37 337.695C163.364 337.698 163.359 337.703 163.356 337.709C163.353 337.715 163.353 337.722 163.355 337.729C163.356 337.735 163.36 337.741 163.366 337.745C163.371 337.749 163.378 337.75 163.385 337.75V337.75L163.386 337.751Z" fill="#93BC6C"/>
<path opacity="0.62" d="M162.911 338.78C163.811 340.765 167.065 340.493 168.779 340.041C168.793 340.037 168.805 340.027 168.813 340.015C168.82 340.002 168.822 339.986 168.818 339.972C168.814 339.958 168.804 339.946 168.791 339.938C168.779 339.931 168.763 339.929 168.749 339.933C167.083 340.345 163.863 340.659 162.969 338.746C162.95 338.706 162.893 338.741 162.91 338.78H162.911Z" fill="#93BC6C"/>
<path opacity="0.62" d="M171.386 341.773C172.697 341.208 174.171 341.149 175.523 341.609C176.874 342.069 178.007 343.014 178.701 344.262C178.705 344.269 178.712 344.274 178.72 344.277C178.728 344.279 178.736 344.278 178.743 344.273C178.751 344.269 178.756 344.263 178.758 344.255C178.76 344.247 178.759 344.238 178.755 344.231C178.078 342.946 176.935 341.969 175.56 341.501C174.185 341.034 172.683 341.111 171.363 341.717C171.356 341.721 171.351 341.727 171.348 341.734C171.345 341.741 171.345 341.749 171.348 341.757C171.351 341.764 171.357 341.77 171.364 341.773C171.371 341.776 171.38 341.777 171.387 341.774V341.774L171.386 341.773Z" fill="#93BC6C"/>
<path opacity="0.62" d="M171.741 342.136C174.006 342.414 176.217 343.028 178.302 343.958C178.324 343.968 178.344 343.936 178.321 343.925C176.257 342.916 174.027 342.289 171.74 342.073C171.699 342.073 171.7 342.132 171.74 342.136H171.741Z" fill="#93BC6C"/>
<path opacity="0.62" d="M171.015 342.75C173.132 343.979 175.574 344.534 178.015 344.34C178.074 344.335 178.075 344.24 178.015 344.247C175.591 344.391 173.175 343.859 171.037 342.709C171.032 342.707 171.026 342.707 171.02 342.708C171.015 342.71 171.01 342.714 171.007 342.719C171.004 342.724 171.003 342.73 171.004 342.736C171.005 342.741 171.008 342.746 171.013 342.75H171.015Z" fill="#93BC6C"/>
<path opacity="0.62" d="M176.259 338.409C177.482 336.423 179.214 334.801 181.275 333.709C181.287 333.702 181.296 333.69 181.3 333.676C181.303 333.663 181.301 333.648 181.294 333.636C181.287 333.624 181.275 333.615 181.261 333.611C181.248 333.608 181.233 333.61 181.221 333.617C179.096 334.646 177.343 336.309 176.202 338.377C176.2 338.381 176.198 338.385 176.198 338.389C176.197 338.393 176.197 338.397 176.199 338.402C176.201 338.41 176.206 338.417 176.214 338.421C176.221 338.426 176.23 338.427 176.238 338.425C176.246 338.423 176.254 338.417 176.258 338.41L176.259 338.409Z" fill="#93BC6C"/>
<path opacity="0.62" d="M178.401 337.396C180.081 336.749 181.469 335.516 182.311 333.925C182.315 333.915 182.316 333.904 182.313 333.894C182.31 333.884 182.303 333.875 182.293 333.87C182.284 333.865 182.273 333.863 182.263 333.865C182.252 333.867 182.243 333.873 182.237 333.882C181.363 335.423 180.011 336.638 178.386 337.343C178.353 337.357 178.367 337.411 178.401 337.397V337.396Z" fill="#93BC6C"/>
<path opacity="0.62" d="M176.312 336.996C176.594 335.948 177.201 335.016 178.045 334.333C178.889 333.651 179.928 333.253 181.012 333.196C181.023 333.194 181.033 333.189 181.041 333.18C181.048 333.172 181.052 333.161 181.052 333.15C181.052 333.138 181.048 333.127 181.041 333.119C181.033 333.11 181.023 333.105 181.012 333.103C179.901 333.137 178.832 333.534 177.97 334.235C177.108 334.936 176.5 335.901 176.24 336.981C176.237 336.99 176.238 337 176.243 337.008C176.248 337.016 176.255 337.022 176.264 337.025C176.273 337.027 176.283 337.026 176.291 337.021C176.299 337.017 176.305 337.009 176.308 337L176.312 336.996Z" fill="#93BC6C"/>
<path opacity="0.62" d="M194.959 336.93C195.876 335.471 197.155 334.275 198.672 333.458C198.684 333.451 198.693 333.439 198.697 333.425C198.7 333.412 198.698 333.397 198.691 333.385C198.684 333.373 198.672 333.364 198.658 333.36C198.645 333.357 198.63 333.359 198.618 333.366C197.037 334.121 195.737 335.357 194.903 336.897C194.901 336.901 194.899 336.905 194.899 336.909C194.898 336.913 194.898 336.918 194.899 336.922C194.902 336.93 194.907 336.937 194.914 336.942C194.922 336.946 194.931 336.947 194.939 336.945C194.947 336.943 194.955 336.937 194.959 336.93V336.93V336.93Z" fill="#93BC6C"/>
<path opacity="0.62" d="M196.537 336.181C197.786 335.709 198.819 334.794 199.437 333.61C199.441 333.6 199.442 333.589 199.439 333.579C199.436 333.569 199.429 333.56 199.419 333.555C199.41 333.55 199.399 333.548 199.389 333.55C199.378 333.552 199.369 333.558 199.363 333.567C198.712 334.701 197.716 335.597 196.521 336.127C196.488 336.141 196.502 336.195 196.536 336.181H196.537Z" fill="#93BC6C"/>
<path opacity="0.62" d="M194.997 335.884C195.209 335.111 195.658 334.424 196.281 333.921C196.904 333.417 197.67 333.122 198.47 333.078C198.481 333.076 198.491 333.071 198.499 333.062C198.506 333.054 198.51 333.043 198.51 333.031C198.51 333.02 198.506 333.009 198.499 333.001C198.491 332.992 198.481 332.987 198.47 332.985C197.645 333.007 196.85 333.301 196.209 333.822C195.569 334.343 195.119 335.061 194.929 335.865C194.928 335.869 194.927 335.874 194.928 335.879C194.929 335.883 194.93 335.888 194.932 335.892C194.937 335.9 194.945 335.906 194.954 335.908C194.963 335.911 194.972 335.91 194.98 335.905C194.989 335.901 194.995 335.893 194.997 335.884V335.884Z" fill="#93BC6C"/>
<path opacity="0.62" d="M166.774 356.452C168.269 353.605 170.322 351.089 172.81 349.052C172.815 349.045 172.818 349.037 172.818 349.028C172.818 349.019 172.816 349.011 172.81 349.004C172.805 348.997 172.798 348.992 172.789 348.99C172.781 348.988 172.772 348.989 172.764 348.992C170.177 350.943 168.103 353.493 166.719 356.422C166.701 356.459 166.756 356.492 166.775 356.455L166.774 356.452Z" fill="#93BC6C"/>
<path opacity="0.62" d="M166.459 356.565C166.19 354.783 166.619 352.966 167.656 351.493C168.694 350.019 170.259 349.002 172.027 348.654C172.037 348.651 172.046 348.644 172.051 348.634C172.056 348.625 172.058 348.613 172.055 348.603C172.052 348.592 172.045 348.583 172.036 348.578C172.027 348.572 172.015 348.571 172.005 348.573C170.204 348.905 168.606 349.93 167.555 351.429C166.503 352.928 166.082 354.78 166.383 356.586C166.39 356.637 166.467 356.615 166.46 356.565H166.459Z" fill="#93BC6C"/>
<path opacity="0.62" d="M167.099 356.387C168.723 356.254 170.244 355.538 171.381 354.37C172.518 353.203 173.195 351.664 173.286 350.037C173.286 349.991 173.222 349.994 173.217 350.037C173.091 351.633 172.41 353.134 171.292 354.28C170.175 355.426 168.691 356.145 167.099 356.311C167.051 356.316 167.05 356.393 167.099 356.388V356.387Z" fill="#93BC6C"/>
<path opacity="0.62" d="M182.459 348.679C183.859 349.306 185.095 350.249 186.069 351.434C187.043 352.62 187.728 354.016 188.071 355.511C188.073 355.519 188.079 355.526 188.086 355.531C188.094 355.535 188.102 355.536 188.111 355.534C188.119 355.532 188.126 355.526 188.131 355.519C188.135 355.511 188.136 355.502 188.134 355.494C187.814 353.98 187.133 352.566 186.151 351.371C185.168 350.176 183.912 349.236 182.489 348.629C182.456 348.614 182.426 348.663 182.46 348.679H182.459Z" fill="#93BC6C"/>
<path opacity="0.62" d="M182.841 348.836C185.941 349.297 189.408 350.383 189.271 354.184C189.271 354.195 189.275 354.206 189.283 354.214C189.291 354.222 189.302 354.226 189.313 354.226C189.324 354.226 189.335 354.222 189.343 354.214C189.35 354.206 189.355 354.195 189.355 354.184C189.655 350.344 185.955 349.204 182.855 348.774C182.814 348.768 182.796 348.83 182.838 348.837L182.841 348.836Z" fill="#93BC6C"/>
<path opacity="0.62" d="M182.677 349.358C182.043 352.267 184.946 353.897 187.26 354.715C187.267 354.717 187.275 354.717 187.283 354.714C187.29 354.711 187.295 354.705 187.298 354.698C187.301 354.69 187.302 354.682 187.299 354.675C187.296 354.668 187.291 354.662 187.284 354.658C185.13 353.658 182.122 352.319 182.744 349.376C182.753 349.333 182.687 349.314 182.677 349.358V349.358Z" fill="#93BC6C"/>
<path opacity="0.62" d="M184.003 339.914C184.069 344.137 190.212 345.461 193.503 345.458C193.511 345.458 193.519 345.455 193.524 345.449C193.53 345.444 193.533 345.436 193.533 345.428C193.533 345.42 193.53 345.412 193.524 345.407C193.519 345.401 193.511 345.398 193.503 345.398C190.216 345.28 184.213 344.118 184.037 339.914C184.037 339.909 184.035 339.905 184.032 339.902C184.029 339.899 184.024 339.897 184.02 339.897C184.015 339.897 184.011 339.899 184.008 339.902C184.005 339.905 184.003 339.909 184.003 339.914Z" fill="#93BC6C"/>
<path opacity="0.62" d="M184.817 340.429C187.708 342.482 190.839 344.174 194.141 345.466C194.185 345.483 194.204 345.412 194.161 345.395C190.871 344.095 187.743 342.417 184.84 340.395C184.817 340.379 184.795 340.417 184.818 340.433L184.817 340.429Z" fill="#93BC6C"/>
<path opacity="0.62" d="M184.89 339.763C188.564 340.449 191.88 342.403 194.262 345.283C194.305 345.333 194.374 345.261 194.334 345.211C191.974 342.281 188.618 340.323 184.906 339.711C184.87 339.705 184.854 339.76 184.891 339.766L184.89 339.763Z" fill="#93BC6C"/>
<path opacity="0.62" d="M185.289 338.75C189.959 338.484 193.955 340.243 194.469 345.366C194.47 345.374 194.475 345.382 194.481 345.387C194.487 345.392 194.495 345.395 194.504 345.395C194.512 345.395 194.52 345.392 194.526 345.387C194.532 345.382 194.537 345.374 194.538 345.366C194.529 344.371 194.3 343.39 193.868 342.494C193.436 341.597 192.811 340.807 192.038 340.18C190.086 338.602 187.682 338.52 185.284 338.689C185.245 338.689 185.244 338.753 185.284 338.751L185.289 338.75Z" fill="#93BC6C"/>
<path opacity="0.62" d="M200.123 336.207C200.457 339.227 204.953 339.807 207.332 339.607C207.34 339.607 207.347 339.604 207.353 339.598C207.359 339.593 207.362 339.585 207.362 339.577C207.362 339.569 207.359 339.561 207.353 339.556C207.347 339.55 207.34 339.547 207.332 339.547C204.947 339.624 200.599 339.211 200.156 336.204C200.155 336.2 200.153 336.197 200.15 336.195C200.147 336.192 200.143 336.191 200.139 336.191C200.136 336.191 200.132 336.192 200.129 336.195C200.126 336.197 200.124 336.2 200.123 336.204V336.204V336.207Z" fill="#93BC6C"/>
<path opacity="0.62" d="M200.743 336.531C202.962 337.827 205.329 338.85 207.794 339.578C207.803 339.58 207.812 339.578 207.82 339.573C207.828 339.568 207.834 339.561 207.837 339.552C207.839 339.543 207.838 339.533 207.834 339.525C207.83 339.517 207.823 339.51 207.814 339.507C205.359 338.769 202.995 337.758 200.766 336.493C200.761 336.491 200.755 336.49 200.75 336.492C200.744 336.493 200.74 336.497 200.737 336.502C200.734 336.507 200.733 336.512 200.735 336.518C200.736 336.523 200.739 336.528 200.744 336.531H200.743Z" fill="#93BC6C"/>
<path opacity="0.62" d="M200.77 336.062C203.454 336.343 205.96 337.536 207.87 339.442C207.88 339.451 207.892 339.455 207.905 339.455C207.918 339.454 207.931 339.449 207.94 339.44C207.949 339.431 207.954 339.418 207.955 339.405C207.955 339.392 207.951 339.38 207.942 339.37C206.043 337.412 203.494 336.215 200.775 336.005C200.738 336.005 200.739 336.059 200.775 336.063L200.77 336.062Z" fill="#93BC6C"/>
<path opacity="0.62" d="M201.002 335.327C204.315 334.905 207.319 335.872 208.025 339.487C208.028 339.495 208.033 339.501 208.04 339.505C208.046 339.51 208.055 339.511 208.063 339.51C208.071 339.509 208.078 339.505 208.083 339.5C208.089 339.494 208.092 339.486 208.093 339.478C208.036 338.769 207.817 338.081 207.455 337.469C207.093 336.856 206.596 336.334 206.002 335.942C204.479 335.09 202.689 334.848 200.994 335.266C200.987 335.268 200.98 335.272 200.976 335.279C200.972 335.285 200.97 335.293 200.971 335.3C200.972 335.307 200.976 335.314 200.981 335.319C200.987 335.324 200.994 335.327 201.002 335.327V335.327Z" fill="#93BC6C"/>
<path opacity="0.62" d="M202.352 344.532C202.509 344.801 202.718 345.035 202.968 345.222C203.217 345.409 203.501 345.544 203.803 345.619C204.415 345.777 205.065 345.699 205.688 345.808C206.605 345.982 207.48 346.332 208.263 346.84C208.264 346.84 208.266 346.84 208.267 346.84C208.268 346.839 208.269 346.839 208.27 346.837C208.271 346.836 208.271 346.835 208.271 346.834C208.27 346.832 208.27 346.831 208.269 346.83C207.382 346.23 206.368 345.843 205.307 345.7C204.196 345.565 203.032 345.615 202.39 344.511C202.387 344.506 202.382 344.503 202.377 344.501C202.371 344.5 202.365 344.501 202.36 344.504C202.355 344.506 202.352 344.511 202.351 344.517C202.349 344.522 202.35 344.528 202.353 344.533V344.533L202.352 344.532Z" fill="#93BC6C"/>
<path opacity="0.62" d="M202.753 343.981C203.786 343.994 204.803 344.239 205.728 344.699C206.653 345.158 207.464 345.819 208.099 346.634C208.101 346.636 208.105 346.637 208.108 346.637C208.111 346.637 208.115 346.636 208.117 346.634C208.12 346.632 208.122 346.629 208.123 346.626C208.124 346.622 208.123 346.619 208.122 346.616C207.501 345.778 206.691 345.098 205.758 344.632C204.825 344.165 203.795 343.925 202.752 343.931C202.745 343.931 202.739 343.934 202.734 343.938C202.729 343.943 202.727 343.949 202.727 343.956C202.727 343.963 202.729 343.969 202.734 343.974C202.739 343.978 202.745 343.981 202.752 343.981V343.981H202.753Z" fill="#93BC6C"/>
<path opacity="0.62" d="M203.377 343.619C203.85 343.453 204.352 343.388 204.851 343.429C205.351 343.47 205.836 343.615 206.275 343.856C206.715 344.097 207.098 344.427 207.402 344.826C207.705 345.225 207.921 345.683 208.035 346.171C208.037 346.178 208.042 346.184 208.048 346.188C208.055 346.192 208.062 346.193 208.07 346.191C208.077 346.189 208.083 346.184 208.086 346.177C208.09 346.171 208.091 346.163 208.089 346.156C207.98 345.657 207.766 345.187 207.46 344.778C207.154 344.369 206.764 344.03 206.316 343.785C205.868 343.539 205.372 343.393 204.863 343.355C204.354 343.317 203.842 343.389 203.363 343.566C203.33 343.577 203.344 343.63 203.378 343.619H203.377Z" fill="#93BC6C"/>
</g>
<path d="M163.934 342.23C163.191 341.591 160.262 340.449 158.305 341.808C157.079 342.684 156.053 343.808 155.292 345.109C154.532 346.409 154.055 347.855 153.893 349.353C155.788 349.706 157.722 349.8 159.642 349.631C165.759 349.102 165.312 343.415 163.934 342.23Z" fill="#93BC6C"/>
<path d="M197.888 335.843C197.264 335.411 194.914 334.765 193.515 335.969C192.668 336.697 191.998 337.609 191.556 338.635C191.113 339.66 190.91 340.773 190.962 341.889C192.358 342.091 193.777 342.091 195.173 341.889C199.849 340.996 199.047 336.646 197.888 335.843Z" fill="#93BC6C"/>
<path d="M183.142 329.106C182.814 329.234 182.521 329.44 182.29 329.707C182.059 329.973 181.897 330.292 181.816 330.635C181.778 331.054 181.893 331.473 182.139 331.815C182.385 332.156 182.746 332.397 183.156 332.494C183.918 332.694 186.845 332.369 187.879 333.302C187.88 329.296 184.586 328.434 183.142 329.106Z" fill="#93BC6C"/>
<path d="M196.835 348.296C197.529 347.908 200.304 346.984 201.891 348.146C204.784 350.266 203.579 352.988 203.568 353.854C201.995 354.007 200.409 353.971 198.844 353.746C193.586 352.786 194.383 349.29 196.835 348.296Z" fill="#93BC6C"/>
<path d="M154.259 349.104C155.486 348.348 156.609 347.437 157.601 346.392C159.176 344.847 161.051 343.641 163.109 342.847C163.161 342.827 163.141 342.747 163.085 342.762C159.333 343.917 157.476 347.182 154.211 349.023C154.206 349.026 154.201 349.03 154.197 349.035C154.193 349.04 154.191 349.046 154.189 349.052C154.187 349.058 154.187 349.064 154.188 349.07C154.189 349.077 154.191 349.083 154.194 349.088C154.197 349.093 154.201 349.098 154.206 349.102C154.211 349.106 154.217 349.108 154.223 349.11C154.229 349.112 154.235 349.112 154.241 349.111C154.248 349.11 154.254 349.108 154.259 349.105V349.105V349.104Z" fill="#709E3E"/>
<path d="M154.259 348.696C155.136 347.224 156.105 345.808 157.159 344.457C158.744 342.701 160.617 342.278 162.914 342.357C162.995 342.357 163.014 342.225 162.934 342.212C158.207 341.474 156.345 345.242 154.215 348.667C154.213 348.673 154.213 348.68 154.215 348.686C154.217 348.692 154.221 348.697 154.226 348.7C154.232 348.703 154.239 348.705 154.245 348.703C154.251 348.702 154.257 348.699 154.261 348.694L154.259 348.696Z" fill="#709E3E"/>
<path d="M155.443 349.307C158.99 349.128 164.966 348.389 163.979 343.384C163.974 343.369 163.963 343.356 163.949 343.347C163.936 343.339 163.92 343.335 163.904 343.337C163.888 343.34 163.873 343.347 163.862 343.359C163.851 343.371 163.844 343.386 163.843 343.402C163.861 344.953 163.606 346.571 162.288 347.568C160.528 348.9 157.545 349.068 155.442 349.212C155.382 349.212 155.381 349.312 155.442 349.306L155.443 349.307Z" fill="#709E3E"/>
<path d="M154.628 349.174C156.458 348.574 158.404 348.213 160.17 347.427C161.911 346.652 162.649 345.142 163.525 343.537C163.531 343.526 163.533 343.513 163.53 343.501C163.527 343.489 163.519 343.478 163.508 343.472C163.497 343.466 163.484 343.464 163.472 343.467C163.46 343.47 163.449 343.478 163.443 343.489C162.266 345.439 161.335 346.853 159.108 347.682C157.634 348.231 156.093 348.582 154.608 349.082C154.553 349.101 154.576 349.189 154.632 349.17L154.628 349.174Z" fill="#709E3E"/>
<path d="M182.902 330.213C184.639 330.657 186.222 331.566 187.481 332.843C187.487 332.849 187.495 332.852 187.503 332.852C187.511 332.852 187.519 332.849 187.525 332.843C187.531 332.837 187.534 332.829 187.534 332.821C187.534 332.813 187.531 332.805 187.525 332.799C186.303 331.459 184.69 330.538 182.915 330.167C182.909 330.166 182.903 330.167 182.898 330.17C182.893 330.173 182.889 330.178 182.887 330.184C182.886 330.19 182.886 330.196 182.889 330.201C182.892 330.207 182.896 330.211 182.902 330.213V330.213Z" fill="#709E3E"/>
<path d="M182.227 330.715C182.322 330.951 182.476 331.158 182.675 331.317C182.873 331.476 183.109 331.582 183.36 331.623C184.439 331.982 185.532 332.323 186.633 332.602C186.637 332.603 186.642 332.604 186.647 332.603C186.651 332.602 186.656 332.601 186.66 332.599C186.664 332.596 186.667 332.593 186.67 332.59C186.673 332.586 186.675 332.582 186.676 332.577C186.678 332.573 186.678 332.568 186.678 332.564C186.677 332.559 186.675 332.555 186.673 332.551C186.671 332.547 186.668 332.543 186.664 332.54C186.661 332.537 186.656 332.535 186.652 332.534C185.952 332.279 185.252 332.061 184.538 331.846C183.824 331.631 182.618 331.472 182.32 330.689C182.298 330.631 182.205 330.655 182.226 330.715H182.227Z" fill="#709E3E"/>
<path d="M182.933 329.902C183.916 329.736 184.926 329.918 185.79 330.417C186.654 330.915 187.317 331.699 187.665 332.633C187.681 332.669 187.737 332.643 187.727 332.607C187.414 331.625 186.747 330.794 185.856 330.277C184.965 329.759 183.913 329.592 182.905 329.807C182.839 329.819 182.868 329.917 182.932 329.907L182.933 329.902Z" fill="#709E3E"/>
<path d="M191.464 341.734C193.596 340.307 195.647 338.734 197.693 337.183C197.697 337.18 197.699 337.177 197.7 337.172C197.701 337.168 197.7 337.163 197.698 337.159C197.696 337.155 197.692 337.153 197.688 337.151C197.684 337.15 197.679 337.15 197.675 337.152C195.475 338.478 193.557 340.243 191.441 341.694C191.417 341.711 191.441 341.75 191.464 341.733V341.734Z" fill="#709E3E"/>
<path d="M192.018 341.65C194.381 341.289 197.066 339.818 198.003 337.502C198.004 337.495 198.003 337.487 198 337.481C197.996 337.474 197.991 337.469 197.984 337.466C197.977 337.463 197.969 337.463 197.962 337.465C197.955 337.467 197.949 337.472 197.945 337.478C197.354 338.589 196.508 339.544 195.477 340.265C194.445 340.986 193.257 341.451 192.01 341.623C191.992 341.623 192 341.653 192.017 341.65H192.018Z" fill="#709E3E"/>
<path d="M191.359 341.432C191.939 340.309 192.741 339.315 193.717 338.512C194.692 337.708 195.821 337.11 197.034 336.755C197.042 336.753 197.05 336.747 197.054 336.74C197.058 336.732 197.059 336.723 197.057 336.715C197.055 336.707 197.049 336.7 197.042 336.695C197.034 336.691 197.025 336.69 197.017 336.692C195.78 337.015 194.627 337.603 193.638 338.414C192.65 339.226 191.849 340.241 191.29 341.392C191.286 341.401 191.285 341.411 191.288 341.421C191.291 341.431 191.297 341.439 191.306 341.444C191.315 341.449 191.325 341.451 191.335 341.448C191.345 341.446 191.353 341.44 191.359 341.432V341.432Z" fill="#709E3E"/>
<path d="M192.48 341.736C194.122 341.865 195.761 341.455 197.149 340.568C197.614 340.306 197.972 339.888 198.157 339.387C198.343 338.886 198.345 338.336 198.162 337.834C198.147 337.799 198.09 337.824 198.101 337.86C199.125 340.989 194.511 341.642 192.48 341.693C192.474 341.693 192.469 341.695 192.465 341.699C192.461 341.703 192.458 341.709 192.458 341.714C192.458 341.72 192.461 341.726 192.465 341.73C192.469 341.734 192.474 341.736 192.48 341.736V341.736V341.736Z" fill="#709E3E"/>
<path d="M191.173 340.996C191.864 338.221 193.66 335.962 196.783 336.158C196.845 336.158 196.842 336.07 196.783 336.064C193.655 335.709 191.729 338.219 191.102 340.977C191.1 340.986 191.102 340.996 191.107 341.004C191.112 341.011 191.119 341.017 191.128 341.02C191.137 341.022 191.147 341.021 191.155 341.017C191.163 341.013 191.17 341.006 191.173 340.997V340.996Z" fill="#709E3E"/>
<path d="M197.607 348.596C199.727 349.982 201.622 351.684 203.227 353.643C203.251 353.67 203.289 353.631 203.267 353.603C201.681 351.62 199.776 349.914 197.63 348.557C197.625 348.555 197.619 348.555 197.614 348.557C197.609 348.559 197.605 348.562 197.602 348.567C197.599 348.572 197.598 348.577 197.599 348.582C197.6 348.588 197.603 348.592 197.607 348.596V348.596Z" fill="#709E3E"/>
<path d="M197.865 348.431C199.161 348.618 200.374 349.181 201.353 350.05C202.332 350.92 203.035 352.057 203.374 353.322C203.376 353.33 203.382 353.338 203.39 353.342C203.397 353.346 203.407 353.347 203.415 353.345C203.424 353.343 203.431 353.337 203.435 353.329C203.439 353.322 203.44 353.312 203.438 353.304C203.121 352.016 202.419 350.856 201.425 349.978C200.432 349.099 199.194 348.545 197.877 348.388C197.849 348.388 197.837 348.426 197.865 348.431V348.431Z" fill="#709E3E"/>
<path d="M198.414 348.27C199.09 348.182 199.777 348.235 200.431 348.424C201.086 348.613 201.695 348.935 202.22 349.37C202.633 349.793 202.949 350.3 203.148 350.856C203.347 351.413 203.423 352.005 203.371 352.594C203.371 352.603 203.375 352.612 203.381 352.619C203.388 352.626 203.397 352.629 203.406 352.629C203.416 352.629 203.425 352.626 203.431 352.619C203.438 352.612 203.442 352.603 203.442 352.594C203.513 351.994 203.445 351.386 203.244 350.816C203.044 350.246 202.715 349.729 202.284 349.306C201.75 348.866 201.13 348.542 200.464 348.357C199.797 348.171 199.099 348.128 198.415 348.229C198.39 348.229 198.389 348.272 198.415 348.269L198.414 348.27Z" fill="#709E3E"/>
<path d="M197.408 348.626C195.797 350.92 201.569 353.341 203.049 353.657C203.059 353.658 203.068 353.656 203.077 353.65C203.085 353.645 203.091 353.637 203.093 353.627C203.096 353.618 203.095 353.608 203.091 353.599C203.087 353.59 203.08 353.583 203.071 353.579C201.671 353.188 196.002 350.925 197.458 348.655C197.478 348.623 197.429 348.596 197.408 348.626V348.626Z" fill="#709E3E"/>
<path d="M196.765 348.855C196.537 349.012 196.348 349.218 196.211 349.458C196.073 349.698 195.992 349.966 195.972 350.242C195.952 350.518 195.995 350.794 196.096 351.052C196.197 351.309 196.355 351.54 196.558 351.728C197.805 353.162 200.165 353.669 201.971 353.662C201.983 353.662 201.994 353.657 202.003 353.649C202.011 353.64 202.016 353.629 202.016 353.617C202.016 353.605 202.011 353.594 202.003 353.585C201.994 353.577 201.983 353.572 201.971 353.572C200.852 353.538 199.747 353.321 198.698 352.93C197.345 352.398 194.498 350.422 196.793 348.902C196.796 348.9 196.799 348.898 196.801 348.895C196.803 348.892 196.805 348.889 196.806 348.885C196.806 348.882 196.807 348.878 196.806 348.875C196.806 348.871 196.804 348.868 196.802 348.864C196.801 348.861 196.798 348.859 196.795 348.857C196.792 348.854 196.789 348.853 196.786 348.852C196.782 348.851 196.779 348.851 196.775 348.851C196.772 348.852 196.768 348.853 196.765 348.855V348.855Z" fill="#709E3E"/>
<path d="M113.848 378.908H103.822V576.107H113.848V378.908Z" fill="#4C2311"/>
<path d="M526.437 378.908H516.41V576.107H526.437V378.908Z" fill="#4C2311"/>
<path d="M546.776 373.164H83.481V381.863H546.776V373.164Z" fill="#4C2311"/>
<path d="M551.636 371.425H78.6221V375.324H551.636V371.425Z" fill="#66341B"/>
<path d="M260.791 369.413H160.802V371.425H260.791V369.413Z" fill="#525252"/>
<path d="M256.568 366.816C256.568 366.816 217.043 364.476 211.232 368.555C203.259 364.921 165.023 366.816 165.023 366.816V369.416H256.568V366.816Z" fill="#D6D6D6"/>
<path d="M256.568 368.555C252.777 368.255 248.982 368.01 245.186 367.806C241.39 367.602 237.593 367.406 233.793 367.306C229.993 367.206 226.193 367.171 222.393 367.306C220.493 367.379 218.601 367.497 216.722 367.724C215.784 367.832 214.853 367.987 213.931 368.19C213.023 368.364 212.15 368.691 211.351 369.157L211.251 369.225L211.137 369.177C210.255 368.821 209.34 368.553 208.405 368.377C207.465 368.19 206.511 368.058 205.556 367.942C203.641 367.726 201.713 367.609 199.784 367.529C195.925 367.374 192.057 367.387 188.193 367.463C184.329 367.539 180.463 367.693 176.601 367.888C172.738 368.063 168.877 368.285 165.018 368.554C172.723 367.86 180.449 367.372 188.186 367.173C192.054 367.073 195.926 367.034 199.798 367.165C201.734 367.233 203.669 367.337 205.598 367.543C206.563 367.653 207.527 367.781 208.484 367.965C209.453 368.137 210.402 368.41 211.314 368.781L211.101 368.801C211.948 368.307 212.873 367.962 213.837 367.783C214.774 367.583 215.72 367.432 216.672 367.328C218.572 367.111 220.472 367.005 222.378 366.944C226.186 366.833 229.992 366.891 233.795 367.016C241.407 367.267 248.999 367.811 256.568 368.555Z" fill="#A5A5AF"/>
<path d="M256.568 368.555C252.785 368.453 249.002 368.375 245.219 368.322C241.437 368.248 237.654 368.189 233.871 368.164C230.088 368.139 226.305 368.148 222.525 368.232C220.635 368.277 218.746 368.34 216.861 368.453C215.919 368.512 214.977 368.576 214.043 368.683C213.116 368.758 212.199 368.926 211.306 369.183L211.247 369.203L211.187 369.191C210.253 369.034 209.311 368.934 208.365 368.891C207.413 368.827 206.457 368.791 205.502 368.758C203.59 368.694 201.676 368.664 199.762 368.643C195.934 368.608 192.104 368.621 188.274 368.653L165.296 368.984L176.781 368.593L188.271 368.363C192.101 368.306 195.932 368.263 199.765 368.278C201.681 368.286 203.597 368.304 205.514 368.356C206.472 368.383 207.431 368.413 208.39 368.471C209.358 368.507 210.323 368.607 211.278 368.771L211.159 368.779C212.086 368.517 213.037 368.349 213.998 368.279C214.945 368.179 215.891 368.118 216.838 368.065C218.731 367.965 220.624 367.912 222.518 367.879C226.304 367.819 230.089 367.838 233.874 367.879C237.659 367.92 241.442 368.006 245.225 368.114C249.007 368.24 252.788 368.387 256.568 368.555Z" fill="#A5A5AF"/>
<path d="M404.066 369.413H304.077V371.425H404.066V369.413Z" fill="#525252"/>
<path d="M399.844 366.816C399.844 366.816 360.319 364.476 354.508 368.555C346.535 364.921 308.299 366.816 308.299 366.816V369.416H399.844V366.816Z" fill="#D6D6D6"/>
<path d="M399.844 368.555C396.053 368.255 392.258 368.01 388.462 367.806C384.666 367.602 380.869 367.406 377.069 367.306C373.269 367.206 369.469 367.171 365.669 367.306C363.769 367.379 361.877 367.497 359.998 367.724C359.06 367.832 358.129 367.987 357.207 368.19C356.298 368.364 355.426 368.691 354.627 369.157L354.527 369.225L354.413 369.177C353.531 368.821 352.616 368.553 351.682 368.377C350.741 368.19 349.788 368.058 348.832 367.942C346.918 367.726 344.989 367.609 343.06 367.529C339.201 367.374 335.333 367.387 331.469 367.463C327.605 367.539 323.74 367.693 319.878 367.888C316.011 368.063 312.15 368.285 308.294 368.554C315.999 367.86 323.725 367.372 331.462 367.173C335.33 367.073 339.202 367.034 343.074 367.165C345.01 367.233 346.945 367.337 348.874 367.543C349.839 367.653 350.803 367.781 351.761 367.965C352.73 368.137 353.679 368.411 354.591 368.781L354.378 368.801C355.225 368.307 356.15 367.962 357.114 367.783C358.051 367.583 358.997 367.432 359.949 367.328C361.849 367.111 363.749 367.005 365.654 366.944C369.462 366.833 373.268 366.891 377.071 367.016C384.683 367.267 392.274 367.811 399.844 368.555Z" fill="#A5A5AF"/>
<path d="M399.844 368.555C396.061 368.453 392.278 368.375 388.495 368.322C384.712 368.248 380.929 368.189 377.146 368.164C373.363 368.139 369.58 368.148 365.8 368.232C363.91 368.277 362.021 368.34 360.136 368.453C359.194 368.512 358.252 368.576 357.318 368.683C356.391 368.758 355.474 368.926 354.581 369.183L354.522 369.203L354.462 369.191C353.528 369.034 352.586 368.934 351.64 368.891C350.688 368.827 349.732 368.791 348.777 368.758C346.866 368.694 344.951 368.664 343.037 368.643C339.209 368.608 335.379 368.621 331.549 368.653L308.57 368.984L320.059 368.588L331.549 368.358C335.38 368.301 339.21 368.258 343.043 368.273C344.959 368.281 346.875 368.299 348.792 368.351C349.751 368.378 350.709 368.408 351.668 368.466C352.636 368.502 353.601 368.602 354.556 368.766L354.438 368.774C355.365 368.512 356.316 368.344 357.277 368.274C358.223 368.174 359.17 368.113 360.116 368.06C362.009 367.96 363.903 367.907 365.796 367.874C369.582 367.814 373.368 367.833 377.152 367.874C380.936 367.915 384.72 368.001 388.502 368.109C392.282 368.238 396.063 368.387 399.844 368.555Z" fill="#A5A5AF"/>
<path d="M452.191 540.283L453.854 550.265H461.466L464.741 549.704L462.344 534.191L452.191 540.283Z" fill="#FFE1BD"/>
<path d="M463.38 537.425C462.652 537.761 461.88 538.055 461.08 538.335C457.854 539.32 454.556 540.05 451.216 540.517C442.116 525.587 418.503 452.863 418.503 452.863C416.332 443.676 430.128 455.439 435.871 455.089C437.671 454.95 439.479 455.213 441.165 455.859C446.655 458.184 454.708 473.715 454.708 473.715C454.708 473.715 457.159 479.079 459.722 490.171C462.285 501.263 463.38 537.425 463.38 537.425Z" fill="#1A1A47"/>
<path opacity="0.54" d="M463.38 537.425C462.652 537.761 461.88 538.055 461.08 538.335C460.506 533.909 459.652 526.851 458.391 515.604C455.576 490.395 439.596 461.53 435.87 455.088C437.67 454.949 439.478 455.212 441.164 455.858C446.654 458.183 454.707 473.714 454.707 473.714C454.707 473.714 457.158 479.078 459.721 490.17C462.284 501.262 463.38 537.425 463.38 537.425Z" fill="#3D3D72"/>
<path d="M453.359 548.812C455.333 548.827 457.297 548.526 459.176 547.919C461.009 547.242 462.679 546.186 464.076 544.819C464.076 544.819 472.155 549.752 472.144 558.61C472.14 558.838 472.067 559.059 471.935 559.244C471.804 559.429 471.619 559.571 471.405 559.649C471.405 559.649 452.033 568.255 445.369 570.609C441.859 571.728 438.29 572.651 434.678 573.374C434.459 573.444 434.221 573.43 434.011 573.336C433.801 573.241 433.634 573.073 433.54 572.863C433.19 571.963 433.016 570.385 434.992 568.869C437.992 566.569 441.279 564.686 443.558 562.778C445.837 560.87 448.166 555.609 450.011 554.112C451.569 552.666 452.723 550.84 453.359 548.812V548.812Z" fill="#1A1A47"/>
<path d="M493.484 592.848L496.313 441.617H486.251L489.08 592.848C489.113 594.382 490.099 595.625 491.28 595.625C492.461 595.625 493.45 594.382 493.484 592.848Z" fill="#723E24"/>
<path d="M401.03 575.157L459.459 435.64L450.108 431.928L396.938 573.528C396.403 574.966 396.861 576.485 397.96 576.922C399.059 577.359 400.433 576.571 401.03 575.157Z" fill="#723E24"/>
<path d="M581.534 575.157L523.106 435.64L532.457 431.928L585.627 573.528C586.162 574.966 585.705 576.485 584.606 576.922C583.507 577.359 582.131 576.571 581.534 575.157Z" fill="#723E24"/>
<g style="mix-blend-mode:multiply" opacity="0.3">
<g style="mix-blend-mode:multiply" opacity="0.3">
<path d="M448.484 436.252L454.434 438.614L399.514 576.814C400.202 576.463 400.741 575.875 401.03 575.158L459.459 435.64L450.108 431.928L448.484 436.252Z" fill="black"/>
</g>
<g style="mix-blend-mode:multiply" opacity="0.3">
<path d="M486.326 445.596H493.826L491.021 595.589C491.108 595.608 491.197 595.62 491.286 595.624C492.469 595.624 493.454 594.381 493.486 592.847L496.315 441.616H486.251L486.326 445.596Z" fill="black"/>
</g>
<g style="mix-blend-mode:multiply" opacity="0.3">
<path d="M585.627 573.533L532.457 431.933L523.106 435.645L524.181 438.211L529.967 435.911L582.832 576.696C583.089 576.869 583.384 576.98 583.692 577.019C584 577.058 584.312 577.025 584.605 576.922C585.705 576.49 586.159 574.97 585.627 573.533Z" fill="black"/>
</g>
</g>
<path d="M420.419 364.896H327.971L309.671 307.359C309.457 306.686 309.404 305.971 309.518 305.273C309.632 304.576 309.909 303.915 310.326 303.345C310.743 302.774 311.289 302.31 311.919 301.99C312.549 301.671 313.246 301.504 313.953 301.504H396.971C397.925 301.504 398.853 301.807 399.623 302.37C400.393 302.933 400.964 303.726 401.253 304.635L420.419 364.896Z" fill="white"/>
<path d="M418.924 364.896H330.408L312.279 308.422C312.069 307.758 312.02 307.054 312.134 306.367C312.248 305.68 312.523 305.03 312.937 304.469C313.35 303.909 313.891 303.454 314.513 303.142C315.136 302.831 315.824 302.67 316.52 302.675H395.696C396.637 302.673 397.555 302.969 398.317 303.521C399.079 304.073 399.646 304.853 399.937 305.748L418.924 364.896Z" fill="#E1EDF9"/>
<path d="M363.391 313.35H323.059C322.77 313.35 322.494 313.235 322.29 313.031C322.086 312.827 321.971 312.551 321.971 312.262C321.971 311.973 322.086 311.697 322.29 311.493C322.494 311.289 322.77 311.174 323.059 311.174H363.386C363.675 311.174 363.951 311.289 364.155 311.493C364.359 311.697 364.474 311.973 364.474 312.262C364.474 312.55 364.36 312.826 364.157 313.03C363.954 313.233 363.679 313.349 363.391 313.35Z" fill="#C2E0F2"/>
<path d="M369.636 318.379H324.667C324.378 318.379 324.102 318.264 323.898 318.06C323.693 317.856 323.579 317.58 323.579 317.291C323.579 317.148 323.607 317.007 323.662 316.875C323.716 316.743 323.796 316.623 323.898 316.522C323.999 316.421 324.119 316.341 324.251 316.286C324.383 316.231 324.524 316.203 324.667 316.203H369.636C369.779 316.203 369.92 316.231 370.052 316.286C370.184 316.341 370.304 316.421 370.405 316.522C370.506 316.623 370.586 316.743 370.641 316.875C370.696 317.007 370.724 317.148 370.724 317.291C370.724 317.58 370.609 317.856 370.405 318.06C370.201 318.264 369.924 318.379 369.636 318.379Z" fill="#C2E0F2"/>
<path d="M365.47 323.408H326.303C326.16 323.408 326.018 323.38 325.886 323.325C325.754 323.27 325.635 323.19 325.534 323.089C325.432 322.988 325.352 322.868 325.298 322.736C325.243 322.604 325.215 322.463 325.215 322.32C325.215 322.031 325.329 321.755 325.534 321.551C325.738 321.347 326.014 321.232 326.303 321.232H365.469C365.757 321.232 366.034 321.347 366.238 321.551C366.442 321.755 366.557 322.031 366.557 322.32C366.557 322.608 366.442 322.885 366.239 323.089C366.035 323.293 365.758 323.408 365.47 323.408V323.408Z" fill="#C2E0F2"/>
<path d="M358.942 328.437H327.899C327.61 328.437 327.334 328.322 327.13 328.118C326.926 327.914 326.811 327.638 326.811 327.349C326.811 327.06 326.926 326.784 327.13 326.58C327.334 326.376 327.61 326.261 327.899 326.261H358.942C359.231 326.261 359.507 326.376 359.711 326.58C359.915 326.784 360.03 327.06 360.03 327.349C360.03 327.638 359.915 327.914 359.711 328.118C359.507 328.322 359.231 328.437 358.942 328.437Z" fill="#C2E0F2"/>
<path d="M374.512 333.465H329.543C329.4 333.465 329.259 333.437 329.127 333.382C328.995 333.327 328.875 333.247 328.774 333.146C328.673 333.045 328.593 332.925 328.538 332.793C328.483 332.661 328.455 332.52 328.455 332.377C328.455 332.088 328.57 331.812 328.774 331.608C328.978 331.404 329.255 331.289 329.543 331.289H374.512C374.801 331.289 375.077 331.404 375.281 331.608C375.485 331.812 375.6 332.088 375.6 332.377C375.6 332.52 375.572 332.661 375.518 332.793C375.463 332.926 375.383 333.046 375.282 333.147C375.181 333.248 375.061 333.328 374.929 333.382C374.797 333.437 374.655 333.465 374.512 333.465V333.465Z" fill="#C2E0F2"/>
<path d="M370.319 338.496H331.153C331.01 338.496 330.869 338.468 330.737 338.413C330.605 338.358 330.485 338.278 330.384 338.177C330.283 338.076 330.202 337.956 330.148 337.824C330.093 337.692 330.065 337.551 330.065 337.408C330.065 337.265 330.093 337.124 330.148 336.992C330.202 336.86 330.283 336.74 330.384 336.639C330.485 336.538 330.605 336.457 330.737 336.403C330.869 336.348 331.01 336.32 331.153 336.32H370.319C370.607 336.32 370.884 336.435 371.088 336.639C371.292 336.843 371.407 337.119 371.407 337.408C371.407 337.697 371.292 337.973 371.088 338.177C370.884 338.381 370.607 338.496 370.319 338.496Z" fill="#C2E0F2"/>
<path d="M379.331 348.552H334.359C334.216 348.552 334.075 348.524 333.943 348.469C333.811 348.415 333.691 348.334 333.59 348.233C333.489 348.132 333.408 348.012 333.354 347.88C333.299 347.748 333.271 347.607 333.271 347.464C333.271 347.321 333.299 347.18 333.354 347.048C333.408 346.916 333.489 346.796 333.59 346.695C333.691 346.594 333.811 346.513 333.943 346.459C334.075 346.404 334.216 346.376 334.359 346.376H379.328C379.471 346.376 379.612 346.404 379.744 346.459C379.876 346.513 379.996 346.594 380.097 346.695C380.198 346.796 380.278 346.916 380.333 347.048C380.388 347.18 380.416 347.321 380.416 347.464V347.464C380.416 347.752 380.302 348.028 380.098 348.232C379.895 348.436 379.619 348.551 379.331 348.552V348.552Z" fill="#C2E0F2"/>
<path d="M380.968 353.581H335.999C335.71 353.581 335.434 353.466 335.23 353.262C335.026 353.058 334.911 352.782 334.911 352.493C334.911 352.204 335.026 351.928 335.23 351.724C335.434 351.52 335.71 351.405 335.999 351.405H380.968C381.111 351.405 381.253 351.433 381.386 351.487C381.518 351.542 381.639 351.622 381.74 351.724C381.842 351.825 381.922 351.945 381.977 352.078C382.031 352.211 382.059 352.353 382.059 352.496V352.496C382.059 352.639 382.03 352.78 381.975 352.912C381.92 353.044 381.839 353.164 381.738 353.264C381.637 353.365 381.517 353.445 381.384 353.499C381.252 353.554 381.111 353.581 380.968 353.581Z" fill="#C2E0F2"/>
<path d="M404.88 353.581H390.359C389.699 353.582 389.056 353.372 388.524 352.982C387.992 352.592 387.598 352.042 387.4 351.413L375.29 313.085C375.142 312.62 375.106 312.127 375.185 311.645C375.264 311.164 375.456 310.708 375.744 310.315C376.032 309.921 376.409 309.601 376.845 309.381C377.28 309.161 377.761 309.046 378.249 309.047H392.775C393.435 309.046 394.077 309.256 394.609 309.646C395.142 310.036 395.535 310.586 395.734 311.215L407.843 349.543C407.991 350.008 408.026 350.502 407.947 350.983C407.868 351.465 407.676 351.921 407.387 352.315C407.099 352.709 406.721 353.028 406.285 353.248C405.85 353.468 405.368 353.582 404.88 353.581V353.581Z" fill="#C2E0F2"/>
<path d="M428.166 369.084H327.632C326.843 369.084 326.087 368.77 325.53 368.213C324.972 367.655 324.659 366.899 324.659 366.11V366.11C324.659 365.321 324.972 364.565 325.53 364.007C326.087 363.45 326.843 363.136 327.632 363.136H428.166C428.955 363.136 429.711 363.449 430.269 364.007C430.827 364.565 431.14 365.321 431.14 366.11V366.11C431.14 366.899 430.827 367.655 430.269 368.213C429.711 368.771 428.955 369.084 428.166 369.084V369.084Z" fill="white"/>
<path d="M457.193 289.585C456.747 289.586 456.309 289.47 455.922 289.247C455.536 289.025 455.215 288.704 454.993 288.317L451.649 282.435C451.482 282.142 451.376 281.819 451.336 281.484C451.297 281.149 451.325 280.81 451.42 280.486C451.514 280.163 451.673 279.862 451.886 279.601C452.099 279.34 452.363 279.124 452.661 278.967L461.97 274.05C462.555 273.744 463.238 273.679 463.87 273.87C464.503 274.061 465.036 274.492 465.354 275.071L468.531 280.904C468.689 281.194 468.789 281.513 468.824 281.842C468.859 282.171 468.829 282.503 468.735 282.82C468.642 283.137 468.486 283.433 468.278 283.69C468.07 283.947 467.814 284.16 467.523 284.318L458.382 289.283C458.017 289.481 457.608 289.585 457.193 289.585V289.585ZM463.142 274.921C462.923 274.921 462.707 274.974 462.514 275.077L453.205 279.993C453.044 280.078 452.902 280.194 452.788 280.334C452.673 280.475 452.587 280.637 452.537 280.812C452.486 280.986 452.47 281.168 452.492 281.349C452.513 281.529 452.57 281.703 452.66 281.861V281.861L456.005 287.743C456.182 288.05 456.472 288.276 456.812 288.373C457.153 288.47 457.519 288.431 457.831 288.263L466.972 283.298C467.288 283.126 467.522 282.836 467.624 282.491C467.725 282.147 467.686 281.776 467.514 281.46L464.338 275.627C464.22 275.413 464.047 275.234 463.837 275.11C463.626 274.986 463.386 274.92 463.142 274.921V274.921Z" fill="#1A1A47"/>
<path d="M419.04 350.396C418.673 350.872 418.282 351.33 417.868 351.766C417.868 351.766 412.994 348.075 411.636 347.727C410.278 347.379 407.389 348.458 405.736 348.551C404.083 348.644 403.95 347.668 403.95 347.668C403.95 347.668 397.659 350.291 396.65 350.535C395.641 350.779 394.955 350.442 395.582 348.841C395.891 348.262 396.282 347.73 396.743 347.263L396.755 347.251C398.902 344.825 403.324 340.951 404.913 340.183C406.944 339.22 409.706 337.816 411.922 338.64C414.138 339.464 421.357 344.872 421.357 344.872C421.57 346.728 420.131 348.996 419.04 350.396Z" fill="#B28249"/>
<path d="M420.538 345.196L419.038 350.396C418.671 350.872 418.28 351.33 417.866 351.766C417.866 351.766 412.992 348.075 411.634 347.727C410.276 347.379 407.387 348.458 405.734 348.551C404.081 348.644 403.948 347.668 403.948 347.668C403.948 347.668 397.657 350.291 396.648 350.535C395.639 350.779 394.953 350.442 395.58 348.841C395.889 348.262 396.28 347.73 396.741 347.263C396.208 348.001 395.616 348.763 395.966 349.701C396.392 350.846 403.143 347.627 408.02 344.686C408.096 344.64 408.488 344.446 408.62 344.673C408.618 344.778 408.592 344.882 408.546 344.976C408.5 345.07 408.434 345.154 408.352 345.22C407.539 346.093 403.452 346.4 404.279 347.704C405.445 349.538 409.641 346.172 411.938 346.926C413.776 347.658 415.515 348.617 417.114 349.781C417.114 349.781 418.437 345.869 420.538 345.196Z" fill="#C0925B"/>
<path d="M417.127 351.768C417.127 351.768 441.038 372.681 458.927 374.809C476.816 376.937 506.992 342.996 506.992 342.996C506.992 342.996 505.092 324.913 493.937 327.039C482.782 329.165 467.826 356.051 461.347 357.309C454.868 358.567 421.177 344.288 421.177 344.288C420.326 345.004 419.618 345.875 419.093 346.855C418.246 348.41 417.587 350.059 417.127 351.768V351.768Z" fill="#0552C6"/>
<path d="M498.482 248.701C491.939 241.211 482.267 240.401 474.801 241.231C469.985 241.706 465.414 243.583 461.654 246.63C457.894 249.677 455.11 253.76 453.648 258.373C452.242 263 452.398 267.962 454.093 272.491C460.186 289.318 466.568 300.053 472.516 303.244C474.786 304.462 479.127 303.65 483.764 302.021C484.058 301.915 484.381 301.919 484.673 302.031C484.965 302.142 485.207 302.355 485.356 302.63L487.313 306.291L504.527 302.568C503.109 299.398 501.974 296.108 501.138 292.738C503.639 289.579 510.459 262.404 498.482 248.701Z" fill="#B28249"/>
<path d="M463.695 272.709C464.732 272.607 465.774 272.837 466.672 273.364C467.57 273.892 468.279 274.69 468.695 275.645C470.11 279.013 472.295 283.725 474.013 285.257C474.294 285.441 474.621 285.54 474.956 285.543C475.292 285.547 475.621 285.453 475.905 285.275C476.183 285.149 476.415 284.94 476.569 284.677C476.724 284.414 476.794 284.11 476.769 283.806C476.303 281.517 475.638 279.273 474.78 277.1C474.507 276.471 474.38 275.789 474.41 275.104C474.44 274.419 474.625 273.75 474.952 273.147C475.279 272.545 475.738 272.024 476.296 271.626C476.854 271.227 477.495 270.961 478.171 270.847C479.107 270.731 480.056 270.79 480.971 271.02C482 273.147 483 273 485.5 277.1C485.428 280.038 494.945 285.888 496.5 286.5C499.5 287.681 505.5 285.194 505.5 281C511 269.719 508.287 263 507.179 257.989C504.935 247.838 496.807 242.105 494.124 241.452C493.085 241.187 492.008 241.1 490.939 241.196C490.535 241.234 490.127 241.188 489.741 241.062C489.355 240.936 488.999 240.732 488.695 240.463C485.99 238.109 480.971 233.354 463.695 240.463C458.125 242.755 447.778 250.947 444.5 256C441.222 261.053 436.233 258.961 444.5 266.5C444.689 270.837 450.362 270.556 452.723 269.8C453.365 269.605 454.047 269.577 454.703 269.719C455.36 269.86 455.969 270.168 456.473 270.611C457.472 271.431 458.628 272.04 459.869 272.4C461.11 272.761 462.412 272.866 463.695 272.709Z" fill="#100F0E"/>
<path d="M486.781 309.047C486.781 309.047 485.3 307.397 485.862 306.388C486.562 305.136 494.114 299.159 502.931 299.473C504.302 299.522 505.977 299.522 507.621 303.1C508.537 304.993 509.219 306.99 509.652 309.048H486.781V309.047Z" fill="#007D87"/>
<path d="M520.34 453.651C519.806 453.779 519.226 453.906 518.622 454.023C511.137 455.416 498.963 455.578 498.963 455.578C474.963 455.149 462.833 432.791 458.934 426.118C458.183 424.873 457.542 423.564 457.019 422.207C458.389 421.476 474.691 412.686 473.819 382.669C473.638 376.449 473.726 362.523 470.628 357.115C468.922 354.144 463.874 348.121 460.706 341.774C458.106 336.551 456.761 331.109 459.606 326.954C466.662 316.591 477.791 311.078 477.791 311.078C477.791 311.078 498.216 302.897 515.612 304.753C526.648 305.913 536.477 311.112 539.1 325.004C545.865 360.781 520.34 453.651 520.34 453.651Z" fill="#045CDF"/>
<path opacity="0.18" d="M480.494 374.812C483.46 404.343 463.356 422.938 458.934 426.118C458.183 424.873 457.542 423.564 457.019 422.207C458.389 421.476 473.719 408.171 473.819 382.669C473.845 376.446 473.726 362.523 470.628 357.115C468.922 354.144 463.874 348.121 460.706 341.774L462.052 341.252L470.245 339.894L474.4 343.283C474.4 343.283 478.573 355.682 480.494 374.812Z" fill="#88B1EF"/>
<path opacity="0.45" d="M520.34 453.651C519.806 453.779 519.226 453.906 518.622 454.023C520.154 445.957 529.85 395.306 533.007 376.936C539.239 340.67 532.752 322.301 529.096 315.72C526.141 310.401 520.451 307.585 515.611 304.753C526.647 305.913 536.476 311.112 539.099 325.004C545.865 360.781 520.34 453.651 520.34 453.651Z" fill="#00B3B7"/>
<path d="M402.589 561.87C400.77 562.584 398.835 562.957 396.881 562.97C393.357 562.97 392.333 561.653 392.333 561.653V553.617L403.942 552.123L402.589 561.87Z" fill="#FFE1BD"/>
<path d="M493.798 449.488C493.728 454.712 492.342 463.045 484.513 465.398C472.833 468.898 464.205 466.911 450.663 464.572C439.319 462.625 409.443 456.194 403.953 454.108C403.794 454.046 403.62 454.028 403.452 454.056C403.283 454.084 403.125 454.157 402.995 454.268C402.864 454.378 402.766 454.522 402.71 454.683C402.654 454.845 402.643 455.019 402.678 455.186C405.269 467.847 407.34 473.319 409.019 492.318C410.43 508.28 404.297 553.461 404.297 553.461C403.028 553.84 401.737 554.14 400.431 554.361C399.694 554.481 398.95 554.548 398.204 554.561C396.033 554.518 393.867 554.336 391.72 554.015C391.72 554.015 379.606 487.476 377.968 460.515C376.33 433.554 378.907 431.328 391.161 425.615C403.415 419.902 458.196 422.015 458.196 422.015L458.21 422.029C458.364 422.505 461.445 430.922 470.535 438.541C477.249 444.081 485.249 447.846 493.798 449.488V449.488Z" fill="#3D3D72"/>
<path d="M460.484 426.668C459.598 425.186 458.837 423.633 458.211 422.024L458.197 422.01C458.197 422.01 457.562 421.986 456.464 421.951C457.695 423.613 459.038 425.189 460.484 426.668V426.668Z" fill="#33305B"/>
<path d="M486.247 447.389C485.147 451.345 482.777 455.2 477.847 456.682C466.167 460.182 457.539 458.195 443.997 455.856C432.653 453.909 402.776 447.478 397.286 445.391C397.127 445.329 396.954 445.311 396.785 445.34C396.617 445.368 396.459 445.441 396.329 445.551C396.198 445.662 396.1 445.805 396.044 445.967C395.988 446.128 395.977 446.302 396.012 446.469C398.603 459.13 400.674 464.602 402.353 483.601C403.453 496.03 402.984 536.548 402.722 553.881C403.639 553.656 404.298 553.46 404.298 553.46C404.298 553.46 410.431 508.279 409.02 492.317C407.34 473.317 405.269 467.846 402.678 455.186C402.643 455.019 402.655 454.845 402.71 454.683C402.766 454.522 402.864 454.378 402.995 454.268C403.125 454.157 403.283 454.084 403.452 454.056C403.62 454.028 403.793 454.045 403.953 454.107C409.443 456.194 439.319 462.625 450.663 464.571C464.206 466.91 472.833 468.899 484.513 465.398C492.342 463.045 493.728 454.712 493.798 449.488C491.237 448.957 488.714 448.256 486.247 447.389V447.389Z" fill="#33305B"/>
<path d="M392.135 560.529C393.979 561.234 395.924 561.639 397.897 561.729C399.852 561.733 401.786 561.324 403.572 560.529C403.572 560.529 409.418 567.974 406.312 576.27C406.229 576.482 406.083 576.664 405.895 576.791C405.706 576.919 405.484 576.986 405.256 576.985H366.051C365.821 576.988 365.599 576.901 365.433 576.742C365.266 576.583 365.169 576.365 365.162 576.135C365.149 575.169 365.537 573.63 367.918 572.901C371.536 571.792 375.271 571.179 378.072 570.187C380.873 569.195 384.894 565.081 387.146 564.322C389.11 563.513 390.83 562.205 392.135 560.529V560.529Z" fill="#1A1A47"/>
<path d="M374.35 364.025C374.35 364.025 370.861 363.113 369.05 362.743C368.409 362.616 367.763 362.521 367.113 362.46C366.346 362.396 365.574 362.42 364.813 362.532L346.069 365.126C345.808 365.158 345.546 365.087 345.337 364.928C345.129 364.768 344.992 364.533 344.955 364.273C344.904 363.915 344.944 363.549 345.071 363.21C345.198 362.871 345.409 362.569 345.683 362.333L347.515 360.756L352.989 356.038C355.7 353.706 357.848 353.289 361.432 353.11C362.735 353.293 364.025 353.555 365.297 353.893C368.97 354.566 369.807 354.993 372.255 355.493C372.93 355.645 373.614 355.754 374.303 355.819C374.574 355.867 374.852 355.856 375.119 355.788C375.907 358.533 375.633 361.474 374.35 364.025V364.025Z" fill="#B28249"/>
<path d="M402.965 365.887C402.954 365.905 402.936 365.919 402.915 365.924C402.894 365.93 402.872 365.928 402.853 365.918C402.373 365.718 399.444 364.518 397.853 363.95C397.265 363.744 396.71 363.588 396.23 363.467C395.391 363.278 394.534 363.175 393.674 363.16H374.859C374.577 363.166 374.305 363.06 374.101 362.865C373.898 362.67 373.78 362.403 373.773 362.121C373.778 361.766 373.87 361.417 374.043 361.107C374.215 360.796 374.461 360.533 374.759 360.34L376.79 359.029C374.869 360.489 374.559 361.588 375.522 361.704C376.292 361.797 378.115 361.595 382.734 360.309C382.834 360.28 382.879 360.443 382.787 360.5C382.552 360.603 382.363 360.79 382.259 361.025C382.154 361.259 382.14 361.524 382.22 361.768C382.3 362.012 382.468 362.217 382.692 362.344C382.915 362.471 383.177 362.51 383.428 362.454C384.204 362.416 387.503 362.207 388.263 362.164C391.213 361.995 395.512 361.717 396.338 361.864C397.782 362.124 399.177 362.607 400.472 363.296C401.28 363.717 402.049 362.796 402.343 361.934C402.809 360.524 403.363 359.146 404.003 357.806C404.265 357.891 404.542 357.919 404.816 357.888C405.211 360.692 404.552 363.542 402.965 365.887V365.887Z" fill="#F4F4F4"/>
<path d="M477.033 320.732C474.553 319.218 467.052 315.052 457.381 330.132C447.71 345.212 439.974 356.532 436.589 358.56C433.204 360.588 424.889 359.14 421.889 359.14C418.889 359.14 375.002 355.716 375.002 355.716C373.781 358.401 372.951 361.246 372.536 364.166C372.536 364.166 412.75 374.71 437.676 374.806C462.602 374.902 481.557 337.187 482.427 332.641C483.297 328.095 482.959 324.351 477.033 320.732Z" fill="#0261F0"/>
<path d="M452.974 285.61C452.842 285.612 452.714 285.569 452.61 285.488C452.506 285.408 452.433 285.294 452.402 285.166C452.371 285.038 452.385 284.903 452.44 284.784C452.496 284.665 452.591 284.568 452.709 284.51L474.333 273.427C476.78 272.173 481.789 269.608 485.507 275.062C485.594 275.189 485.626 275.346 485.598 275.497C485.569 275.648 485.482 275.782 485.354 275.869C485.227 275.955 485.071 275.988 484.92 275.959C484.768 275.931 484.635 275.843 484.548 275.716C481.648 271.461 478.192 272.752 474.903 274.44L453.239 285.54C453.157 285.584 453.067 285.608 452.974 285.61V285.61Z" fill="#1A1A47"/>
<path d="M474.692 274.812L477.303 283.153C477.572 283.42 477.895 283.627 478.25 283.759C478.606 283.891 478.986 283.945 479.364 283.917C479.742 283.89 480.11 283.782 480.443 283.6C480.776 283.418 481.066 283.167 481.293 282.863C483.251 280.609 484.955 272.781 481.365 271.476C477.775 270.171 475.599 272.02 474.692 274.812Z" fill="#B28249"/>
<path d="M572.976 395.602C572.976 353.48 571.985 323.802 545.304 319.334C509.004 313.259 480.604 344.69 486.417 404.913C489.747 439.42 475.597 451.264 463.546 458.003C455.754 462.361 440.671 461.426 440.671 461.426C440.671 461.426 433.685 460.598 428.996 460.156C431.896 461.494 494.052 492.123 538.404 469.492C577.717 449.433 572.976 420.383 572.976 395.602Z" fill="#E8F6F7"/>
<path d="M572.976 395.602C572.976 353.48 571.985 323.802 545.304 319.334C544.022 319.119 542.75 318.957 541.489 318.834C512.404 321.713 493.347 352.344 498.421 404.934C501.751 439.441 487.601 451.284 475.55 458.024C467.758 462.382 452.675 461.447 452.675 461.447C452.675 461.447 452.321 461.336 451.675 461.141C448.02 461.506 444.344 461.602 440.675 461.429C440.675 461.429 433.689 460.601 429 460.159C431.9 461.497 494.056 492.126 538.408 469.495C577.717 449.433 572.976 420.383 572.976 395.602Z" fill="#D0E0E2"/>
</g>
<defs>
<clipPath id="clip0">
<rect width="635.652" height="595.626" fill="white"/>
</clipPath>
</defs>
</svg>
