<svg xmlns="http://www.w3.org/2000/svg" height="661.333" viewBox="0 0 496 496" width="661.333"><path d="M48 160h32v16H48zm424-32c13.23 0 24-10.77 24-24V24c0-13.23-10.77-24-24-24H360c-13.23 0-24 10.77-24 24v80c0 13.23 10.77 24 24 24h24v16h-16v16h40v80h-33.016c-6.383-6.23-14.242-11-23.04-13.625A48.85 48.85 0 0 0 352 224c0-35.3-28.7-64-64-64-21.895 0-42.246 11.4-53.902 29.6-8.2-3.687-17.1-5.6-26.098-5.6-26.55 0-50.457 16.734-59.8 41.28-6.078 1.305-11.742 3.64-16.887 6.72H72v-24h32c13.23 0 24-10.77 24-24V24c0-13.23-10.77-24-24-24H24C10.77 0 0 10.77 0 24v160c0 13.23 10.77 24 24 24h32v40h58.3c-3.402 4.855-6.043 10.215-7.777 16H72v88H40c-13.23 0-24 10.77-24 24v72H0v24c0 13.23 10.77 24 24 24h128c13.23 0 24-10.77 24-24v-24h-16v-72c0-13.23-10.77-24-24-24H88v-72h16c0 30.87 25.13 56 56 56h176c28.152 0 51.457-20.9 55.36-48H424v64h-56v144h128V352h-56v-80h-48.672c-.832-5.633-2.56-10.992-4.977-16H424v-96h40v-16h-16v-16zm-360 0H16V48h96zM24 16h80a8.01 8.01 0 0 1 8 8v8H16v-8a8.01 8.01 0 0 1 8-8zm-8 168v-40h96v40a8.01 8.01 0 0 1-8 8H24a8.01 8.01 0 0 1-8-8zm144 288a8.01 8.01 0 0 1-8 8H24a8.01 8.01 0 0 1-8-8v-8h144zm-16-96v72H32v-72a8.01 8.01 0 0 1 8-8h96a8.01 8.01 0 0 1 8 8zm240 104v-48h96v48zm96-64h-96v-48h96zm-144-96H160c-22.055 0-40-17.945-40-40 0-20.223 15.137-37.28 35.2-39.68l5.25-.633 1.48-5.078C167.848 214.23 186.8 200 208 200c8.832 0 17.504 2.48 25.105 7.16l7.637 4.7 3.8-8.137C252.426 186.88 269.48 176 288 176c26.473 0 48 21.527 48 48 0 2.207-.2 4.56-.633 7.398l-1.207 7.914 7.9 1.2C361.414 243.465 376 260.44 376 280c0 22.055-17.945 40-40 40zm24-304h112a8.01 8.01 0 0 1 8 8v56H352V24a8.01 8.01 0 0 1 8-8zm-8 88v-8h128v8a8.01 8.01 0 0 1-8 8H360a8.01 8.01 0 0 1-8-8zm80 40h-32v-16h32zm0 0"/><path d="M400 384h16v16h-16zm48 64h16v16h-16zm0 0"/><path d="M432 384h32v16h-32zm-32 64h32v16h-32zm0 0"/></svg>