<svg width="381" height="300" viewBox="0 0 381 300" fill="none" xmlns="http://www.w3.org/2000/svg">
<path d="M37.6 199V139.4H98V121H37.6V75.4H104.2V57.2H18V199H37.6ZM145.933 199V54.2H127.133V199H145.933ZM190.114 141C190.914 128.6 200.514 116.4 216.314 116.4C233.314 116.4 242.314 127.2 242.714 141H190.114ZM245.514 166C241.914 176.8 234.114 185.4 218.514 185.4C202.314 185.4 189.914 173.4 189.514 156.2H261.914C262.114 155 262.314 152.6 262.314 150.2C262.314 120.2 245.714 99.8 216.114 99.8C191.914 99.8 170.114 120.4 170.114 150.6C170.114 183.2 192.714 202 218.514 202C240.914 202 256.314 188.6 261.714 171.6L245.514 166Z" fill="black"/>
<path d="M273.113 199H306.513C311.913 190.8 319.313 179 324.713 171L343.113 199H378.713C367.313 183 354.313 164.2 343.113 148.2L377.513 99.6H343.513L326.113 126.8L308.313 99.6H272.513L307.313 149.4L273.113 199Z" fill="#1584EA"/>
<path d="M20.4 287V272.1H35.5V267.5H20.4V256.1H37.05V251.55H15.5V287H20.4ZM73.0391 287V251.55H68.0391V287H73.0391ZM136.203 287V251.55H131.303V278.75L113.603 251.55H107.053V287H111.953V258.1L131.103 287H136.203ZM194.738 287H200.038L185.938 251.55H180.288L166.188 287H171.438L175.188 277.1H190.888L194.738 287ZM182.988 256.65L189.138 272.55H176.938L182.988 256.65ZM259.201 287V251.55H254.301V278.75L236.601 251.55H230.051V287H234.951V258.1L254.101 287H259.201ZM308.536 287.75C316.686 287.75 322.286 283 324.186 276.35L319.836 274.75C318.386 279.6 314.586 283.25 308.536 283.25C302.086 283.25 295.936 278.5 295.936 269.25C295.936 260 302.086 255.3 308.536 255.3C314.336 255.3 318.236 258.3 319.586 263.65L324.136 262.05C322.336 255.2 316.636 250.8 308.536 250.8C299.736 250.8 290.936 257.4 290.936 269.25C290.936 281.1 299.386 287.75 308.536 287.75ZM377.236 287V282.45H360.586V271.6H375.686V267H360.586V256.1H377.236V251.55H355.686V287H377.236Z" fill="#084378"/>
</svg>
