<svg width="113" height="97" viewBox="0 0 113 97" fill="none" xmlns="http://www.w3.org/2000/svg">
<rect x="33" width="80" height="77.4194" rx="15" fill="#FEEFD3"/>
<path d="M73.9375 30.0331V21.1074C73.9375 12.7772 67.1603 6 58.8301 6H17.0625V30.0331L0 41.361V97H91V41.361L73.9375 30.0331ZM85.668 44.2211V46.6928L73.9375 54.4806V36.4333L85.668 44.2211ZM68.5632 20.2188H60.0742V11.414C64.5889 11.9904 68.1499 15.656 68.5632 20.2188ZM17.0625 36.4333V54.481L5.33203 46.693V44.2211L17.0625 36.4333ZM5.33203 53.093L29.9713 69.4512L5.33203 85.8093V53.093ZM6.14748 91.668L44.0253 66.5209C44.9213 65.9262 46.0787 65.926 46.9747 66.5209L84.8525 91.668H6.14748ZM61.0286 69.4512L85.668 53.093V85.8091L61.0286 69.4512Z" fill="#1584EA"/>
<path d="M73.9375 30.0331V21.1074C73.9375 12.7772 67.1603 6 58.8301 6H17.0625V30.0331L0 41.361V97H91V41.361L73.9375 30.0331ZM85.668 44.2211V46.6928L73.9375 54.4806V36.4333L85.668 44.2211ZM68.5632 20.2188H60.0742V11.414C64.5889 11.9904 68.1499 15.656 68.5632 20.2188ZM17.0625 36.4333V54.481L5.33203 46.693V44.2211L17.0625 36.4333ZM5.33203 53.093L29.9713 69.4512L5.33203 85.8093V53.093ZM6.14748 91.668L44.0253 66.5209C44.9213 65.9262 46.0787 65.926 46.9747 66.5209L84.8525 91.668H6.14748ZM61.0287 69.4512L85.668 53.093V85.8091L61.0287 69.4512Z" fill="#1584EA"/>
<path fill-rule="evenodd" clip-rule="evenodd" d="M73.9375 28.7514V19.8258C73.9375 13.6606 70.2253 8.34606 64.9188 6H17.0625V28.7514L16.6621 29.0172V52.9126L33.2357 64.9578L45.8316 57.7352L57.1016 64.9578L74.3382 52.9126V29.0174L73.9375 28.7514Z" fill="#00BFD8"/>
<path d="M59.5 84.5H65.5" stroke="#1584EA" stroke-width="2.8" stroke-linecap="round" stroke-linejoin="round"/>
<circle cx="55.4" cy="84.4" r="1.4" fill="#1584EA"/>
</svg>
