<svg width="90" height="90" viewBox="0 0 90 90" fill="none" xmlns="http://www.w3.org/2000/svg">
<g clip-path="url(#clip0)">
<rect x="30" y="-5" width="80" height="77.4194" rx="15" fill="#FEEFD3"/>
<path fill-rule="evenodd" clip-rule="evenodd" d="M45.9655 1.23837C57.8939 7.5343 70.5297 12.6282 83.5216 16.3783C84.3975 16.6315 85.0002 17.4284 85 18.3341V35.3859C85 43.3447 83.481 50.8975 80.4856 57.8344C77.5049 64.737 73.0598 71.0364 67.2735 76.558C63.1347 80.5071 58.3562 83.9872 53.4547 86.6218C52.5764 87.0939 48.0589 89.4737 45.3723 89.9662C45.2492 89.9886 45.1247 90 45 90C44.8753 90 44.7508 89.9886 44.6277 89.9662C41.9411 89.4737 37.4236 87.0939 36.5453 86.6218C31.6431 83.9872 26.8649 80.5071 22.7265 76.558C16.9402 71.036 12.4949 64.7368 9.51444 57.8344C6.51897 50.8973 5 43.3445 5 35.3859V18.3386C5 17.4317 5.6041 16.6341 6.48143 16.3822C19.4557 12.6565 32.0913 7.5618 44.038 1.23959C44.6402 0.920647 45.3629 0.920036 45.9655 1.23837ZM51.8811 80.2975C54.7147 78.8508 59.0226 76.2672 63.4556 72.1747C70.4476 65.72 78.7823 54.4515 78.7825 37.4237H78.7823V20.9773C67.172 17.8726 55.5365 13.2079 45 7.43283C34.1893 13.3668 23.1157 17.8067 11.2172 20.9778V37.4237C11.2172 54.4515 19.5521 65.72 26.5441 72.1747C30.9773 76.2672 35.2853 78.8508 38.1185 80.2975C41.7091 82.131 44.201 82.7964 44.9998 82.7964C45.7987 82.7964 48.2907 82.1308 51.8811 80.2975Z" fill="#1584EA"/>
<path d="M30.4151 62.9832L30.3799 62.9454C29.7294 62.2326 28.6244 62.1778 27.9062 62.8243C27.1846 63.4736 27.126 64.5851 27.7754 65.3067L27.8105 65.3445C28.157 65.7238 28.632 65.9168 29.109 65.9168C29.5279 65.9168 29.9484 65.7678 30.2843 65.4656C31.0059 64.8163 31.0644 63.7046 30.4151 62.9832Z" fill="#1584EA"/>
<path d="M39.8952 70.9619C37.7777 69.6256 35.7388 68.0854 33.8355 66.3838C33.1118 65.7366 32.0005 65.799 31.3534 66.5227C30.7066 67.2466 30.7688 68.3577 31.4927 69.0047C33.541 70.836 35.7369 72.4947 38.0192 73.935C38.3105 74.1187 38.6348 74.2065 38.9556 74.2065C39.5389 74.2065 40.1094 73.9164 40.4438 73.3866C40.962 72.5655 40.7164 71.4799 39.8952 70.9619Z" fill="#1584EA"/>
<path d="M54.2989 36.7517V30.9648C54.2989 25.8377 50.1276 21.6664 45.0001 21.6664C39.8729 21.6664 35.7016 25.8377 35.7016 30.9648V36.7517C33.6102 36.8271 31.9316 38.5508 31.9316 40.6604V54.1549C31.9315 56.3123 33.6866 58.0673 35.844 58.0673H54.1568C56.3142 58.0673 58.0694 56.3123 58.0694 54.1549V40.6604C58.0694 38.5507 56.3907 36.8268 54.2989 36.7517ZM39.2171 30.9648C39.2171 27.7762 41.8114 25.182 45.0002 25.182C48.1889 25.182 50.7831 27.7762 50.7831 30.9648V36.748H39.2169V30.9648H39.2171ZM54.5536 54.1551C54.5536 54.3702 54.3718 54.5518 54.1567 54.5518H35.8436C35.6285 54.5518 35.4467 54.3702 35.4467 54.1551V40.6606H35.4469C35.4469 40.4454 35.6287 40.2638 35.8438 40.2638H37.4591H52.5409H54.1567C54.3718 40.2638 54.5536 40.4454 54.5536 40.6606V54.1551Z" fill="#00BFD8"/>
<path fill-rule="evenodd" clip-rule="evenodd" d="M34.5 40V55H55.5V38.5L34.5 40ZM42.543 46.3397C42.543 44.986 43.647 43.882 45.0007 43.882C46.3544 43.882 47.4585 44.986 47.4585 46.3397C47.4585 47.0052 47.1908 47.6096 46.7585 48.0529V49.7733C46.7585 50.7439 45.9716 51.5311 45.0007 51.5311C44.0299 51.5311 43.2429 50.7439 43.2429 49.7733V48.0529C42.8107 47.6097 42.543 47.0052 42.543 46.3397Z" fill="#00BFD8"/>
</g>
<defs>
<clipPath id="clip0">
<rect width="90" height="90" fill="white"/>
</clipPath>
</defs>
</svg>
