<svg width="246" height="220" viewBox="0 0 246 220" fill="none" xmlns="http://www.w3.org/2000/svg">
<rect x="126" width="120" height="120" rx="10" fill="#FBB708" fill-opacity="0.2"/>
<path fill-rule="evenodd" clip-rule="evenodd" d="M24.9997 45H175C184.204 45 191.666 52.4619 191.666 61.6667V178.333C191.666 187.538 184.204 195 175 195H24.9997C15.7949 195 8.33301 187.538 8.33301 178.333V61.6667C8.33301 52.4619 15.7949 45 24.9997 45ZM24.9995 61.6667V178.333H175V61.6667H24.9995ZM58.333 161.667H74.9997V111.667H58.333V161.667ZM108.333 161.667H91.6663V78.3333H108.333V161.667ZM125 161.667H141.666V103.333H125V161.667Z" fill="#0261F0"/>
</svg>
