<svg width="222" height="235" viewBox="0 0 222 235" fill="none" xmlns="http://www.w3.org/2000/svg">
<rect x="102" y="0.857147" width="120" height="120" rx="10" fill="#FBB708" fill-opacity="0.2"/>
<path fill-rule="evenodd" clip-rule="evenodd" d="M133.333 51.6667H168.182C176.55 51.6667 183.333 59.1286 183.333 68.3333V101.667H166.667V68.3333H133.333V51.6667ZM16.6667 143.333V126.667H183.333V143.333H16.6667ZM133.333 218.333V201.667H166.667V168.333H183.333V201.667C183.333 210.871 176.55 218.333 168.182 218.333H133.333ZM31.8183 218.333H66.6667V201.667H33.3334V168.333H16.6667V201.667C16.6667 210.871 23.4503 218.333 31.8183 218.333ZM66.6667 68.3333V51.6667H31.8183C23.4503 51.6667 16.6667 59.1286 16.6667 68.3333V101.667H33.3334V68.3333H66.6667Z" fill="#0261F0"/>
</svg>
