<svg xmlns="http://www.w3.org/2000/svg" viewBox="0 0 246 220" width="246" height="220">
	<style>
		tspan { white-space:pre }
		.shp0 { opacity: 0.2;fill: #fbb708 } 
		.shp1 { fill: #717a7f } 
	</style>
	<path id="Layer" class="shp0" d="M136 0L236 0C241.53 0 246 4.47 246 10L246 110C246 115.53 241.53 120 236 120L136 120C130.47 120 126 115.53 126 110L126 10C126 4.47 130.47 0 136 0Z" />
	<path id="Layer" fill-rule="evenodd" class="shp1" d="M25 45L175 45C184.2 45 191.67 52.46 191.67 61.67L191.67 178.33C191.67 187.54 184.2 195 175 195L25 195C15.79 195 8.33 187.54 8.33 178.33L8.33 61.67C8.33 52.46 15.79 45 25 45ZM25 61.67L25 178.33L175 178.33L175 61.67L25 61.67ZM58.33 111.67L75 111.67L75 161.67L58.33 161.67L58.33 111.67ZM108.33 161.67L91.67 161.67L91.67 78.33L108.33 78.33L108.33 161.67ZM125 103.33L141.67 103.33L141.67 161.67L125 161.67L125 103.33Z" />
</svg>