<svg width="208" height="223" viewBox="0 0 208 223" fill="none" xmlns="http://www.w3.org/2000/svg">
<rect x="88" width="120" height="120" rx="10" fill="#FBB708" fill-opacity="0.2"/>
<path fill-rule="evenodd" clip-rule="evenodd" d="M128.755 34.689C137.605 32.1603 146.83 37.2852 149.359 46.1358C149.784 47.6248 150 49.1658 150 50.7144V64.6667H166.667C175.872 64.6667 183.333 72.1286 183.333 81.3333V181.333C183.333 190.538 175.872 198 166.667 198H33.3334C24.1287 198 16.6667 190.538 16.6667 181.333H16.8893C16.7413 180.437 16.6667 179.529 16.6667 178.619V79.2859C16.6667 71.8445 21.5997 65.3048 28.7547 63.2605L128.755 34.689ZM84.5006 181.333H166.667V81.3333H150L150 98H166.667V114.667H150L150 150.048C150 157.489 145.067 164.029 137.912 166.073L84.5006 181.333ZM33.3335 79.2856V178.619L133.333 150.047V50.7142L33.3335 79.2856ZM116.667 98C116.667 102.602 112.936 106.333 108.333 106.333C103.731 106.333 100 102.602 100 98C100 93.3977 103.731 89.6667 108.333 89.6667C112.936 89.6667 116.667 93.3977 116.667 98Z" fill="#0261F0"/>
</svg>
