<svg width="570" height="474" viewBox="0 0 570 474" fill="none" xmlns="http://www.w3.org/2000/svg">
<g clip-path="url(#clip0)">
<path opacity="0.15" d="M287.67 474C443.596 474 570 468.151 570 460.937C570 453.722 443.596 447.873 287.67 447.873C131.743 447.873 5.33936 453.722 5.33936 460.937C5.33936 468.151 131.743 474 287.67 474Z" fill="#2C2A40"/>
<path d="M442.627 347.425H533.113C537.585 347.425 541.21 343.797 541.21 339.322V332.464C541.21 327.989 537.585 324.361 533.113 324.361H442.627C438.155 324.361 434.53 327.989 434.53 332.464V339.322C434.53 343.797 438.155 347.425 442.627 347.425Z" fill="#63676D"/>
<path d="M527.062 182.445L546.631 184.733C549.612 185.082 552.489 186.04 555.086 187.546C557.682 189.053 559.942 191.077 561.725 193.493C563.508 195.909 564.776 198.666 565.452 201.593C566.127 204.519 566.195 207.553 565.651 210.507L546.422 314.959C545.468 320.143 542.68 324.811 538.568 328.107C534.457 331.404 529.297 333.109 524.033 332.912L476.33 331.148C473.114 331.03 469.963 330.204 467.102 328.73C464.241 327.256 461.739 325.17 459.774 322.62C457.808 320.07 456.428 317.118 455.731 313.974C455.034 310.83 455.037 307.571 455.739 304.428L479.198 199.452C480.286 194.584 482.999 190.232 486.889 187.113C490.779 183.995 495.615 182.295 500.6 182.295H524.515C525.366 182.295 526.217 182.346 527.062 182.445V182.445Z" fill="#63676D"/>
<path d="M518.47 197.312L534.169 199.157C536.56 199.436 538.869 200.204 540.952 201.413C543.035 202.622 544.848 204.246 546.278 206.184C547.708 208.122 548.726 210.334 549.268 212.681C549.81 215.029 549.864 217.463 549.428 219.833L533.995 303.627C533.229 307.785 530.994 311.528 527.698 314.172C524.402 316.816 520.265 318.186 516.044 318.03L477.776 316.614C475.196 316.519 472.669 315.856 470.374 314.674C468.078 313.491 466.071 311.818 464.495 309.772C462.918 307.726 461.811 305.358 461.252 302.836C460.692 300.314 460.694 297.7 461.258 295.179L480.078 210.965C480.951 207.061 483.127 203.57 486.248 201.068C489.369 198.566 493.248 197.203 497.247 197.203H516.433C517.114 197.2 517.794 197.236 518.47 197.312V197.312Z" fill="#404348"/>
<path d="M418.041 460.755H426.886L447.964 376.346L455.189 347.425L456.572 341.876L448.293 339.602L446.338 347.425L439.121 376.346L418.041 460.755Z" fill="#63676D"/>
<path d="M439.121 376.346H447.963L455.189 347.425H446.338L439.121 376.346Z" fill="#404348"/>
<path d="M519.597 341.876L520.98 347.425L528.205 376.346L549.278 460.755H558.12L537.048 376.346L529.831 347.425L527.876 339.602L519.597 341.876Z" fill="#63676D"/>
<path d="M520.98 347.425L528.205 376.346H537.048L529.83 347.425H520.98Z" fill="#404348"/>
<path d="M480.402 164.637L475.471 223.649C475.471 223.649 461.431 251.181 452.496 250.509C445.266 249.961 426.801 248.079 417.687 247.135C414.482 246.806 412.432 246.587 412.432 246.587L409.14 232.155C411.089 232.274 413.454 232.353 416.067 232.406C429.941 232.669 450.592 232.155 450.592 232.155C456.155 216.406 480.402 164.637 480.402 164.637Z" fill="#A0BBE7"/>
<path d="M417.685 247.135C414.479 246.806 412.43 246.587 412.43 246.587L409.137 232.155C411.086 232.274 413.452 232.353 416.065 232.406C417.647 237.144 418.2 242.166 417.685 247.135V247.135Z" fill="#A0BBE7"/>
<path d="M409.137 232.155C409.137 232.155 405.218 226.963 403.408 223.834C401.599 220.705 398.306 222.186 400.774 229.601C396.318 228.82 391.776 228.654 387.274 229.108C382.665 230.097 383.323 240.806 388.262 245.583C393.201 250.359 412.433 246.592 412.433 246.592C412.433 246.592 413.22 237.875 409.137 232.155Z" fill="#CF9B5B"/>
<path d="M527.881 299.078C527.881 299.078 523.993 329.029 485.291 325.336C450.758 322.041 456.54 293.527 456.54 293.527C456.54 293.527 504.633 291.426 527.881 299.078Z" fill="#2C2A40"/>
<path d="M543.994 169.25L536.618 228.663L533.913 250.493L527.881 299.072C515.706 302.112 504.209 304.647 493.243 302.13C486.394 300.548 481.034 299.586 470.914 297.807C465.94 297.095 461.098 295.652 456.545 293.524L463.183 257.676L465.014 247.778L480.405 164.629L497.676 162.85L520.553 162.173L543.994 169.25Z" fill="#A0BBE7"/>
<path d="M536.619 228.663L533.913 250.493C531.505 253.586 528.366 256.032 524.778 257.61C513.821 261.848 469.753 258.248 463.181 257.681L465.011 247.783C519.761 253.116 535.315 227.948 535.315 227.948L536.619 228.663Z" fill="#82A6E1"/>
<path d="M502.075 178.328L483.223 247.027L488.194 265.075L498.503 249.233L503.866 178.718L502.075 178.328Z" fill="#2C2A40"/>
<path d="M499.647 173.628L502.307 182.5L510.691 172.078L503.959 167.626L499.647 173.628Z" fill="#383851"/>
<path d="M481.6 316C481.6 316 458.236 338.608 427.602 341.041C426.13 352.01 423.668 362.824 420.248 373.349C415.045 388.342 393.291 441.036 393.291 441.036L373.827 440.443L408.018 317.044C408.696 314.596 410.001 312.368 411.802 310.578C413.603 308.788 415.84 307.499 418.291 306.838L457.183 296.331C457.183 296.331 482.849 304.758 481.6 316Z" fill="#2C2A40"/>
<path d="M387.122 460.399L345.503 460.755C351.193 449.897 372.355 445.709 372.355 445.709L373.232 442.161L374.344 438.526C380.078 436.789 393.275 441.038 393.275 441.038L387.122 460.399Z" fill="#82423C"/>
<path d="M385.736 448.471C381.335 444.866 372.368 445.706 372.368 445.706L373.245 442.159C382.567 442.678 385.736 448.471 385.736 448.471Z" fill="#5C1A31"/>
<path d="M518.649 316.221C518.649 316.221 489.903 349.547 461.842 347.338C461.842 347.338 462.282 370.476 460.965 386.291C459.648 402.106 456.176 441.038 456.176 441.038L439.727 441.726L435.37 337.011C435.277 334.785 435.8 332.577 436.881 330.631C437.962 328.684 439.559 327.073 441.497 325.977L477.378 305.681C477.378 305.681 517.068 305.022 518.649 316.221Z" fill="#383851"/>
<path d="M453.698 460.668L412.127 460.755C417.817 449.898 438.807 445.67 438.807 445.67L439.561 442.161L439.671 440.416C445.406 438.679 456.177 441.038 456.177 441.038L453.698 460.668Z" fill="#82423C"/>
<path d="M450.592 448.471C446.191 444.866 438.81 445.667 438.81 445.667L439.563 442.159C448.883 442.678 450.592 448.471 450.592 448.471Z" fill="#5C1A31"/>
<path d="M556.334 197.193C551.066 221.535 524.254 252.71 524.254 252.71C524.254 252.71 495.319 259.207 467.574 250.575C465.994 250.087 464.426 249.552 462.867 248.962C462.195 244.627 462.195 240.214 462.867 235.88C462.867 235.88 464.837 236.499 467.574 237.074C471.044 237.898 474.623 238.165 478.176 237.865C489.766 236.283 514.202 232.163 514.202 232.163C514.202 232.163 526.174 214.932 543.989 169.258C543.989 169.25 561.603 172.843 556.334 197.193Z" fill="#A0BBE7"/>
<path d="M467.574 237.071V250.575C465.994 250.087 464.426 249.552 462.867 248.962C462.195 244.627 462.195 240.214 462.867 235.88C462.867 235.88 464.835 236.499 467.574 237.071Z" fill="#BFD7F7"/>
<path d="M462.864 235.88C462.864 235.88 455.984 228.072 453.785 227.951C451.069 227.801 452.657 233.162 452.657 233.162C452.657 233.162 446.541 230.094 442.342 233.141C438.518 235.917 440.435 254.932 462.864 248.956V235.88Z" fill="#CF9B5B"/>
<path d="M519.067 159.402C516.63 162.399 513.521 164.779 509.993 166.35C506.466 167.92 502.618 168.638 498.761 168.443L496.899 161.453L494.528 152.557C495.868 150.04 497.491 147.684 499.364 145.535C502.844 141.557 508.031 137.522 514.344 138.349L519.067 159.402Z" fill="#CF9B5B"/>
<path d="M511.987 141.563C511.987 141.563 509.011 156.614 496.897 161.453L494.526 152.557C495.866 150.04 497.489 147.684 499.362 145.535L511.987 141.563Z" fill="#A57843"/>
<path d="M474.036 100.388L470.875 145.672C470.772 147.094 470.964 148.521 471.44 149.865C471.915 151.209 472.664 152.439 473.638 153.479C474.612 154.519 475.791 155.346 477.1 155.908C478.409 156.469 479.821 156.754 481.245 156.743C492.801 156.621 510.338 153.472 518.499 136.873C531.24 110.944 499.805 83.5891 474.036 100.388Z" fill="#CF9B5B"/>
<path d="M472.763 118.615L467.284 131.267C467.132 131.618 467.05 131.995 467.044 132.378C467.038 132.76 467.107 133.14 467.249 133.496C467.39 133.851 467.6 134.175 467.867 134.449C468.134 134.723 468.453 134.941 468.804 135.092L471.538 136.264C471.538 136.264 475.882 132.93 472.763 118.615Z" fill="#CF9B5B"/>
<path d="M475.605 104.102C475.605 104.102 464.015 100.011 465.504 88.8135C468.283 67.7501 506.927 83.236 521.609 90.9064C538.251 99.6048 529.862 127.587 525.297 135.656C523.612 138.568 521.266 141.042 518.448 142.878C515.485 144.852 510.957 142.614 509.732 139.27C508.507 135.925 506.945 132.184 512.606 124.192C516.763 118.32 510.691 109.837 504.472 115.42C498.253 121.003 495.819 119.922 497.766 112.581C499.712 105.24 486.61 101.218 475.605 104.102Z" fill="#2C2A40"/>
<path d="M497.405 115.955C497.405 115.955 492.074 140.869 484.677 137.192C482.542 136.12 480.183 135.572 477.794 135.596C475.405 135.619 473.057 136.213 470.943 137.327C465.588 161.872 479.298 161.313 485.062 159.584C494.56 156.724 494.982 142.772 495.698 135.774C496.415 128.776 502.776 116.841 502.776 116.841L497.405 115.955ZM475.255 149.151C473.456 147.149 472.51 144.522 472.621 141.831C472.595 141.511 472.681 141.191 472.866 140.928C473.051 140.665 473.322 140.476 473.632 140.392C475.948 139.766 478.4 139.866 480.658 140.68C482.072 141.626 478.253 151.603 475.252 149.151H475.255Z" fill="#2C2A40"/>
<path d="M503.958 167.626L514.4 174.527C514.4 174.527 525.113 163.253 523.092 158.008C521.072 152.762 517.995 154.581 517.995 154.581C517.995 154.581 512.445 164.06 503.958 167.626Z" fill="#BFD7F7"/>
<path d="M496.586 160.177C496.586 160.177 492.045 164.743 492.045 168.362C492.045 171.981 498.127 175.742 498.127 175.742L503.961 167.621C502.191 167.909 500.399 168.03 498.606 167.982L496.586 160.177Z" fill="#BFD7F7"/>
<path d="M123.393 324.361H32.9074C28.4355 324.361 24.8103 327.989 24.8103 332.464V339.322C24.8103 343.797 28.4355 347.425 32.9074 347.425H123.393C127.865 347.425 131.49 343.797 131.49 339.322V332.464C131.49 327.989 127.865 324.361 123.393 324.361Z" fill="#63676D"/>
<path d="M38.9551 182.445L19.3866 184.733C16.4054 185.082 13.5277 186.04 10.9314 187.547C8.33517 189.054 6.07572 191.079 4.29294 193.495C2.51015 195.912 1.24199 198.668 0.56696 201.595C-0.10807 204.522 -0.175598 207.556 0.368557 210.509L19.5973 314.961C20.5522 320.146 23.3402 324.813 27.4514 328.11C31.5626 331.406 36.7223 333.112 41.9869 332.914L89.6899 331.151C92.9057 331.032 96.0559 330.206 98.9169 328.732C101.778 327.258 104.28 325.172 106.245 322.621C108.21 320.071 109.59 317.12 110.288 313.976C110.985 310.833 110.983 307.574 110.28 304.431L86.8188 199.452C85.731 194.584 83.0184 190.232 79.128 187.113C75.2377 183.995 70.4017 182.295 65.417 182.295H41.5022C40.651 182.295 39.8005 182.346 38.9551 182.445Z" fill="#63676D"/>
<path d="M47.5478 197.312L31.8487 199.157C29.4576 199.437 27.1495 200.206 25.0672 201.415C22.9849 202.624 21.1727 204.247 19.7428 206.186C18.3129 208.124 17.2957 210.335 16.7542 212.682C16.2128 215.03 16.1585 217.463 16.5948 219.832L32.0278 303.627C32.7934 307.785 35.0285 311.528 38.3245 314.172C41.6205 316.816 45.7573 318.186 49.979 318.03L88.2468 316.614C90.8266 316.519 93.3538 315.856 95.649 314.674C97.9443 313.491 99.9513 311.818 101.528 309.772C103.104 307.726 104.212 305.358 104.771 302.836C105.33 300.314 105.328 297.7 104.765 295.179L85.9446 210.955C85.0717 207.05 82.8956 203.559 79.7747 201.057C76.6538 198.556 72.7744 197.193 68.7757 197.193H49.5918C48.9087 197.193 48.2262 197.232 47.5478 197.312V197.312Z" fill="#404348"/>
<path d="M147.979 460.755H139.134L118.056 376.346L110.831 347.425L109.448 341.876L117.727 339.602L119.682 347.425L126.899 376.346L147.979 460.755Z" fill="#63676D"/>
<path d="M126.899 376.346H118.056L110.831 347.425H119.682L126.899 376.346Z" fill="#404348"/>
<path d="M46.4203 341.876L45.0374 347.425L37.8148 376.346L16.7422 460.755H7.89697L28.9695 376.346L36.1869 347.425L38.144 339.602L46.4203 341.876Z" fill="#63676D"/>
<path d="M45.0373 347.425L37.8147 376.346H28.9695L36.1868 347.425H45.0373Z" fill="#404348"/>
<path d="M85.5757 164.637L90.101 195.242C90.101 195.242 124.855 228.615 133.792 227.948C148.709 226.839 169.65 217.184 177.489 212.439C180.25 210.77 182.006 209.7 182.006 209.7L178.827 195.242C177.115 196.183 175.01 197.264 172.669 198.429C160.238 204.602 133.79 207.892 133.79 207.892C122.039 196.028 85.5757 164.637 85.5757 164.637Z" fill="#2C2A40"/>
<path d="M177.489 212.439C180.25 210.77 182.006 209.7 182.006 209.7L178.827 195.242C177.115 196.183 175.01 197.264 172.669 198.429C173.26 203.389 174.903 208.166 177.489 212.439V212.439Z" fill="#EDEDED"/>
<path d="M178.827 195.24C178.827 195.24 180.144 188.872 180.458 185.266C180.771 181.66 184.369 181.596 185.299 189.354C188.994 186.744 193.03 184.654 197.292 183.141C201.883 182.066 205.855 192.029 203.43 198.461C201.004 204.892 182.015 209.7 182.015 209.7C182.015 209.7 177.576 202.159 178.827 195.24Z" fill="#B28249"/>
<path d="M38.1362 299.078C38.1362 299.078 42.0241 329.029 80.7265 325.336C115.259 322.041 109.477 293.527 109.477 293.527C109.477 293.527 61.374 291.426 38.1362 299.078Z" fill="#2C2A40"/>
<path d="M38.1359 299.078C50.3132 302.112 61.8109 304.647 72.7766 302.133C79.6252 300.551 84.9881 299.586 95.1056 297.807C100.079 297.094 104.921 295.652 109.474 293.526L85.6071 164.637L68.3355 162.858L45.4586 162.181L22.0154 169.255L38.1359 299.078Z" fill="#2C2A40"/>
<path d="M72.7793 302.133C79.3039 301.395 88.0569 300.815 95.1083 297.807C91.31 277.977 74.8549 191.76 68.3462 162.85L45.4692 162.173C45.4692 162.173 68.7149 259.845 72.7793 302.133Z" fill="#EDEDED"/>
<path d="M63.9421 178.328L82.7942 247.027L77.8263 265.075L67.5165 249.233L62.1536 178.718L63.9421 178.328Z" fill="#0261F0"/>
<path d="M66.3733 173.628L63.7129 182.5L55.3286 172.078L62.0613 167.626L66.3733 173.628Z" fill="#0261F0"/>
<path d="M84.4194 316C84.4194 316 107.784 338.608 138.418 341.041C139.89 352.01 142.352 362.824 145.772 373.349C150.974 388.342 172.729 441.036 172.729 441.036L192.192 440.443L157.989 317.044C157.31 314.596 156.006 312.368 154.205 310.578C152.403 308.788 150.167 307.499 147.716 306.838L108.824 296.331C108.824 296.331 83.1708 304.758 84.4194 316Z" fill="#2C2A40"/>
<path d="M178.898 460.399L220.517 460.755C214.827 449.897 193.665 445.709 193.665 445.709L192.788 442.161L191.676 438.526C185.942 436.789 172.745 441.038 172.745 441.038L178.898 460.399Z" fill="#82423C"/>
<path d="M180.284 448.471C184.685 444.866 193.652 445.706 193.652 445.706L192.775 442.159C183.45 442.678 180.284 448.471 180.284 448.471Z" fill="#5C1A31"/>
<path d="M47.3684 316.221C47.3684 316.221 76.1246 349.547 104.175 347.338C104.175 347.338 103.735 370.476 105.052 386.291C106.369 402.106 109.841 441.038 109.841 441.038L126.29 441.726L130.65 337.011C130.743 334.785 130.22 332.577 129.139 330.631C128.058 328.684 126.46 327.073 124.523 325.977L88.6417 305.681C88.6417 305.681 48.9489 305.022 47.3684 316.221Z" fill="#383851"/>
<path d="M112.319 460.668L153.893 460.752C148.203 449.895 127.212 445.667 127.212 445.667L126.459 442.159L126.348 440.414C120.614 438.677 109.843 441.036 109.843 441.036L112.319 460.668Z" fill="#82423C"/>
<path d="M115.428 448.471C119.829 444.866 127.21 445.667 127.21 445.667L126.457 442.159C117.135 442.678 115.428 448.471 115.428 448.471Z" fill="#5C1A31"/>
<path d="M16.5049 219.168C18.021 226.262 21.0671 232.94 25.4303 238.733C29.7935 244.527 35.3685 249.297 41.7656 252.71C41.7656 252.71 70.7009 259.207 98.4456 250.575C100.026 250.087 101.606 249.552 103.153 248.962C103.824 244.627 103.824 240.215 103.153 235.88C103.153 235.88 101.185 236.499 98.4456 237.074C94.9758 237.898 91.397 238.165 87.8434 237.865C76.2535 236.283 51.8173 232.163 51.8173 232.163C51.8173 232.163 39.8428 214.925 22.0285 169.25C22.0285 169.25 11.2367 194.818 16.5049 219.168Z" fill="#2C2A40"/>
<path d="M98.4458 237.071V250.575C100.026 250.087 101.607 249.552 103.153 248.962C103.825 244.627 103.825 240.214 103.153 235.88C103.153 235.88 101.185 236.499 98.4458 237.071Z" fill="#EDEDED"/>
<path d="M103.156 235.88C103.156 235.88 110.036 228.072 112.235 227.951C114.951 227.801 113.363 233.162 113.363 233.162C113.363 233.162 119.479 230.094 123.678 233.141C127.5 235.917 125.585 254.932 103.156 248.956V235.88V235.88Z" fill="#B28249"/>
<path d="M47.0288 159.133C49.4895 162.111 52.6163 164.466 56.156 166.01C59.6957 167.553 63.5488 168.24 67.4034 168.016L69.213 161.013L71.5178 152.09C70.1578 149.584 68.5167 147.242 66.6263 145.108C63.1151 141.154 57.897 137.163 51.591 138.041L47.0288 159.133Z" fill="#B28249"/>
<path d="M53.9695 141.241C53.9695 141.241 57.0645 156.266 69.2129 161.01L71.5177 152.09C70.1577 149.584 68.5166 147.242 66.6262 145.108L53.9695 141.241Z" fill="#A57843"/>
<path d="M91.6026 99.7681L95.1112 145.026C95.2234 146.445 95.0412 147.872 94.576 149.217C94.1108 150.562 93.3727 151.797 92.408 152.843C91.4433 153.889 90.2729 154.724 88.9702 155.296C87.6675 155.868 86.2608 156.164 84.8383 156.165C73.2827 156.134 55.7187 153.121 47.4345 136.586C34.4802 110.773 65.7018 83.1726 91.6026 99.7681Z" fill="#B28249"/>
<path d="M93.0145 117.982L98.5987 130.603C98.7527 130.952 98.8362 131.328 98.8446 131.71C98.8529 132.091 98.7859 132.47 98.6474 132.826C98.5089 133.182 98.3016 133.506 98.0374 133.782C97.7732 134.057 97.4573 134.277 97.1078 134.43L94.3816 135.624C94.3816 135.624 90.009 132.321 93.0145 117.982Z" fill="#B28249"/>
<path d="M44.0577 88.2757C27.5289 97.1903 35.9974 127.397 40.6334 135.432C42.3381 138.33 44.7004 140.786 47.5294 142.601C50.5085 144.552 55.0181 142.28 56.2218 138.927C57.4256 135.574 58.9534 131.81 53.2322 123.873C49.0177 118.035 55.0339 109.502 61.2977 115.038C67.5615 120.573 69.9901 119.471 67.9803 112.138C65.9705 104.805 79.0224 100.691 90.0591 103.495C90.0591 103.495 101.504 102.607 99.7235 89.0612C97.9429 75.5154 81.854 72.5685 81.854 72.5685C81.854 72.5685 87.4277 78.631 80.724 81.5305C74.0203 84.4299 55.5159 82.0946 44.0577 88.2757Z" fill="#2C2A40"/>
<path d="M62.0613 167.626L51.6277 174.53C51.6277 174.53 40.9149 163.256 42.9353 158.01C44.9556 152.765 48.0322 154.584 48.0322 154.584C48.0322 154.584 53.5743 164.06 62.0613 167.626Z" fill="white"/>
<path d="M69.4343 160.177C69.4343 160.177 73.9675 164.748 73.9781 168.362C73.9886 171.975 67.896 175.742 67.896 175.742L62.0615 167.621C63.8313 167.909 65.6242 168.03 67.4166 167.982L69.4343 160.177Z" fill="white"/>
<path d="M140.506 268.979H126.169V459.932H140.506V268.979Z" fill="#82423C"/>
<path d="M140.506 268.979H126.169V302.138H140.506V268.979Z" fill="#5C1A31"/>
<path d="M440.114 268.979H425.777V459.932H440.114V268.979Z" fill="#82423C"/>
<path d="M440.114 268.979H425.777V302.138H440.114V268.979Z" fill="#5C1A31"/>
<path d="M466.239 250.522H95.7776V268.978H466.239V250.522Z" fill="#82423C"/>
<path d="M425.777 319.595H140.509V328.191H425.777V319.595Z" fill="#5C1A31"/>
<path d="M425.777 364.387H140.509V372.982H425.777V364.387Z" fill="#5C1A31"/>
<path opacity="0.2" d="M290.42 78.1906C283.057 78.1906 275.859 76.0058 269.737 71.9124C263.615 67.819 258.844 62.0009 256.026 55.1938C253.209 48.3867 252.471 40.8964 253.908 33.6701C255.344 26.4437 258.89 19.8059 264.096 14.596C269.302 9.38604 275.936 5.83805 283.157 4.40064C290.378 2.96322 297.864 3.70096 304.666 6.52054C311.468 9.34012 317.283 14.1149 321.373 20.2411C325.464 26.3673 327.647 33.5698 327.647 40.9377C327.636 50.8144 323.71 60.2833 316.731 67.2672C309.752 74.2511 300.29 78.1795 290.42 78.1906V78.1906Z" fill="black"/>
<path d="M290.42 74.5084C283.057 74.5084 275.859 72.3235 269.737 68.2301C263.615 64.1367 258.844 58.3186 256.026 51.5116C253.209 44.7045 252.471 37.2142 253.908 29.9878C255.344 22.7614 258.89 16.1236 264.096 10.9137C269.302 5.70379 275.936 2.1558 283.157 0.718384C290.378 -0.719027 297.864 0.0187047 304.666 2.83829C311.468 5.65787 317.283 10.4327 321.373 16.5589C325.464 22.6851 327.647 29.8876 327.647 37.2555C327.636 47.1321 323.71 56.6011 316.731 63.5849C309.752 70.5688 300.29 74.4972 290.42 74.5084V74.5084Z" fill="#2C2A40"/>
<path d="M290.42 69.0258C307.955 69.0258 322.171 54.8006 322.171 37.2529C322.171 19.7052 307.955 5.47998 290.42 5.47998C272.884 5.47998 258.668 19.7052 258.668 37.2529C258.668 54.8006 272.884 69.0258 290.42 69.0258Z" fill="white"/>
<path d="M290.42 15.4224C290.14 15.4224 289.872 15.3113 289.675 15.1136C289.477 14.9159 289.366 14.6477 289.366 14.3681V8.51115C289.404 8.26168 289.53 8.03402 289.721 7.8695C289.912 7.70498 290.156 7.6145 290.408 7.6145C290.66 7.6145 290.904 7.70498 291.095 7.8695C291.286 8.03402 291.412 8.26168 291.45 8.51115V14.3786C291.447 14.6524 291.338 14.9143 291.146 15.1091C290.953 15.3039 290.693 15.4163 290.42 15.4224V15.4224Z" fill="#2C2A40"/>
<path d="M290.42 66.3585C290.14 66.3585 289.872 66.2474 289.675 66.0496C289.477 65.8519 289.366 65.5837 289.366 65.3041V59.4472C289.404 59.1977 289.53 58.9701 289.721 58.8055C289.912 58.641 290.156 58.5505 290.408 58.5505C290.66 58.5505 290.904 58.641 291.095 58.8055C291.286 58.9701 291.412 59.1977 291.45 59.4472V65.3147C291.447 65.5884 291.338 65.8504 291.146 66.0452C290.953 66.24 290.693 66.3523 290.42 66.3585V66.3585Z" fill="#2C2A40"/>
<path d="M269.842 36.9023C269.842 37.0408 269.815 37.1779 269.762 37.3058C269.709 37.4337 269.632 37.55 269.534 37.6479C269.436 37.7458 269.32 37.8234 269.192 37.8764C269.064 37.9294 268.927 37.9567 268.789 37.9567H262.938C262.689 37.9189 262.462 37.793 262.297 37.6017C262.133 37.4104 262.042 37.1665 262.042 36.9142C262.042 36.6619 262.133 36.418 262.297 36.2267C262.462 36.0354 262.689 35.9094 262.938 35.8717H268.802C269.075 35.8751 269.336 35.9844 269.53 36.1767C269.724 36.3689 269.836 36.6291 269.842 36.9023V36.9023Z" fill="#2C2A40"/>
<path d="M320.745 36.9023C320.745 37.182 320.634 37.4501 320.437 37.6479C320.239 37.8456 319.971 37.9567 319.692 37.9567H313.828C313.579 37.9189 313.352 37.793 313.187 37.6017C313.023 37.4104 312.932 37.1665 312.932 36.9142C312.932 36.6619 313.023 36.418 313.187 36.2267C313.352 36.0354 313.579 35.9094 313.828 35.8717H319.692C319.967 35.8716 320.232 35.9795 320.429 36.1721C320.626 36.3647 320.739 36.6268 320.745 36.9023V36.9023Z" fill="#2C2A40"/>
<path d="M275.637 22.3549C275.44 22.5481 275.175 22.6563 274.9 22.6563C274.624 22.6563 274.359 22.5481 274.162 22.3549L270.019 18.206C269.866 18.003 269.793 17.7518 269.811 17.4987C269.828 17.2455 269.937 17.0073 270.116 16.8279C270.296 16.6484 270.534 16.5397 270.787 16.5217C271.04 16.5037 271.291 16.5776 271.494 16.7299L275.64 20.8788C275.832 21.0762 275.94 21.3414 275.94 21.6174C275.939 21.8934 275.83 22.1581 275.637 22.3549V22.3549Z" fill="#2C2A40"/>
<path d="M311.632 58.3716C311.435 58.5648 311.17 58.673 310.894 58.673C310.618 58.673 310.353 58.5648 310.157 58.3716L306.011 54.2227C305.858 54.0197 305.784 53.7685 305.802 53.5154C305.82 53.2622 305.929 53.024 306.108 52.8446C306.288 52.6651 306.526 52.5564 306.779 52.5384C307.032 52.5204 307.283 52.5944 307.486 52.7466L311.632 56.8955C311.825 57.0926 311.933 57.3576 311.933 57.6336C311.933 57.9095 311.825 58.1745 311.632 58.3716V58.3716Z" fill="#2C2A40"/>
<path d="M276.274 52.1088C276.468 52.3059 276.576 52.5709 276.576 52.8469C276.576 53.1229 276.468 53.3878 276.274 53.5849L272.128 57.7259C271.926 57.8782 271.675 57.9521 271.422 57.9341C271.169 57.9161 270.931 57.8074 270.751 57.628C270.572 57.4485 270.463 57.2103 270.445 56.9572C270.427 56.704 270.501 56.4528 270.653 56.2498L274.799 52.1009C274.997 51.9088 275.263 51.802 275.539 51.8035C275.814 51.805 276.079 51.9146 276.274 52.1088V52.1088Z" fill="#2C2A40"/>
<path d="M312.269 16.0919C312.462 16.289 312.571 16.554 312.571 16.83C312.571 17.1059 312.462 17.3709 312.269 17.568L308.123 21.7169C308.033 21.8377 307.917 21.9377 307.785 22.01C307.652 22.0823 307.506 22.1253 307.355 22.136C307.205 22.1467 307.053 22.1249 306.912 22.0721C306.771 22.0193 306.642 21.9366 306.535 21.8298C306.429 21.723 306.346 21.5945 306.293 21.453C306.241 21.3114 306.219 21.1602 306.229 21.0095C306.24 20.8589 306.283 20.7122 306.355 20.5796C306.428 20.447 306.528 20.3314 306.648 20.2408L310.794 16.0919C310.991 15.8987 311.256 15.7905 311.532 15.7905C311.808 15.7905 312.072 15.8987 312.269 16.0919V16.0919Z" fill="#2C2A40"/>
<path opacity="0.2" d="M322.168 37.2528C322.168 38.1771 322.129 39.0909 322.05 39.9941C321.367 32.0696 317.739 24.6896 311.883 19.3122C306.026 13.9348 298.367 10.9514 290.418 10.9514C282.47 10.9514 274.811 13.9348 268.954 19.3122C263.097 24.6896 259.469 32.0696 258.787 39.9941C258.706 39.0926 258.667 38.1789 258.669 37.2528C258.669 28.8264 262.014 20.7452 267.968 14.7869C273.922 8.82856 281.998 5.4812 290.418 5.4812C298.839 5.4812 306.915 8.82856 312.869 14.7869C318.823 20.7452 322.168 28.8264 322.168 37.2528V37.2528Z" fill="black"/>
<path d="M291.26 37.9568L300.258 59.6633L289.745 39.0006L291.26 37.9568Z" fill="#FF6160"/>
<path d="M290.641 40.2868C292.503 40.2868 294.013 38.7762 294.013 36.9129C294.013 35.0495 292.503 33.5389 290.641 33.5389C288.779 33.5389 287.269 35.0495 287.269 36.9129C287.269 38.7762 288.779 40.2868 290.641 40.2868Z" fill="#2C2A40"/>
<path d="M287.748 36.9129L282.562 24.0366L290.641 35.3235L287.748 36.9129Z" fill="#2C2A40"/>
<path d="M290.894 35.0651L311.137 43.5763L289.745 38.6209L290.894 35.0651Z" fill="#2C2A40"/>
<path d="M288.167 205.462V220.46H220.261C219.235 220.46 218.25 220.052 217.525 219.326C216.799 218.6 216.391 217.615 216.391 216.588V209.334C216.391 208.307 216.799 207.322 217.525 206.596C218.25 205.87 219.235 205.462 220.261 205.462H288.167V205.462Z" fill="#383851"/>
<path d="M288.168 207.359V218.562H226.554C226.084 218.562 225.619 218.469 225.185 218.289C224.752 218.11 224.357 217.846 224.025 217.513C223.694 217.181 223.43 216.786 223.251 216.352C223.071 215.918 222.979 215.452 222.979 214.982V210.944C222.979 210.474 223.071 210.008 223.25 209.573C223.429 209.139 223.692 208.744 224.024 208.411C224.356 208.078 224.751 207.814 225.185 207.633C225.619 207.453 226.084 207.36 226.554 207.359H288.168Z" fill="#EDEDED"/>
<path d="M288.173 209.632H229.236V210.62H288.173V209.632Z" fill="#9CA4AE"/>
<path d="M288.173 212.465H229.236V213.454H288.173V212.465Z" fill="#9CA4AE"/>
<path d="M288.173 215.299H229.236V216.287H288.173V215.299Z" fill="#9CA4AE"/>
<path d="M288.167 220.46V235.458H220.261C219.235 235.458 218.25 235.05 217.525 234.324C216.799 233.598 216.391 232.613 216.391 231.586V224.332C216.391 223.305 216.799 222.32 217.525 221.594C218.25 220.868 219.235 220.46 220.261 220.46H288.167Z" fill="#FBB708"/>
<path d="M288.168 222.358V233.56H226.554C226.084 233.56 225.619 233.468 225.185 233.288C224.752 233.108 224.357 232.844 224.025 232.512C223.694 232.179 223.43 231.785 223.251 231.35C223.071 230.916 222.979 230.451 222.979 229.981V225.943C222.979 225.472 223.071 225.006 223.25 224.572C223.429 224.137 223.692 223.742 224.024 223.409C224.356 223.076 224.751 222.812 225.185 222.631C225.619 222.451 226.084 222.358 226.554 222.358H288.168Z" fill="#EDEDED"/>
<path d="M288.173 224.63H229.236V225.618H288.173V224.63Z" fill="#9CA4AE"/>
<path d="M288.173 227.463H229.236V228.452H288.173V227.463Z" fill="#9CA4AE"/>
<path d="M288.173 230.297H229.236V231.285H288.173V230.297Z" fill="#9CA4AE"/>
<path d="M288.167 235.458V250.456H220.261C219.235 250.456 218.25 250.048 217.525 249.322C216.799 248.596 216.391 247.611 216.391 246.584V239.338C216.391 238.311 216.799 237.326 217.525 236.6C218.25 235.874 219.235 235.466 220.261 235.466H288.167V235.458Z" fill="#0261F0"/>
<path d="M288.168 237.356V248.564H226.554C226.084 248.564 225.619 248.471 225.185 248.291C224.752 248.111 224.357 247.847 224.025 247.515C223.694 247.183 223.43 246.788 223.251 246.354C223.071 245.919 222.979 245.454 222.979 244.984V240.941C222.979 240.47 223.071 240.004 223.25 239.57C223.429 239.135 223.692 238.74 224.024 238.407C224.356 238.074 224.751 237.81 225.185 237.63C225.619 237.449 226.084 237.356 226.554 237.356H288.168Z" fill="#EDEDED"/>
<path d="M288.173 239.628H229.236V240.617H288.173V239.628Z" fill="#9CA4AE"/>
<path d="M288.173 242.462H229.236V243.45H288.173V242.462Z" fill="#9CA4AE"/>
<path d="M288.173 245.295H229.236V246.284H288.173V245.295Z" fill="#9CA4AE"/>
<path d="M346.512 222.732V213.375H318.165V250.936H346.512V245.184C349.488 245.184 352.341 244.002 354.445 241.896C356.549 239.791 357.731 236.936 357.731 233.958C357.731 230.981 356.549 228.125 354.445 226.02C352.341 223.915 349.488 222.732 346.512 222.732ZM346.512 240.564V227.353C348.264 227.353 349.944 228.049 351.183 229.289C352.422 230.528 353.117 232.209 353.117 233.962C353.117 235.715 352.422 237.396 351.183 238.636C349.944 239.875 348.264 240.572 346.512 240.572V240.564Z" fill="#383851"/>
</g>
<defs>
<clipPath id="clip0">
<rect width="570" height="474" fill="white"/>
</clipPath>
</defs>
</svg>
