<svg width="111" height="95" viewBox="0 0 111 95" fill="none" xmlns="http://www.w3.org/2000/svg">
<rect x="31" width="80" height="77.4194" rx="15" fill="#FEEFD3"/>
<path fill-rule="evenodd" clip-rule="evenodd" d="M72 54C68.6863 54 66 51.3137 66 48C66 44.6863 68.6863 42 72 42H93C96.3137 42 99 44.6863 99 48C99 51.3137 96.3137 54 93 54H72ZM72 50C73.1046 50 74 49.1046 74 48C74 46.8954 73.1046 46 72 46C70.8954 46 70 46.8954 70 48C70 49.1046 70.8954 50 72 50Z" fill="#1584EA"/>
<path fill-rule="evenodd" clip-rule="evenodd" d="M15 10H76C80.9706 10 85 14.0294 85 19V38H91V19C91 10.7157 84.2843 4 76 4H15C6.71573 4 0 10.7157 0 19V80C0 88.2843 6.71573 95 15 95H76C84.2843 95 91 88.2843 91 80V58H85V80C85 84.9706 80.9706 89 76 89H15C10.0294 89 6 84.9706 6 80V19C6 14.0294 10.0294 10 15 10Z" fill="#1584EA"/>
<path d="M45 26C36.1778 26 29 33.1778 29 42C29 44.6485 29.6622 47.2744 30.9209 49.6035L44.1251 73.4844C44.3008 73.8027 44.6358 74 45 74C45.3643 74 45.6992 73.8027 45.875 73.4844L59.084 49.5957C60.3379 47.2744 61.0001 44.6484 61.0001 41.9999C61.0001 33.1778 53.8223 26 45 26ZM45 50C40.5889 50 37.0001 46.4112 37.0001 42C37.0001 37.5889 40.5889 34.0001 45 34.0001C49.4112 34.0001 53 37.5889 53 42C53 46.4112 49.4112 50 45 50Z" fill="#00BFD8"/>
<path d="M13.4989 62.5C13.4975 70 11.4999 82.5 22.9989 82.5" stroke="#1584EA" stroke-width="3" stroke-linecap="round" stroke-linejoin="round"/>
<circle cx="27.4" cy="82.4" r="1.4" fill="#1584EA"/>
</svg>
